G75*
%MOIN*%
%OFA0B0*%
%FSLAX24Y24*%
%IPPOS*%
%LPD*%
%AMOC8*
5,1,8,0,0,1.08239X$1,22.5*
%
%ADD10R,0.0740X0.0740*%
%ADD11C,0.0740*%
%ADD12C,0.1700*%
%ADD13C,0.0100*%
%ADD14C,0.0320*%
%ADD15C,0.0340*%
D10*
X006200Y000650D03*
X015200Y000650D03*
X015200Y001650D03*
X016200Y006150D03*
X008200Y006150D03*
D11*
X007200Y006150D03*
X006200Y006150D03*
X005200Y006150D03*
X004200Y006150D03*
X003200Y006150D03*
X002200Y006150D03*
X009200Y006150D03*
X010200Y006150D03*
X011200Y006150D03*
X012200Y006150D03*
X013200Y006150D03*
X014200Y006150D03*
X015200Y006150D03*
X017200Y006150D03*
X018200Y006150D03*
X019200Y006150D03*
X020200Y006150D03*
X021200Y006150D03*
X022200Y006150D03*
X023200Y006150D03*
X022200Y001650D03*
X021200Y001650D03*
X020200Y001650D03*
X019200Y001650D03*
X018200Y001650D03*
X017200Y001650D03*
X016200Y001650D03*
X016200Y000650D03*
X017200Y000650D03*
X018200Y000650D03*
X019200Y000650D03*
X020200Y000650D03*
X021200Y000650D03*
X022200Y000650D03*
X013200Y000650D03*
X012200Y000650D03*
X011200Y000650D03*
X010200Y000650D03*
X009200Y000650D03*
X008200Y000650D03*
X007200Y000650D03*
D12*
X004713Y001400D03*
X005894Y003250D03*
X003531Y003250D03*
D13*
X001850Y005765D02*
X001850Y000412D01*
X001962Y000300D01*
X005680Y000300D01*
X005680Y001082D01*
X005768Y001170D01*
X006632Y001170D01*
X006720Y001082D01*
X006720Y000850D01*
X006759Y000945D01*
X006905Y001091D01*
X007097Y001170D01*
X007303Y001170D01*
X007495Y001091D01*
X007641Y000945D01*
X007700Y000802D01*
X007759Y000945D01*
X007905Y001091D01*
X008097Y001170D01*
X008303Y001170D01*
X008495Y001091D01*
X008641Y000945D01*
X008700Y000802D01*
X008759Y000945D01*
X008905Y001091D01*
X009097Y001170D01*
X009303Y001170D01*
X009495Y001091D01*
X009641Y000945D01*
X009700Y000802D01*
X009759Y000945D01*
X009890Y001075D01*
X009890Y003762D01*
X009880Y003786D01*
X009880Y003914D01*
X009890Y003938D01*
X009890Y004122D01*
X009672Y004340D01*
X002962Y004340D01*
X002838Y004340D01*
X002724Y004387D01*
X002024Y005087D01*
X001937Y005174D01*
X001890Y005288D01*
X001890Y005725D01*
X001850Y005765D01*
X001850Y005765D01*
X001850Y005666D02*
X001890Y005666D01*
X001890Y005568D02*
X001850Y005568D01*
X001850Y005469D02*
X001890Y005469D01*
X001890Y005371D02*
X001850Y005371D01*
X001850Y005272D02*
X001897Y005272D01*
X001938Y005174D02*
X001850Y005174D01*
X001850Y005075D02*
X002037Y005075D01*
X002135Y004977D02*
X001850Y004977D01*
X001850Y004878D02*
X002234Y004878D01*
X002332Y004780D02*
X001850Y004780D01*
X001850Y004681D02*
X002431Y004681D01*
X002529Y004583D02*
X001850Y004583D01*
X001850Y004484D02*
X002628Y004484D01*
X002728Y004386D02*
X001850Y004386D01*
X001850Y004287D02*
X009725Y004287D01*
X009823Y004189D02*
X006241Y004189D01*
X006093Y004250D02*
X005695Y004250D01*
X005327Y004098D01*
X005046Y003816D01*
X004894Y003449D01*
X004894Y003051D01*
X005046Y002684D01*
X005327Y002402D01*
X005695Y002250D01*
X006093Y002250D01*
X006460Y002402D01*
X006741Y002684D01*
X006894Y003051D01*
X006894Y003449D01*
X006741Y003816D01*
X006460Y004098D01*
X006093Y004250D01*
X006468Y004090D02*
X009890Y004090D01*
X009890Y003992D02*
X006566Y003992D01*
X006665Y003893D02*
X009880Y003893D01*
X009880Y003795D02*
X006751Y003795D01*
X006791Y003696D02*
X009890Y003696D01*
X009890Y003598D02*
X006832Y003598D01*
X006873Y003499D02*
X009890Y003499D01*
X009890Y003401D02*
X006894Y003401D01*
X006894Y003302D02*
X009890Y003302D01*
X009890Y003204D02*
X006894Y003204D01*
X006894Y003105D02*
X009890Y003105D01*
X009890Y003007D02*
X006875Y003007D01*
X006834Y002908D02*
X009890Y002908D01*
X009890Y002810D02*
X006794Y002810D01*
X006753Y002711D02*
X009890Y002711D01*
X009890Y002613D02*
X006670Y002613D01*
X006572Y002514D02*
X009890Y002514D01*
X009890Y002416D02*
X006473Y002416D01*
X006254Y002317D02*
X009890Y002317D01*
X009890Y002219D02*
X005251Y002219D01*
X005281Y002200D02*
X005187Y002259D01*
X005088Y002306D01*
X004984Y002343D01*
X004877Y002367D01*
X004768Y002380D01*
X004763Y002380D01*
X004763Y001450D01*
X005693Y001450D01*
X005693Y001455D01*
X005680Y001564D01*
X005656Y001671D01*
X005619Y001775D01*
X005572Y001874D01*
X005513Y001968D01*
X005444Y002054D01*
X005367Y002131D01*
X005281Y002200D01*
X005378Y002120D02*
X009890Y002120D01*
X009890Y002022D02*
X005470Y002022D01*
X005541Y001923D02*
X009890Y001923D01*
X009890Y001825D02*
X005596Y001825D01*
X005637Y001726D02*
X009890Y001726D01*
X009890Y001628D02*
X005666Y001628D01*
X005684Y001529D02*
X009890Y001529D01*
X009890Y001431D02*
X004763Y001431D01*
X004763Y001450D02*
X004763Y001350D01*
X005693Y001350D01*
X005693Y001345D01*
X005680Y001235D01*
X005656Y001128D01*
X005619Y001024D01*
X005572Y000925D01*
X005513Y000832D01*
X005444Y000746D01*
X005367Y000668D01*
X005281Y000599D01*
X005187Y000541D01*
X005088Y000493D01*
X004984Y000456D01*
X004877Y000432D01*
X004768Y000420D01*
X004763Y000420D01*
X004763Y001350D01*
X004663Y001350D01*
X004663Y000420D01*
X004658Y000420D01*
X004548Y000432D01*
X004441Y000456D01*
X004337Y000493D01*
X004238Y000541D01*
X004145Y000599D01*
X004059Y000668D01*
X003981Y000746D01*
X003912Y000832D01*
X003854Y000925D01*
X003806Y001024D01*
X003769Y001128D01*
X003745Y001235D01*
X003733Y001345D01*
X003733Y001350D01*
X004663Y001350D01*
X004663Y001450D01*
X004663Y002380D01*
X004658Y002380D01*
X004548Y002367D01*
X004441Y002343D01*
X004337Y002306D01*
X004238Y002259D01*
X004145Y002200D01*
X004059Y002131D01*
X003981Y002054D01*
X003912Y001968D01*
X003854Y001874D01*
X003806Y001775D01*
X003769Y001671D01*
X003745Y001564D01*
X003733Y001455D01*
X003733Y001450D01*
X004663Y001450D01*
X004763Y001450D01*
X004763Y001529D02*
X004663Y001529D01*
X004663Y001628D02*
X004763Y001628D01*
X004763Y001726D02*
X004663Y001726D01*
X004663Y001825D02*
X004763Y001825D01*
X004763Y001923D02*
X004663Y001923D01*
X004663Y002022D02*
X004763Y002022D01*
X004763Y002120D02*
X004663Y002120D01*
X004663Y002219D02*
X004763Y002219D01*
X004763Y002317D02*
X004663Y002317D01*
X004367Y002317D02*
X003832Y002317D01*
X003803Y002307D02*
X003907Y002343D01*
X004006Y002391D01*
X004099Y002449D01*
X004186Y002518D01*
X004263Y002596D01*
X004332Y002682D01*
X004391Y002775D01*
X004438Y002874D01*
X004475Y002978D01*
X004499Y003086D01*
X004511Y003195D01*
X004511Y003200D01*
X003582Y003200D01*
X003582Y003300D01*
X004511Y003300D01*
X004511Y003305D01*
X004499Y003414D01*
X004475Y003522D01*
X004438Y003626D01*
X004391Y003725D01*
X004332Y003818D01*
X004263Y003904D01*
X004186Y003982D01*
X004099Y004051D01*
X004006Y004109D01*
X003907Y004157D01*
X003803Y004193D01*
X003696Y004218D01*
X003587Y004230D01*
X003581Y004230D01*
X003581Y003300D01*
X003481Y003300D01*
X003481Y003200D01*
X002551Y003200D01*
X002551Y003195D01*
X002564Y003086D01*
X002588Y002978D01*
X002625Y002874D01*
X002672Y002775D01*
X002731Y002682D01*
X002800Y002596D01*
X002877Y002518D01*
X002964Y002449D01*
X003057Y002391D01*
X003156Y002343D01*
X003260Y002307D01*
X003367Y002282D01*
X003476Y002270D01*
X003481Y002270D01*
X003481Y003200D01*
X003581Y003200D01*
X003581Y002270D01*
X003587Y002270D01*
X003696Y002282D01*
X003803Y002307D01*
X003581Y002317D02*
X003481Y002317D01*
X003231Y002317D02*
X001850Y002317D01*
X001850Y002219D02*
X004174Y002219D01*
X004047Y002120D02*
X001850Y002120D01*
X001850Y002022D02*
X003955Y002022D01*
X003884Y001923D02*
X001850Y001923D01*
X001850Y001825D02*
X003830Y001825D01*
X003789Y001726D02*
X001850Y001726D01*
X001850Y001628D02*
X003759Y001628D01*
X003741Y001529D02*
X001850Y001529D01*
X001850Y001431D02*
X004663Y001431D01*
X004663Y001332D02*
X004763Y001332D01*
X004763Y001234D02*
X004663Y001234D01*
X004663Y001135D02*
X004763Y001135D01*
X004763Y001037D02*
X004663Y001037D01*
X004663Y000938D02*
X004763Y000938D01*
X004763Y000840D02*
X004663Y000840D01*
X004663Y000741D02*
X004763Y000741D01*
X004763Y000643D02*
X004663Y000643D01*
X004663Y000544D02*
X004763Y000544D01*
X004763Y000446D02*
X004663Y000446D01*
X004489Y000446D02*
X001850Y000446D01*
X001850Y000544D02*
X004232Y000544D01*
X004090Y000643D02*
X001850Y000643D01*
X001850Y000741D02*
X003985Y000741D01*
X003907Y000840D02*
X001850Y000840D01*
X001850Y000938D02*
X003847Y000938D01*
X003801Y001037D02*
X001850Y001037D01*
X001850Y001135D02*
X003768Y001135D01*
X003745Y001234D02*
X001850Y001234D01*
X001850Y001332D02*
X003734Y001332D01*
X005518Y000840D02*
X005680Y000840D01*
X005680Y000938D02*
X005578Y000938D01*
X005624Y001037D02*
X005680Y001037D01*
X005657Y001135D02*
X005733Y001135D01*
X005680Y001234D02*
X009890Y001234D01*
X009890Y001135D02*
X009388Y001135D01*
X009549Y001037D02*
X009851Y001037D01*
X009756Y000938D02*
X009644Y000938D01*
X009684Y000840D02*
X009716Y000840D01*
X010510Y001075D02*
X010510Y003762D01*
X010520Y003786D01*
X010520Y003914D01*
X010510Y003938D01*
X010510Y004312D01*
X010463Y004426D01*
X010376Y004513D01*
X010063Y004826D01*
X009976Y004913D01*
X009862Y004960D01*
X003028Y004960D01*
X002510Y005478D01*
X002510Y005725D01*
X002641Y005855D01*
X002713Y006030D01*
X002737Y005958D01*
X002772Y005888D01*
X002819Y005824D01*
X002874Y005769D01*
X002938Y005722D01*
X003008Y005687D01*
X003083Y005662D01*
X003150Y005652D01*
X003150Y006100D01*
X003250Y006100D01*
X003250Y005652D01*
X003317Y005662D01*
X003392Y005687D01*
X003462Y005722D01*
X003526Y005769D01*
X003581Y005824D01*
X003628Y005888D01*
X003663Y005958D01*
X003687Y006030D01*
X003759Y005855D01*
X003905Y005709D01*
X004097Y005630D01*
X004303Y005630D01*
X004495Y005709D01*
X004641Y005855D01*
X004700Y005998D01*
X004759Y005855D01*
X004905Y005709D01*
X005097Y005630D01*
X005303Y005630D01*
X005495Y005709D01*
X005641Y005855D01*
X005700Y005998D01*
X005759Y005855D01*
X005905Y005709D01*
X006097Y005630D01*
X006303Y005630D01*
X006495Y005709D01*
X006641Y005855D01*
X006700Y005998D01*
X006759Y005855D01*
X006905Y005709D01*
X007097Y005630D01*
X007303Y005630D01*
X007495Y005709D01*
X007641Y005855D01*
X007680Y005950D01*
X007680Y005718D01*
X007768Y005630D01*
X008632Y005630D01*
X008720Y005718D01*
X008720Y005950D01*
X008759Y005855D01*
X008905Y005709D01*
X009097Y005630D01*
X009303Y005630D01*
X009495Y005709D01*
X009641Y005855D01*
X009700Y005998D01*
X009759Y005855D01*
X009905Y005709D01*
X010097Y005630D01*
X010303Y005630D01*
X010495Y005709D01*
X010641Y005855D01*
X010700Y005998D01*
X010759Y005855D01*
X010905Y005709D01*
X011097Y005630D01*
X011303Y005630D01*
X011495Y005709D01*
X011641Y005855D01*
X011700Y005998D01*
X011759Y005855D01*
X011905Y005709D01*
X012097Y005630D01*
X012303Y005630D01*
X012495Y005709D01*
X012641Y005855D01*
X012700Y005998D01*
X012759Y005855D01*
X012905Y005709D01*
X013097Y005630D01*
X013303Y005630D01*
X013495Y005709D01*
X013641Y005855D01*
X013700Y005998D01*
X013759Y005855D01*
X013905Y005709D01*
X014097Y005630D01*
X014303Y005630D01*
X014463Y005696D01*
X014400Y005633D01*
X014400Y001167D01*
X014517Y001050D01*
X014680Y000887D01*
X014680Y000300D01*
X013585Y000300D01*
X013641Y000355D01*
X013720Y000547D01*
X013720Y000753D01*
X013641Y000945D01*
X013495Y001091D01*
X013303Y001170D01*
X013097Y001170D01*
X012905Y001091D01*
X012759Y000945D01*
X012687Y000770D01*
X012663Y000842D01*
X012628Y000912D01*
X012581Y000976D01*
X012526Y001031D01*
X012462Y001078D01*
X012392Y001113D01*
X012317Y001138D01*
X012250Y001148D01*
X012250Y000700D01*
X012150Y000700D01*
X012150Y001148D01*
X012083Y001138D01*
X012008Y001113D01*
X011938Y001078D01*
X011874Y001031D01*
X011819Y000976D01*
X011772Y000912D01*
X011737Y000842D01*
X011712Y000767D01*
X011702Y000700D01*
X012150Y000700D01*
X012150Y000600D01*
X011702Y000600D01*
X011712Y000533D01*
X011737Y000458D01*
X011772Y000388D01*
X011819Y000324D01*
X011843Y000300D01*
X011557Y000300D01*
X011581Y000324D01*
X011628Y000388D01*
X011663Y000458D01*
X011688Y000533D01*
X011698Y000600D01*
X011250Y000600D01*
X011250Y000700D01*
X011150Y000700D01*
X011150Y001148D01*
X011083Y001138D01*
X011008Y001113D01*
X010938Y001078D01*
X010874Y001031D01*
X010819Y000976D01*
X010772Y000912D01*
X010737Y000842D01*
X010713Y000770D01*
X010641Y000945D01*
X010510Y001075D01*
X010549Y001037D02*
X010881Y001037D01*
X011075Y001135D02*
X010510Y001135D01*
X010510Y001234D02*
X014400Y001234D01*
X014432Y001135D02*
X013388Y001135D01*
X013549Y001037D02*
X014531Y001037D01*
X014629Y000938D02*
X013644Y000938D01*
X013684Y000840D02*
X014680Y000840D01*
X014680Y000741D02*
X013720Y000741D01*
X013720Y000643D02*
X014680Y000643D01*
X014680Y000544D02*
X013719Y000544D01*
X013678Y000446D02*
X014680Y000446D01*
X014680Y000347D02*
X013632Y000347D01*
X012815Y000300D02*
X012557Y000300D01*
X012581Y000324D01*
X012628Y000388D01*
X012663Y000458D01*
X012687Y000530D01*
X012759Y000355D01*
X012815Y000300D01*
X012768Y000347D02*
X012598Y000347D01*
X012657Y000446D02*
X012722Y000446D01*
X012150Y000643D02*
X011250Y000643D01*
X011250Y000700D02*
X011698Y000700D01*
X011688Y000767D01*
X011663Y000842D01*
X011628Y000912D01*
X011581Y000976D01*
X011526Y001031D01*
X011462Y001078D01*
X011392Y001113D01*
X011317Y001138D01*
X011250Y001148D01*
X011250Y000700D01*
X011250Y000741D02*
X011150Y000741D01*
X011150Y000840D02*
X011250Y000840D01*
X011250Y000938D02*
X011150Y000938D01*
X010791Y000938D02*
X010644Y000938D01*
X010684Y000840D02*
X010736Y000840D01*
X011150Y001037D02*
X011250Y001037D01*
X011250Y001135D02*
X011150Y001135D01*
X011325Y001135D02*
X012075Y001135D01*
X012150Y001135D02*
X012250Y001135D01*
X012325Y001135D02*
X013012Y001135D01*
X012851Y001037D02*
X012519Y001037D01*
X012250Y001037D02*
X012150Y001037D01*
X011881Y001037D02*
X011519Y001037D01*
X011609Y000938D02*
X011791Y000938D01*
X011736Y000840D02*
X011664Y000840D01*
X011692Y000741D02*
X011708Y000741D01*
X012150Y000741D02*
X012250Y000741D01*
X012250Y000840D02*
X012150Y000840D01*
X012150Y000938D02*
X012250Y000938D01*
X012609Y000938D02*
X012756Y000938D01*
X012716Y000840D02*
X012664Y000840D01*
X011711Y000544D02*
X011689Y000544D01*
X011657Y000446D02*
X011743Y000446D01*
X011802Y000347D02*
X011598Y000347D01*
X010843Y000300D02*
X010585Y000300D01*
X010641Y000355D01*
X010713Y000530D01*
X010737Y000458D01*
X010772Y000388D01*
X010819Y000324D01*
X010843Y000300D01*
X010802Y000347D02*
X010632Y000347D01*
X010678Y000446D02*
X010743Y000446D01*
X009815Y000300D02*
X009585Y000300D01*
X009641Y000355D01*
X009700Y000498D01*
X009759Y000355D01*
X009815Y000300D01*
X009768Y000347D02*
X009632Y000347D01*
X009678Y000446D02*
X009722Y000446D01*
X008815Y000300D02*
X008585Y000300D01*
X008641Y000355D01*
X008700Y000498D01*
X008759Y000355D01*
X008815Y000300D01*
X008768Y000347D02*
X008632Y000347D01*
X008678Y000446D02*
X008722Y000446D01*
X007815Y000300D02*
X007585Y000300D01*
X007641Y000355D01*
X007700Y000498D01*
X007759Y000355D01*
X007815Y000300D01*
X007768Y000347D02*
X007632Y000347D01*
X007678Y000446D02*
X007722Y000446D01*
X006815Y000300D02*
X006720Y000300D01*
X006720Y000450D01*
X006759Y000355D01*
X006815Y000300D01*
X006768Y000347D02*
X006720Y000347D01*
X006720Y000446D02*
X006722Y000446D01*
X005680Y000446D02*
X004936Y000446D01*
X005193Y000544D02*
X005680Y000544D01*
X005680Y000643D02*
X005335Y000643D01*
X005440Y000741D02*
X005680Y000741D01*
X005680Y000347D02*
X001915Y000347D01*
X005691Y001332D02*
X009890Y001332D01*
X010510Y001332D02*
X014400Y001332D01*
X014400Y001431D02*
X010510Y001431D01*
X010510Y001529D02*
X014400Y001529D01*
X014400Y001628D02*
X010510Y001628D01*
X010510Y001726D02*
X014400Y001726D01*
X014400Y001825D02*
X010510Y001825D01*
X010510Y001923D02*
X014400Y001923D01*
X014400Y002022D02*
X010510Y002022D01*
X010510Y002120D02*
X014400Y002120D01*
X014800Y002170D02*
X014800Y005467D01*
X015002Y005669D01*
X015097Y005630D01*
X015303Y005630D01*
X015495Y005709D01*
X015500Y005715D01*
X015500Y003962D01*
X015471Y004031D01*
X015381Y004121D01*
X015264Y004170D01*
X015136Y004170D01*
X015019Y004121D01*
X014929Y004031D01*
X014880Y003914D01*
X014880Y003786D01*
X014929Y003669D01*
X015000Y003597D01*
X015000Y002170D01*
X014800Y002170D01*
X014800Y002219D02*
X015000Y002219D01*
X015000Y002317D02*
X014800Y002317D01*
X014400Y002317D02*
X010510Y002317D01*
X010510Y002219D02*
X014400Y002219D01*
X014400Y002416D02*
X010510Y002416D01*
X010510Y002514D02*
X014400Y002514D01*
X014400Y002613D02*
X010510Y002613D01*
X010510Y002711D02*
X014400Y002711D01*
X014400Y002810D02*
X010510Y002810D01*
X010510Y002908D02*
X014400Y002908D01*
X014400Y003007D02*
X010510Y003007D01*
X010510Y003105D02*
X014400Y003105D01*
X014400Y003204D02*
X010510Y003204D01*
X010510Y003302D02*
X014400Y003302D01*
X014800Y003302D02*
X015000Y003302D01*
X015000Y003204D02*
X014800Y003204D01*
X014800Y003105D02*
X015000Y003105D01*
X015000Y003007D02*
X014800Y003007D01*
X014800Y002908D02*
X015000Y002908D01*
X015000Y002810D02*
X014800Y002810D01*
X014800Y002711D02*
X015000Y002711D01*
X015000Y002613D02*
X014800Y002613D01*
X014800Y002514D02*
X015000Y002514D01*
X015000Y002416D02*
X014800Y002416D01*
X015400Y002416D02*
X015500Y002416D01*
X015500Y002514D02*
X015400Y002514D01*
X015400Y002613D02*
X015500Y002613D01*
X015500Y002711D02*
X015400Y002711D01*
X015400Y002810D02*
X015500Y002810D01*
X015500Y002908D02*
X015400Y002908D01*
X015400Y003007D02*
X015500Y003007D01*
X015500Y003105D02*
X015400Y003105D01*
X015400Y003204D02*
X015500Y003204D01*
X015500Y003302D02*
X015400Y003302D01*
X015400Y003401D02*
X015500Y003401D01*
X015500Y003499D02*
X015400Y003499D01*
X015400Y003597D02*
X015471Y003669D01*
X015500Y003738D01*
X015500Y002170D01*
X015400Y002170D01*
X015400Y003597D01*
X015400Y003598D02*
X015500Y003598D01*
X015500Y003696D02*
X015483Y003696D01*
X015200Y003850D02*
X015200Y001650D01*
X016200Y001650D02*
X016200Y004150D01*
X015900Y004262D02*
X015900Y005567D01*
X015963Y005630D01*
X016500Y005630D01*
X016500Y004262D01*
X016471Y004331D01*
X016381Y004421D01*
X016264Y004470D01*
X016136Y004470D01*
X016019Y004421D01*
X015929Y004331D01*
X015900Y004262D01*
X015900Y004287D02*
X015910Y004287D01*
X015900Y004386D02*
X015983Y004386D01*
X015900Y004484D02*
X016500Y004484D01*
X016500Y004386D02*
X016417Y004386D01*
X016490Y004287D02*
X016500Y004287D01*
X016900Y004287D02*
X017500Y004287D01*
X017500Y004386D02*
X016900Y004386D01*
X016900Y004484D02*
X017500Y004484D01*
X017500Y004583D02*
X016900Y004583D01*
X016900Y004681D02*
X017500Y004681D01*
X017900Y004681D02*
X017978Y004681D01*
X018019Y004721D02*
X017929Y004631D01*
X017900Y004562D01*
X017900Y005567D01*
X018002Y005669D01*
X018097Y005630D01*
X018303Y005630D01*
X018495Y005709D01*
X018500Y005715D01*
X018500Y004562D01*
X018471Y004631D01*
X018381Y004721D01*
X018264Y004770D01*
X018136Y004770D01*
X018019Y004721D01*
X017900Y004780D02*
X018500Y004780D01*
X018500Y004878D02*
X017900Y004878D01*
X017500Y004878D02*
X016900Y004878D01*
X016900Y004780D02*
X017500Y004780D01*
X017500Y004977D02*
X016900Y004977D01*
X016900Y005075D02*
X017500Y005075D01*
X017500Y005174D02*
X016900Y005174D01*
X016900Y005272D02*
X017500Y005272D01*
X017500Y005371D02*
X016900Y005371D01*
X016900Y005469D02*
X017500Y005469D01*
X017500Y005568D02*
X016900Y005568D01*
X016900Y005567D02*
X017002Y005669D01*
X017097Y005630D01*
X017303Y005630D01*
X017495Y005709D01*
X017500Y005715D01*
X017500Y002085D01*
X017495Y002091D01*
X017303Y002170D01*
X017097Y002170D01*
X016905Y002091D01*
X016900Y002085D01*
X016900Y005567D01*
X016700Y005650D02*
X017200Y006150D01*
X017700Y006302D02*
X017641Y006445D01*
X017495Y006591D01*
X017472Y006600D01*
X017928Y006600D01*
X017905Y006591D01*
X017759Y006445D01*
X017700Y006302D01*
X017678Y006356D02*
X017722Y006356D01*
X017769Y006454D02*
X017631Y006454D01*
X017533Y006553D02*
X017867Y006553D01*
X018472Y006600D02*
X018928Y006600D01*
X018905Y006591D01*
X018759Y006445D01*
X018700Y006302D01*
X018641Y006445D01*
X018495Y006591D01*
X018472Y006600D01*
X018533Y006553D02*
X018867Y006553D01*
X018769Y006454D02*
X018631Y006454D01*
X018678Y006356D02*
X018722Y006356D01*
X019200Y006150D02*
X018700Y005650D01*
X018700Y001050D01*
X019100Y000650D01*
X019200Y000650D01*
X019700Y000498D02*
X019759Y000355D01*
X019815Y000300D01*
X019585Y000300D01*
X019641Y000355D01*
X019700Y000498D01*
X019678Y000446D02*
X019722Y000446D01*
X019768Y000347D02*
X019632Y000347D01*
X018815Y000300D02*
X018585Y000300D01*
X018641Y000355D01*
X018700Y000498D01*
X018759Y000355D01*
X018815Y000300D01*
X018768Y000347D02*
X018632Y000347D01*
X018678Y000446D02*
X018722Y000446D01*
X018200Y000650D02*
X018100Y000650D01*
X017700Y001050D01*
X017700Y005650D01*
X018200Y006150D01*
X017719Y005952D02*
X017654Y005887D01*
X017700Y005998D01*
X017719Y005952D01*
X017715Y005962D02*
X017685Y005962D01*
X017500Y005666D02*
X017390Y005666D01*
X017010Y005666D02*
X016999Y005666D01*
X016700Y005650D02*
X016700Y001050D01*
X017100Y000650D01*
X017200Y000650D01*
X017700Y000498D02*
X017759Y000355D01*
X017815Y000300D01*
X017585Y000300D01*
X017641Y000355D01*
X017700Y000498D01*
X017678Y000446D02*
X017722Y000446D01*
X017768Y000347D02*
X017632Y000347D01*
X016815Y000300D02*
X016585Y000300D01*
X016641Y000355D01*
X016700Y000498D01*
X016759Y000355D01*
X016815Y000300D01*
X016768Y000347D02*
X016632Y000347D01*
X016678Y000446D02*
X016722Y000446D01*
X016200Y000650D02*
X016100Y000650D01*
X015700Y001050D01*
X015700Y005650D01*
X016200Y006150D01*
X016720Y006350D02*
X016720Y006582D01*
X016702Y006600D01*
X016928Y006600D01*
X016905Y006591D01*
X016759Y006445D01*
X016720Y006350D01*
X016720Y006356D02*
X016722Y006356D01*
X016720Y006454D02*
X016769Y006454D01*
X016720Y006553D02*
X016867Y006553D01*
X015698Y006600D02*
X015472Y006600D01*
X015495Y006591D01*
X015641Y006445D01*
X015680Y006350D01*
X015680Y006582D01*
X015698Y006600D01*
X015680Y006553D02*
X015533Y006553D01*
X015631Y006454D02*
X015680Y006454D01*
X015678Y006356D02*
X015680Y006356D01*
X015200Y006150D02*
X014600Y005550D01*
X014600Y001250D01*
X015200Y000650D01*
X015720Y000450D02*
X015759Y000355D01*
X015815Y000300D01*
X015720Y000300D01*
X015720Y000450D01*
X015720Y000446D02*
X015722Y000446D01*
X015720Y000347D02*
X015768Y000347D01*
X015931Y001102D02*
X015900Y001133D01*
X015900Y001215D01*
X015905Y001209D01*
X016048Y001150D01*
X015931Y001102D01*
X015900Y001135D02*
X016012Y001135D01*
X016352Y001150D02*
X016495Y001091D01*
X016500Y001085D01*
X016500Y001215D01*
X016495Y001209D01*
X016352Y001150D01*
X016388Y001135D02*
X016500Y001135D01*
X016900Y001135D02*
X017012Y001135D01*
X017048Y001150D02*
X016931Y001102D01*
X016900Y001133D01*
X016900Y001215D01*
X016905Y001209D01*
X017048Y001150D01*
X017352Y001150D02*
X017495Y001209D01*
X017500Y001215D01*
X017500Y001085D01*
X017495Y001091D01*
X017352Y001150D01*
X017388Y001135D02*
X017500Y001135D01*
X017900Y001135D02*
X018012Y001135D01*
X018048Y001150D02*
X017931Y001102D01*
X017900Y001133D01*
X017900Y001215D01*
X017905Y001209D01*
X018048Y001150D01*
X018352Y001150D02*
X018495Y001209D01*
X018500Y001215D01*
X018500Y001085D01*
X018495Y001091D01*
X018352Y001150D01*
X018388Y001135D02*
X018500Y001135D01*
X018900Y001135D02*
X019012Y001135D01*
X019048Y001150D02*
X018931Y001102D01*
X018900Y001133D01*
X018900Y001215D01*
X018905Y001209D01*
X019048Y001150D01*
X019352Y001150D02*
X019495Y001209D01*
X019500Y001215D01*
X019500Y001085D01*
X019495Y001091D01*
X019352Y001150D01*
X019388Y001135D02*
X019500Y001135D01*
X019700Y001150D02*
X019700Y005650D01*
X020200Y006150D01*
X020700Y006302D02*
X020641Y006445D01*
X020495Y006591D01*
X020472Y006600D01*
X020928Y006600D01*
X020905Y006591D01*
X020759Y006445D01*
X020700Y006302D01*
X020678Y006356D02*
X020722Y006356D01*
X020769Y006454D02*
X020631Y006454D01*
X020533Y006553D02*
X020867Y006553D01*
X021472Y006600D02*
X021928Y006600D01*
X021905Y006591D01*
X021759Y006445D01*
X021700Y006302D01*
X021641Y006445D01*
X021495Y006591D01*
X021472Y006600D01*
X021533Y006553D02*
X021867Y006553D01*
X021769Y006454D02*
X021631Y006454D01*
X021678Y006356D02*
X021722Y006356D01*
X022200Y006150D02*
X021700Y005650D01*
X021700Y001150D01*
X022200Y000650D01*
X021719Y000848D02*
X021700Y000802D01*
X021654Y000913D01*
X021719Y000848D01*
X021716Y000840D02*
X021684Y000840D01*
X021500Y001085D02*
X021495Y001091D01*
X021352Y001150D01*
X021495Y001209D01*
X021500Y001215D01*
X021500Y001085D01*
X021500Y001135D02*
X021388Y001135D01*
X021048Y001150D02*
X020937Y001196D01*
X021002Y001131D01*
X021048Y001150D01*
X021012Y001135D02*
X020998Y001135D01*
X020700Y001150D02*
X020700Y005650D01*
X021200Y006150D01*
X020719Y005952D02*
X020654Y005887D01*
X020700Y005998D01*
X020719Y005952D01*
X020715Y005962D02*
X020685Y005962D01*
X020500Y005715D02*
X020500Y002050D01*
X020462Y002078D01*
X020392Y002113D01*
X020317Y002138D01*
X020250Y002148D01*
X020250Y001700D01*
X020150Y001700D01*
X020150Y002148D01*
X020083Y002138D01*
X020008Y002113D01*
X019938Y002078D01*
X019900Y002050D01*
X019900Y005567D01*
X020002Y005669D01*
X020097Y005630D01*
X020303Y005630D01*
X020495Y005709D01*
X020500Y005715D01*
X020500Y005666D02*
X020390Y005666D01*
X020500Y005568D02*
X019900Y005568D01*
X019900Y005469D02*
X020500Y005469D01*
X020500Y005371D02*
X019900Y005371D01*
X019900Y005272D02*
X020500Y005272D01*
X020500Y005174D02*
X019900Y005174D01*
X019900Y005075D02*
X020500Y005075D01*
X020500Y004977D02*
X019900Y004977D01*
X019900Y004878D02*
X020500Y004878D01*
X020500Y004780D02*
X019900Y004780D01*
X019900Y004681D02*
X020500Y004681D01*
X020500Y004583D02*
X019900Y004583D01*
X019900Y004484D02*
X020500Y004484D01*
X020500Y004386D02*
X019900Y004386D01*
X019900Y004287D02*
X020500Y004287D01*
X020500Y004189D02*
X019900Y004189D01*
X019900Y004090D02*
X020500Y004090D01*
X020500Y003992D02*
X019900Y003992D01*
X019900Y003893D02*
X020500Y003893D01*
X020500Y003795D02*
X019900Y003795D01*
X019900Y003696D02*
X020500Y003696D01*
X020500Y003598D02*
X019900Y003598D01*
X019900Y003499D02*
X020500Y003499D01*
X020500Y003401D02*
X019900Y003401D01*
X019900Y003302D02*
X020500Y003302D01*
X020500Y003204D02*
X019900Y003204D01*
X019900Y003105D02*
X020500Y003105D01*
X020500Y003007D02*
X019900Y003007D01*
X019900Y002908D02*
X020500Y002908D01*
X020500Y002810D02*
X019900Y002810D01*
X019900Y002711D02*
X020500Y002711D01*
X020500Y002613D02*
X019900Y002613D01*
X019900Y002514D02*
X020500Y002514D01*
X020500Y002416D02*
X019900Y002416D01*
X019900Y002317D02*
X020500Y002317D01*
X020500Y002219D02*
X019900Y002219D01*
X019900Y002120D02*
X020028Y002120D01*
X020150Y002120D02*
X020250Y002120D01*
X020250Y002022D02*
X020150Y002022D01*
X020372Y002120D02*
X020500Y002120D01*
X020900Y002120D02*
X020976Y002120D01*
X021000Y002130D02*
X020905Y002091D01*
X020900Y002085D01*
X020900Y004938D01*
X020929Y004869D01*
X021000Y004797D01*
X021000Y002130D01*
X021000Y002219D02*
X020900Y002219D01*
X020900Y002317D02*
X021000Y002317D01*
X021000Y002416D02*
X020900Y002416D01*
X020900Y002514D02*
X021000Y002514D01*
X021000Y002613D02*
X020900Y002613D01*
X020900Y002711D02*
X021000Y002711D01*
X021000Y002810D02*
X020900Y002810D01*
X020900Y002908D02*
X021000Y002908D01*
X021000Y003007D02*
X020900Y003007D01*
X020900Y003105D02*
X021000Y003105D01*
X021000Y003204D02*
X020900Y003204D01*
X020900Y003302D02*
X021000Y003302D01*
X021000Y003401D02*
X020900Y003401D01*
X020900Y003499D02*
X021000Y003499D01*
X021000Y003598D02*
X020900Y003598D01*
X020900Y003696D02*
X021000Y003696D01*
X021000Y003795D02*
X020900Y003795D01*
X020900Y003893D02*
X021000Y003893D01*
X021000Y003992D02*
X020900Y003992D01*
X020900Y004090D02*
X021000Y004090D01*
X021000Y004189D02*
X020900Y004189D01*
X020900Y004287D02*
X021000Y004287D01*
X021000Y004386D02*
X020900Y004386D01*
X020900Y004484D02*
X021000Y004484D01*
X021000Y004583D02*
X020900Y004583D01*
X020900Y004681D02*
X021000Y004681D01*
X021000Y004780D02*
X020900Y004780D01*
X020900Y004878D02*
X020925Y004878D01*
X021400Y004797D02*
X021471Y004869D01*
X021500Y004938D01*
X021500Y002085D01*
X021495Y002091D01*
X021400Y002130D01*
X021400Y004797D01*
X021400Y004780D02*
X021500Y004780D01*
X021500Y004878D02*
X021475Y004878D01*
X021900Y004878D02*
X022000Y004878D01*
X022000Y004780D02*
X021900Y004780D01*
X021900Y004681D02*
X022000Y004681D01*
X022000Y004583D02*
X021900Y004583D01*
X021900Y004484D02*
X022000Y004484D01*
X022000Y004386D02*
X021900Y004386D01*
X021900Y004287D02*
X022000Y004287D01*
X022000Y004189D02*
X021900Y004189D01*
X021900Y004090D02*
X022000Y004090D01*
X022000Y003992D02*
X021900Y003992D01*
X021900Y003893D02*
X022000Y003893D01*
X022000Y003795D02*
X021900Y003795D01*
X021900Y003696D02*
X022000Y003696D01*
X022000Y003598D02*
X021900Y003598D01*
X021900Y003499D02*
X022000Y003499D01*
X022000Y003401D02*
X021900Y003401D01*
X021900Y003302D02*
X022000Y003302D01*
X022000Y003204D02*
X021900Y003204D01*
X021900Y003105D02*
X022000Y003105D01*
X022000Y003007D02*
X021900Y003007D01*
X021900Y002908D02*
X022000Y002908D01*
X022000Y002810D02*
X021900Y002810D01*
X021900Y002711D02*
X022000Y002711D01*
X022000Y002613D02*
X021900Y002613D01*
X021900Y002514D02*
X022000Y002514D01*
X022000Y002416D02*
X021900Y002416D01*
X021900Y002317D02*
X022000Y002317D01*
X022000Y002219D02*
X021900Y002219D01*
X021900Y002120D02*
X021976Y002120D01*
X022000Y002130D02*
X021905Y002091D01*
X021900Y002085D01*
X021900Y005238D01*
X021929Y005169D01*
X022000Y005097D01*
X022000Y002130D01*
X022400Y002130D02*
X022400Y005097D01*
X022471Y005169D01*
X022520Y005286D01*
X022520Y005414D01*
X022471Y005531D01*
X022381Y005621D01*
X022332Y005642D01*
X022495Y005709D01*
X022641Y005855D01*
X022713Y006030D01*
X022737Y005958D01*
X022772Y005888D01*
X022819Y005824D01*
X022874Y005769D01*
X022938Y005722D01*
X023008Y005687D01*
X023083Y005662D01*
X023150Y005652D01*
X023150Y006100D01*
X023250Y006100D01*
X023250Y005652D01*
X023317Y005662D01*
X023392Y005687D01*
X023462Y005722D01*
X023526Y005769D01*
X023581Y005824D01*
X023628Y005888D01*
X023650Y005932D01*
X023650Y000412D01*
X023538Y000300D01*
X022585Y000300D01*
X022641Y000355D01*
X022720Y000547D01*
X022720Y000753D01*
X022641Y000945D01*
X022495Y001091D01*
X022352Y001150D01*
X022495Y001209D01*
X022641Y001355D01*
X022720Y001547D01*
X022720Y001753D01*
X022641Y001945D01*
X022495Y002091D01*
X022400Y002130D01*
X022424Y002120D02*
X023650Y002120D01*
X023650Y002022D02*
X022564Y002022D01*
X022650Y001923D02*
X023650Y001923D01*
X023650Y001825D02*
X022691Y001825D01*
X022720Y001726D02*
X023650Y001726D01*
X023650Y001628D02*
X022720Y001628D01*
X022713Y001529D02*
X023650Y001529D01*
X023650Y001431D02*
X022672Y001431D01*
X022617Y001332D02*
X023650Y001332D01*
X023650Y001234D02*
X022519Y001234D01*
X022388Y001135D02*
X023650Y001135D01*
X023650Y001037D02*
X022549Y001037D01*
X022644Y000938D02*
X023650Y000938D01*
X023650Y000840D02*
X022684Y000840D01*
X022720Y000741D02*
X023650Y000741D01*
X023650Y000643D02*
X022720Y000643D01*
X022719Y000544D02*
X023650Y000544D01*
X023650Y000446D02*
X022678Y000446D01*
X022632Y000347D02*
X023585Y000347D01*
X021815Y000300D02*
X021585Y000300D01*
X021641Y000355D01*
X021700Y000498D01*
X021759Y000355D01*
X021815Y000300D01*
X021768Y000347D02*
X021632Y000347D01*
X021678Y000446D02*
X021722Y000446D01*
X021200Y000650D02*
X020700Y001150D01*
X020500Y001135D02*
X020388Y001135D01*
X020392Y001187D02*
X020462Y001222D01*
X020500Y001250D01*
X020500Y001085D01*
X020495Y001091D01*
X020320Y001163D01*
X020392Y001187D01*
X020477Y001234D02*
X020500Y001234D01*
X020080Y001163D02*
X020002Y001131D01*
X019900Y001233D01*
X019900Y001250D01*
X019938Y001222D01*
X020008Y001187D01*
X020080Y001163D01*
X020012Y001135D02*
X019998Y001135D01*
X019923Y001234D02*
X019900Y001234D01*
X019700Y001150D02*
X020200Y000650D01*
X019719Y000848D02*
X019700Y000802D01*
X019654Y000913D01*
X019719Y000848D01*
X019716Y000840D02*
X019684Y000840D01*
X020654Y000913D02*
X020700Y000802D01*
X020719Y000848D01*
X020654Y000913D01*
X020684Y000840D02*
X020716Y000840D01*
X020700Y000498D02*
X020759Y000355D01*
X020815Y000300D01*
X020585Y000300D01*
X020641Y000355D01*
X020700Y000498D01*
X020678Y000446D02*
X020722Y000446D01*
X020768Y000347D02*
X020632Y000347D01*
X021937Y001196D02*
X022002Y001131D01*
X022048Y001150D01*
X021937Y001196D01*
X021998Y001135D02*
X022012Y001135D01*
X022200Y001650D02*
X022200Y005350D01*
X021903Y005469D02*
X021900Y005469D01*
X021900Y005462D02*
X021900Y005567D01*
X022002Y005669D01*
X022068Y005642D01*
X022019Y005621D01*
X021929Y005531D01*
X021900Y005462D01*
X021900Y005568D02*
X021965Y005568D01*
X021999Y005666D02*
X022010Y005666D01*
X022390Y005666D02*
X023072Y005666D01*
X023150Y005666D02*
X023250Y005666D01*
X023328Y005666D02*
X023650Y005666D01*
X023650Y005765D02*
X023520Y005765D01*
X023610Y005863D02*
X023650Y005863D01*
X023250Y005863D02*
X023150Y005863D01*
X023150Y005765D02*
X023250Y005765D01*
X022880Y005765D02*
X022550Y005765D01*
X022644Y005863D02*
X022790Y005863D01*
X022736Y005962D02*
X022685Y005962D01*
X023150Y005962D02*
X023250Y005962D01*
X023250Y006060D02*
X023150Y006060D01*
X022713Y006270D02*
X022641Y006445D01*
X022495Y006591D01*
X022472Y006600D01*
X022982Y006600D01*
X022938Y006578D01*
X022874Y006531D01*
X022819Y006476D01*
X022772Y006412D01*
X022737Y006342D01*
X022713Y006270D01*
X022744Y006356D02*
X022678Y006356D01*
X022631Y006454D02*
X022803Y006454D01*
X022903Y006553D02*
X022533Y006553D01*
X023418Y006600D02*
X023538Y006600D01*
X023650Y006488D01*
X023650Y006368D01*
X023628Y006412D01*
X023581Y006476D01*
X023526Y006531D01*
X023462Y006578D01*
X023418Y006600D01*
X023497Y006553D02*
X023585Y006553D01*
X023597Y006454D02*
X023650Y006454D01*
X021719Y005952D02*
X021654Y005887D01*
X021700Y005998D01*
X021719Y005952D01*
X021715Y005962D02*
X021685Y005962D01*
X021500Y005715D02*
X021500Y005162D01*
X021471Y005231D01*
X021381Y005321D01*
X021264Y005370D01*
X021136Y005370D01*
X021019Y005321D01*
X020929Y005231D01*
X020900Y005162D01*
X020900Y005567D01*
X021002Y005669D01*
X021097Y005630D01*
X021303Y005630D01*
X021495Y005709D01*
X021500Y005715D01*
X021500Y005666D02*
X021390Y005666D01*
X021500Y005568D02*
X020900Y005568D01*
X020900Y005469D02*
X021500Y005469D01*
X021500Y005371D02*
X020900Y005371D01*
X020900Y005272D02*
X020969Y005272D01*
X020905Y005174D02*
X020900Y005174D01*
X021200Y005050D02*
X021200Y001650D01*
X020250Y001726D02*
X020150Y001726D01*
X020150Y001825D02*
X020250Y001825D01*
X020250Y001923D02*
X020150Y001923D01*
X019500Y002085D02*
X019495Y002091D01*
X019400Y002130D01*
X019400Y004497D01*
X019471Y004569D01*
X019500Y004638D01*
X019500Y002085D01*
X019500Y002120D02*
X019424Y002120D01*
X019400Y002219D02*
X019500Y002219D01*
X019500Y002317D02*
X019400Y002317D01*
X019400Y002416D02*
X019500Y002416D01*
X019500Y002514D02*
X019400Y002514D01*
X019400Y002613D02*
X019500Y002613D01*
X019500Y002711D02*
X019400Y002711D01*
X019400Y002810D02*
X019500Y002810D01*
X019500Y002908D02*
X019400Y002908D01*
X019400Y003007D02*
X019500Y003007D01*
X019500Y003105D02*
X019400Y003105D01*
X019400Y003204D02*
X019500Y003204D01*
X019500Y003302D02*
X019400Y003302D01*
X019400Y003401D02*
X019500Y003401D01*
X019500Y003499D02*
X019400Y003499D01*
X019400Y003598D02*
X019500Y003598D01*
X019500Y003696D02*
X019400Y003696D01*
X019400Y003795D02*
X019500Y003795D01*
X019500Y003893D02*
X019400Y003893D01*
X019400Y003992D02*
X019500Y003992D01*
X019500Y004090D02*
X019400Y004090D01*
X019400Y004189D02*
X019500Y004189D01*
X019500Y004287D02*
X019400Y004287D01*
X019400Y004386D02*
X019500Y004386D01*
X019500Y004484D02*
X019400Y004484D01*
X019477Y004583D02*
X019500Y004583D01*
X019200Y004750D02*
X019200Y001650D01*
X018200Y001650D02*
X018200Y004450D01*
X017909Y004583D02*
X017900Y004583D01*
X018422Y004681D02*
X018500Y004681D01*
X018491Y004583D02*
X018500Y004583D01*
X018900Y004583D02*
X018923Y004583D01*
X018929Y004569D02*
X018900Y004638D01*
X018900Y002085D01*
X018905Y002091D01*
X019000Y002130D01*
X019000Y004497D01*
X018929Y004569D01*
X018900Y004484D02*
X019000Y004484D01*
X019000Y004386D02*
X018900Y004386D01*
X018900Y004287D02*
X019000Y004287D01*
X019000Y004189D02*
X018900Y004189D01*
X018900Y004090D02*
X019000Y004090D01*
X019000Y003992D02*
X018900Y003992D01*
X018900Y003893D02*
X019000Y003893D01*
X019000Y003795D02*
X018900Y003795D01*
X018500Y003795D02*
X018400Y003795D01*
X018400Y003893D02*
X018500Y003893D01*
X018500Y003992D02*
X018400Y003992D01*
X018000Y003992D02*
X017900Y003992D01*
X017900Y003893D02*
X018000Y003893D01*
X018000Y003795D02*
X017900Y003795D01*
X017500Y003795D02*
X016900Y003795D01*
X016900Y003893D02*
X017500Y003893D01*
X017500Y003992D02*
X016900Y003992D01*
X016900Y004090D02*
X017500Y004090D01*
X017500Y004189D02*
X016900Y004189D01*
X016500Y004038D02*
X016500Y002085D01*
X016495Y002091D01*
X016400Y002130D01*
X016400Y003897D01*
X016471Y003969D01*
X016500Y004038D01*
X016500Y003992D02*
X016481Y003992D01*
X016500Y003893D02*
X016400Y003893D01*
X016400Y003795D02*
X016500Y003795D01*
X016500Y003696D02*
X016400Y003696D01*
X016400Y003598D02*
X016500Y003598D01*
X016500Y003499D02*
X016400Y003499D01*
X016400Y003401D02*
X016500Y003401D01*
X016500Y003302D02*
X016400Y003302D01*
X016400Y003204D02*
X016500Y003204D01*
X016500Y003105D02*
X016400Y003105D01*
X016400Y003007D02*
X016500Y003007D01*
X016500Y002908D02*
X016400Y002908D01*
X016400Y002810D02*
X016500Y002810D01*
X016500Y002711D02*
X016400Y002711D01*
X016400Y002613D02*
X016500Y002613D01*
X016500Y002514D02*
X016400Y002514D01*
X016400Y002416D02*
X016500Y002416D01*
X016500Y002317D02*
X016400Y002317D01*
X016400Y002219D02*
X016500Y002219D01*
X016500Y002120D02*
X016424Y002120D01*
X016000Y002130D02*
X015905Y002091D01*
X015900Y002085D01*
X015900Y004038D01*
X015929Y003969D01*
X016000Y003897D01*
X016000Y002130D01*
X015976Y002120D02*
X015900Y002120D01*
X015900Y002219D02*
X016000Y002219D01*
X016000Y002317D02*
X015900Y002317D01*
X015900Y002416D02*
X016000Y002416D01*
X016000Y002514D02*
X015900Y002514D01*
X015900Y002613D02*
X016000Y002613D01*
X016000Y002711D02*
X015900Y002711D01*
X015900Y002810D02*
X016000Y002810D01*
X016000Y002908D02*
X015900Y002908D01*
X015900Y003007D02*
X016000Y003007D01*
X016000Y003105D02*
X015900Y003105D01*
X015900Y003204D02*
X016000Y003204D01*
X016000Y003302D02*
X015900Y003302D01*
X015900Y003401D02*
X016000Y003401D01*
X016000Y003499D02*
X015900Y003499D01*
X015900Y003598D02*
X016000Y003598D01*
X016000Y003696D02*
X015900Y003696D01*
X015900Y003795D02*
X016000Y003795D01*
X016000Y003893D02*
X015900Y003893D01*
X015900Y003992D02*
X015919Y003992D01*
X015500Y003992D02*
X015488Y003992D01*
X015500Y004090D02*
X015413Y004090D01*
X015500Y004189D02*
X014800Y004189D01*
X014800Y004090D02*
X014987Y004090D01*
X014912Y003992D02*
X014800Y003992D01*
X014800Y003893D02*
X014880Y003893D01*
X014880Y003795D02*
X014800Y003795D01*
X014400Y003795D02*
X010520Y003795D01*
X010520Y003893D02*
X014400Y003893D01*
X014400Y003992D02*
X010510Y003992D01*
X010510Y004090D02*
X014400Y004090D01*
X014400Y004189D02*
X010510Y004189D01*
X010510Y004287D02*
X014400Y004287D01*
X014400Y004386D02*
X010479Y004386D01*
X010404Y004484D02*
X014400Y004484D01*
X014800Y004484D02*
X015500Y004484D01*
X015500Y004386D02*
X014800Y004386D01*
X014800Y004287D02*
X015500Y004287D01*
X015500Y004583D02*
X014800Y004583D01*
X014800Y004681D02*
X015500Y004681D01*
X015500Y004780D02*
X014800Y004780D01*
X014800Y004878D02*
X015500Y004878D01*
X015500Y004977D02*
X014800Y004977D01*
X014800Y005075D02*
X015500Y005075D01*
X015500Y005174D02*
X014800Y005174D01*
X014400Y005174D02*
X002815Y005174D01*
X002913Y005075D02*
X014400Y005075D01*
X014400Y004977D02*
X003012Y004977D01*
X002716Y005272D02*
X014400Y005272D01*
X014400Y005371D02*
X002618Y005371D01*
X002519Y005469D02*
X014400Y005469D01*
X014400Y005568D02*
X002510Y005568D01*
X002510Y005666D02*
X003072Y005666D01*
X003150Y005666D02*
X003250Y005666D01*
X003328Y005666D02*
X004010Y005666D01*
X003850Y005765D02*
X003520Y005765D01*
X003610Y005863D02*
X003756Y005863D01*
X003715Y005962D02*
X003664Y005962D01*
X003250Y005962D02*
X003150Y005962D01*
X003150Y006060D02*
X003250Y006060D01*
X002736Y005962D02*
X002685Y005962D01*
X002644Y005863D02*
X002790Y005863D01*
X002880Y005765D02*
X002550Y005765D01*
X003150Y005765D02*
X003250Y005765D01*
X003250Y005863D02*
X003150Y005863D01*
X004390Y005666D02*
X005010Y005666D01*
X004850Y005765D02*
X004550Y005765D01*
X004644Y005863D02*
X004756Y005863D01*
X004715Y005962D02*
X004685Y005962D01*
X005390Y005666D02*
X006010Y005666D01*
X005850Y005765D02*
X005550Y005765D01*
X005644Y005863D02*
X005756Y005863D01*
X005715Y005962D02*
X005685Y005962D01*
X006390Y005666D02*
X007010Y005666D01*
X006850Y005765D02*
X006550Y005765D01*
X006644Y005863D02*
X006756Y005863D01*
X006715Y005962D02*
X006685Y005962D01*
X007390Y005666D02*
X007732Y005666D01*
X007680Y005765D02*
X007550Y005765D01*
X007644Y005863D02*
X007680Y005863D01*
X008668Y005666D02*
X009010Y005666D01*
X008850Y005765D02*
X008720Y005765D01*
X008720Y005863D02*
X008756Y005863D01*
X009390Y005666D02*
X010010Y005666D01*
X009850Y005765D02*
X009550Y005765D01*
X009644Y005863D02*
X009756Y005863D01*
X009715Y005962D02*
X009685Y005962D01*
X010390Y005666D02*
X011010Y005666D01*
X010850Y005765D02*
X010550Y005765D01*
X010644Y005863D02*
X010756Y005863D01*
X010715Y005962D02*
X010685Y005962D01*
X011390Y005666D02*
X012010Y005666D01*
X011850Y005765D02*
X011550Y005765D01*
X011644Y005863D02*
X011756Y005863D01*
X011715Y005962D02*
X011685Y005962D01*
X012390Y005666D02*
X013010Y005666D01*
X012850Y005765D02*
X012550Y005765D01*
X012644Y005863D02*
X012756Y005863D01*
X012715Y005962D02*
X012685Y005962D01*
X013390Y005666D02*
X014010Y005666D01*
X013850Y005765D02*
X013550Y005765D01*
X013644Y005863D02*
X013756Y005863D01*
X013715Y005962D02*
X013685Y005962D01*
X014390Y005666D02*
X014433Y005666D01*
X014900Y005568D02*
X015500Y005568D01*
X015500Y005469D02*
X014802Y005469D01*
X014800Y005371D02*
X015500Y005371D01*
X015500Y005272D02*
X014800Y005272D01*
X015900Y005272D02*
X016500Y005272D01*
X016500Y005371D02*
X015900Y005371D01*
X015900Y005469D02*
X016500Y005469D01*
X016500Y005568D02*
X015900Y005568D01*
X015500Y005666D02*
X015390Y005666D01*
X015010Y005666D02*
X014999Y005666D01*
X014719Y005952D02*
X014654Y005887D01*
X014700Y005998D01*
X014719Y005952D01*
X014715Y005962D02*
X014685Y005962D01*
X015654Y005887D02*
X015680Y005950D01*
X015680Y005913D01*
X015654Y005887D01*
X014700Y006302D02*
X014641Y006445D01*
X014495Y006591D01*
X014472Y006600D01*
X014928Y006600D01*
X014905Y006591D01*
X014759Y006445D01*
X014700Y006302D01*
X014678Y006356D02*
X014722Y006356D01*
X014769Y006454D02*
X014631Y006454D01*
X014533Y006553D02*
X014867Y006553D01*
X013928Y006600D02*
X013905Y006591D01*
X013759Y006445D01*
X013700Y006302D01*
X013641Y006445D01*
X013495Y006591D01*
X013472Y006600D01*
X013928Y006600D01*
X013867Y006553D02*
X013533Y006553D01*
X013631Y006454D02*
X013769Y006454D01*
X013722Y006356D02*
X013678Y006356D01*
X012928Y006600D02*
X012905Y006591D01*
X012759Y006445D01*
X012700Y006302D01*
X012641Y006445D01*
X012495Y006591D01*
X012472Y006600D01*
X012928Y006600D01*
X012867Y006553D02*
X012533Y006553D01*
X012631Y006454D02*
X012769Y006454D01*
X012722Y006356D02*
X012678Y006356D01*
X011928Y006600D02*
X011905Y006591D01*
X011759Y006445D01*
X011700Y006302D01*
X011641Y006445D01*
X011495Y006591D01*
X011472Y006600D01*
X011928Y006600D01*
X011867Y006553D02*
X011533Y006553D01*
X011631Y006454D02*
X011769Y006454D01*
X011722Y006356D02*
X011678Y006356D01*
X010928Y006600D02*
X010905Y006591D01*
X010759Y006445D01*
X010700Y006302D01*
X010641Y006445D01*
X010495Y006591D01*
X010472Y006600D01*
X010928Y006600D01*
X010867Y006553D02*
X010533Y006553D01*
X010631Y006454D02*
X010769Y006454D01*
X010722Y006356D02*
X010678Y006356D01*
X009928Y006600D02*
X009905Y006591D01*
X009759Y006445D01*
X009700Y006302D01*
X009641Y006445D01*
X009495Y006591D01*
X009472Y006600D01*
X009928Y006600D01*
X009867Y006553D02*
X009533Y006553D01*
X009631Y006454D02*
X009769Y006454D01*
X009722Y006356D02*
X009678Y006356D01*
X008928Y006600D02*
X008905Y006591D01*
X008759Y006445D01*
X008720Y006350D01*
X008720Y006582D01*
X008702Y006600D01*
X008928Y006600D01*
X008867Y006553D02*
X008720Y006553D01*
X008720Y006454D02*
X008769Y006454D01*
X008722Y006356D02*
X008720Y006356D01*
X007680Y006356D02*
X007678Y006356D01*
X007680Y006350D02*
X007641Y006445D01*
X007495Y006591D01*
X007472Y006600D01*
X007698Y006600D01*
X007680Y006582D01*
X007680Y006350D01*
X007680Y006454D02*
X007631Y006454D01*
X007680Y006553D02*
X007533Y006553D01*
X006928Y006600D02*
X006905Y006591D01*
X006759Y006445D01*
X006700Y006302D01*
X006641Y006445D01*
X006495Y006591D01*
X006472Y006600D01*
X006928Y006600D01*
X006867Y006553D02*
X006533Y006553D01*
X006631Y006454D02*
X006769Y006454D01*
X006722Y006356D02*
X006678Y006356D01*
X005928Y006600D02*
X005905Y006591D01*
X005759Y006445D01*
X005700Y006302D01*
X005641Y006445D01*
X005495Y006591D01*
X005472Y006600D01*
X005928Y006600D01*
X005867Y006553D02*
X005533Y006553D01*
X005631Y006454D02*
X005769Y006454D01*
X005722Y006356D02*
X005678Y006356D01*
X004928Y006600D02*
X004905Y006591D01*
X004759Y006445D01*
X004700Y006302D01*
X004641Y006445D01*
X004495Y006591D01*
X004472Y006600D01*
X004928Y006600D01*
X004867Y006553D02*
X004533Y006553D01*
X004631Y006454D02*
X004769Y006454D01*
X004722Y006356D02*
X004678Y006356D01*
X003928Y006600D02*
X003905Y006591D01*
X003759Y006445D01*
X003687Y006270D01*
X003663Y006342D01*
X003628Y006412D01*
X003581Y006476D01*
X003526Y006531D01*
X003462Y006578D01*
X003418Y006600D01*
X003928Y006600D01*
X003867Y006553D02*
X003497Y006553D01*
X003597Y006454D02*
X003769Y006454D01*
X003722Y006356D02*
X003656Y006356D01*
X002982Y006600D02*
X002938Y006578D01*
X002874Y006531D01*
X002819Y006476D01*
X002772Y006412D01*
X002737Y006342D01*
X002713Y006270D01*
X002641Y006445D01*
X002495Y006591D01*
X002472Y006600D01*
X002982Y006600D01*
X002903Y006553D02*
X002533Y006553D01*
X002631Y006454D02*
X002803Y006454D01*
X002744Y006356D02*
X002678Y006356D01*
X010010Y004878D02*
X014400Y004878D01*
X014400Y004780D02*
X010109Y004780D01*
X010207Y004681D02*
X014400Y004681D01*
X014400Y004583D02*
X010306Y004583D01*
X010510Y003696D02*
X014400Y003696D01*
X014400Y003598D02*
X010510Y003598D01*
X010510Y003499D02*
X014400Y003499D01*
X014400Y003401D02*
X010510Y003401D01*
X014800Y003401D02*
X015000Y003401D01*
X015000Y003499D02*
X014800Y003499D01*
X014800Y003598D02*
X015000Y003598D01*
X014917Y003696D02*
X014800Y003696D01*
X016900Y003696D02*
X017500Y003696D01*
X017500Y003598D02*
X016900Y003598D01*
X016900Y003499D02*
X017500Y003499D01*
X017500Y003401D02*
X016900Y003401D01*
X016900Y003302D02*
X017500Y003302D01*
X017500Y003204D02*
X016900Y003204D01*
X016900Y003105D02*
X017500Y003105D01*
X017900Y003105D02*
X018000Y003105D01*
X018000Y003204D02*
X017900Y003204D01*
X017900Y003302D02*
X018000Y003302D01*
X018400Y003302D02*
X018500Y003302D01*
X018500Y003204D02*
X018400Y003204D01*
X018400Y003105D02*
X018500Y003105D01*
X018900Y003105D02*
X019000Y003105D01*
X019000Y003204D02*
X018900Y003204D01*
X018900Y003302D02*
X019000Y003302D01*
X019000Y003401D02*
X018900Y003401D01*
X018900Y003499D02*
X019000Y003499D01*
X019000Y003598D02*
X018900Y003598D01*
X018900Y003696D02*
X019000Y003696D01*
X018500Y003696D02*
X018400Y003696D01*
X018400Y003598D02*
X018500Y003598D01*
X018500Y003499D02*
X018400Y003499D01*
X018400Y003401D02*
X018500Y003401D01*
X018000Y003401D02*
X017900Y003401D01*
X017900Y003499D02*
X018000Y003499D01*
X018000Y003598D02*
X017900Y003598D01*
X017900Y003696D02*
X018000Y003696D01*
X018000Y004090D02*
X017900Y004090D01*
X017900Y004189D02*
X018000Y004189D01*
X018000Y004197D02*
X018000Y002130D01*
X017905Y002091D01*
X017900Y002085D01*
X017900Y004338D01*
X017929Y004269D01*
X018000Y004197D01*
X018400Y004197D02*
X018471Y004269D01*
X018500Y004338D01*
X018500Y002085D01*
X018495Y002091D01*
X018400Y002130D01*
X018400Y004197D01*
X018400Y004189D02*
X018500Y004189D01*
X018500Y004090D02*
X018400Y004090D01*
X018479Y004287D02*
X018500Y004287D01*
X017921Y004287D02*
X017900Y004287D01*
X016500Y004583D02*
X015900Y004583D01*
X015900Y004681D02*
X016500Y004681D01*
X016500Y004780D02*
X015900Y004780D01*
X015900Y004878D02*
X016500Y004878D01*
X016500Y004977D02*
X015900Y004977D01*
X015900Y005075D02*
X016500Y005075D01*
X016500Y005174D02*
X015900Y005174D01*
X017900Y005174D02*
X018500Y005174D01*
X018500Y005075D02*
X017900Y005075D01*
X017900Y004977D02*
X018500Y004977D01*
X018900Y004977D02*
X018974Y004977D01*
X019019Y005021D02*
X018929Y004931D01*
X018900Y004862D01*
X018900Y005567D01*
X019002Y005669D01*
X019097Y005630D01*
X019303Y005630D01*
X019495Y005709D01*
X019500Y005715D01*
X019500Y004862D01*
X019471Y004931D01*
X019381Y005021D01*
X019264Y005070D01*
X019136Y005070D01*
X019019Y005021D01*
X018900Y005075D02*
X019500Y005075D01*
X019500Y004977D02*
X019426Y004977D01*
X019493Y004878D02*
X019500Y004878D01*
X018907Y004878D02*
X018900Y004878D01*
X018900Y005174D02*
X019500Y005174D01*
X019500Y005272D02*
X018900Y005272D01*
X018900Y005371D02*
X019500Y005371D01*
X019500Y005469D02*
X018900Y005469D01*
X018900Y005568D02*
X019500Y005568D01*
X019500Y005666D02*
X019390Y005666D01*
X019010Y005666D02*
X018999Y005666D01*
X018500Y005666D02*
X018390Y005666D01*
X018010Y005666D02*
X017999Y005666D01*
X017900Y005568D02*
X018500Y005568D01*
X018500Y005469D02*
X017900Y005469D01*
X017900Y005371D02*
X018500Y005371D01*
X018500Y005272D02*
X017900Y005272D01*
X018654Y005887D02*
X018700Y005998D01*
X018719Y005952D01*
X018654Y005887D01*
X018685Y005962D02*
X018715Y005962D01*
X019654Y005887D02*
X019700Y005998D01*
X019719Y005952D01*
X019654Y005887D01*
X019685Y005962D02*
X019715Y005962D01*
X019999Y005666D02*
X020010Y005666D01*
X020999Y005666D02*
X021010Y005666D01*
X021431Y005272D02*
X021500Y005272D01*
X021495Y005174D02*
X021500Y005174D01*
X021900Y005174D02*
X021927Y005174D01*
X021900Y005075D02*
X022000Y005075D01*
X022000Y004977D02*
X021900Y004977D01*
X022400Y004977D02*
X023650Y004977D01*
X023650Y005075D02*
X022400Y005075D01*
X022473Y005174D02*
X023650Y005174D01*
X023650Y005272D02*
X022514Y005272D01*
X022520Y005371D02*
X023650Y005371D01*
X023650Y005469D02*
X022497Y005469D01*
X022435Y005568D02*
X023650Y005568D01*
X023650Y004878D02*
X022400Y004878D01*
X022400Y004780D02*
X023650Y004780D01*
X023650Y004681D02*
X022400Y004681D01*
X022400Y004583D02*
X023650Y004583D01*
X023650Y004484D02*
X022400Y004484D01*
X022400Y004386D02*
X023650Y004386D01*
X023650Y004287D02*
X022400Y004287D01*
X022400Y004189D02*
X023650Y004189D01*
X023650Y004090D02*
X022400Y004090D01*
X022400Y003992D02*
X023650Y003992D01*
X023650Y003893D02*
X022400Y003893D01*
X022400Y003795D02*
X023650Y003795D01*
X023650Y003696D02*
X022400Y003696D01*
X022400Y003598D02*
X023650Y003598D01*
X023650Y003499D02*
X022400Y003499D01*
X022400Y003401D02*
X023650Y003401D01*
X023650Y003302D02*
X022400Y003302D01*
X022400Y003204D02*
X023650Y003204D01*
X023650Y003105D02*
X022400Y003105D01*
X022400Y003007D02*
X023650Y003007D01*
X023650Y002908D02*
X022400Y002908D01*
X022400Y002810D02*
X023650Y002810D01*
X023650Y002711D02*
X022400Y002711D01*
X022400Y002613D02*
X023650Y002613D01*
X023650Y002514D02*
X022400Y002514D01*
X022400Y002416D02*
X023650Y002416D01*
X023650Y002317D02*
X022400Y002317D01*
X022400Y002219D02*
X023650Y002219D01*
X021500Y002219D02*
X021400Y002219D01*
X021400Y002317D02*
X021500Y002317D01*
X021500Y002416D02*
X021400Y002416D01*
X021400Y002514D02*
X021500Y002514D01*
X021500Y002613D02*
X021400Y002613D01*
X021400Y002711D02*
X021500Y002711D01*
X021500Y002810D02*
X021400Y002810D01*
X021400Y002908D02*
X021500Y002908D01*
X021500Y003007D02*
X021400Y003007D01*
X021400Y003105D02*
X021500Y003105D01*
X021500Y003204D02*
X021400Y003204D01*
X021400Y003302D02*
X021500Y003302D01*
X021500Y003401D02*
X021400Y003401D01*
X021400Y003499D02*
X021500Y003499D01*
X021500Y003598D02*
X021400Y003598D01*
X021400Y003696D02*
X021500Y003696D01*
X021500Y003795D02*
X021400Y003795D01*
X021400Y003893D02*
X021500Y003893D01*
X021500Y003992D02*
X021400Y003992D01*
X021400Y004090D02*
X021500Y004090D01*
X021500Y004189D02*
X021400Y004189D01*
X021400Y004287D02*
X021500Y004287D01*
X021500Y004386D02*
X021400Y004386D01*
X021400Y004484D02*
X021500Y004484D01*
X021500Y004583D02*
X021400Y004583D01*
X021400Y004681D02*
X021500Y004681D01*
X019700Y006302D02*
X019641Y006445D01*
X019495Y006591D01*
X019472Y006600D01*
X019928Y006600D01*
X019905Y006591D01*
X019759Y006445D01*
X019700Y006302D01*
X019678Y006356D02*
X019722Y006356D01*
X019769Y006454D02*
X019631Y006454D01*
X019533Y006553D02*
X019867Y006553D01*
X019000Y003007D02*
X018900Y003007D01*
X018900Y002908D02*
X019000Y002908D01*
X019000Y002810D02*
X018900Y002810D01*
X018900Y002711D02*
X019000Y002711D01*
X019000Y002613D02*
X018900Y002613D01*
X018900Y002514D02*
X019000Y002514D01*
X019000Y002416D02*
X018900Y002416D01*
X018500Y002416D02*
X018400Y002416D01*
X018400Y002514D02*
X018500Y002514D01*
X018500Y002613D02*
X018400Y002613D01*
X018000Y002613D02*
X017900Y002613D01*
X017900Y002514D02*
X018000Y002514D01*
X018000Y002416D02*
X017900Y002416D01*
X017500Y002416D02*
X016900Y002416D01*
X016900Y002514D02*
X017500Y002514D01*
X017500Y002613D02*
X016900Y002613D01*
X016900Y002711D02*
X017500Y002711D01*
X017500Y002810D02*
X016900Y002810D01*
X016900Y002908D02*
X017500Y002908D01*
X017500Y003007D02*
X016900Y003007D01*
X017900Y003007D02*
X018000Y003007D01*
X018000Y002908D02*
X017900Y002908D01*
X017900Y002810D02*
X018000Y002810D01*
X018000Y002711D02*
X017900Y002711D01*
X018400Y002711D02*
X018500Y002711D01*
X018500Y002810D02*
X018400Y002810D01*
X018400Y002908D02*
X018500Y002908D01*
X018500Y003007D02*
X018400Y003007D01*
X018400Y002317D02*
X018500Y002317D01*
X018500Y002219D02*
X018400Y002219D01*
X018000Y002219D02*
X017900Y002219D01*
X017900Y002317D02*
X018000Y002317D01*
X017500Y002317D02*
X016900Y002317D01*
X016900Y002219D02*
X017500Y002219D01*
X017500Y002120D02*
X017424Y002120D01*
X016976Y002120D02*
X016900Y002120D01*
X017900Y002120D02*
X017976Y002120D01*
X018424Y002120D02*
X018500Y002120D01*
X018900Y002120D02*
X018976Y002120D01*
X019000Y002219D02*
X018900Y002219D01*
X018900Y002317D02*
X019000Y002317D01*
X021424Y002120D02*
X021500Y002120D01*
X015500Y002219D02*
X015400Y002219D01*
X015400Y002317D02*
X015500Y002317D01*
X009012Y001135D02*
X008388Y001135D01*
X008549Y001037D02*
X008851Y001037D01*
X008756Y000938D02*
X008644Y000938D01*
X008684Y000840D02*
X008716Y000840D01*
X008012Y001135D02*
X007388Y001135D01*
X007549Y001037D02*
X007851Y001037D01*
X007756Y000938D02*
X007644Y000938D01*
X007684Y000840D02*
X007716Y000840D01*
X007012Y001135D02*
X006667Y001135D01*
X006720Y001037D02*
X006851Y001037D01*
X006756Y000938D02*
X006720Y000938D01*
X005533Y002317D02*
X005058Y002317D01*
X005314Y002416D02*
X004045Y002416D01*
X004180Y002514D02*
X005215Y002514D01*
X005117Y002613D02*
X004277Y002613D01*
X004350Y002711D02*
X005035Y002711D01*
X004994Y002810D02*
X004407Y002810D01*
X004450Y002908D02*
X004953Y002908D01*
X004912Y003007D02*
X004481Y003007D01*
X004501Y003105D02*
X004894Y003105D01*
X004894Y003204D02*
X003582Y003204D01*
X003581Y003302D02*
X003481Y003302D01*
X003481Y003300D02*
X003481Y004230D01*
X003476Y004230D01*
X003367Y004218D01*
X003260Y004193D01*
X003156Y004157D01*
X003057Y004109D01*
X002964Y004051D01*
X002877Y003982D01*
X002800Y003904D01*
X002731Y003818D01*
X002672Y003725D01*
X002625Y003626D01*
X002588Y003522D01*
X002564Y003414D01*
X002551Y003305D01*
X002551Y003300D01*
X003481Y003300D01*
X003481Y003204D02*
X001850Y003204D01*
X001850Y003302D02*
X002551Y003302D01*
X002562Y003401D02*
X001850Y003401D01*
X001850Y003499D02*
X002583Y003499D01*
X002615Y003598D02*
X001850Y003598D01*
X001850Y003696D02*
X002659Y003696D01*
X002716Y003795D02*
X001850Y003795D01*
X001850Y003893D02*
X002791Y003893D01*
X002890Y003992D02*
X001850Y003992D01*
X001850Y004090D02*
X003026Y004090D01*
X003246Y004189D02*
X001850Y004189D01*
X003481Y004189D02*
X003581Y004189D01*
X003581Y004090D02*
X003481Y004090D01*
X003817Y004189D02*
X005546Y004189D01*
X005319Y004090D02*
X004037Y004090D01*
X004173Y003992D02*
X005221Y003992D01*
X005122Y003893D02*
X004272Y003893D01*
X004347Y003795D02*
X005037Y003795D01*
X004996Y003696D02*
X004404Y003696D01*
X004448Y003598D02*
X004955Y003598D01*
X004914Y003499D02*
X004480Y003499D01*
X004501Y003401D02*
X004894Y003401D01*
X004894Y003302D02*
X004511Y003302D01*
X003581Y003401D02*
X003481Y003401D01*
X003481Y003499D02*
X003581Y003499D01*
X003581Y003598D02*
X003481Y003598D01*
X003481Y003696D02*
X003581Y003696D01*
X003581Y003795D02*
X003481Y003795D01*
X003481Y003893D02*
X003581Y003893D01*
X003581Y003992D02*
X003481Y003992D01*
X003481Y003105D02*
X003581Y003105D01*
X003581Y003007D02*
X003481Y003007D01*
X003481Y002908D02*
X003581Y002908D01*
X003581Y002810D02*
X003481Y002810D01*
X003481Y002711D02*
X003581Y002711D01*
X003581Y002613D02*
X003481Y002613D01*
X003481Y002514D02*
X003581Y002514D01*
X003581Y002416D02*
X003481Y002416D01*
X003018Y002416D02*
X001850Y002416D01*
X001850Y002514D02*
X002883Y002514D01*
X002786Y002613D02*
X001850Y002613D01*
X001850Y002711D02*
X002713Y002711D01*
X002656Y002810D02*
X001850Y002810D01*
X001850Y002908D02*
X002613Y002908D01*
X002582Y003007D02*
X001850Y003007D01*
X001850Y003105D02*
X002562Y003105D01*
D14*
X004713Y001563D02*
X005100Y001950D01*
X006500Y001950D01*
X004713Y001563D02*
X004713Y001400D01*
X010200Y000650D02*
X010200Y003850D01*
X010200Y004250D01*
X009800Y004650D01*
X002900Y004650D01*
X002200Y005350D01*
X002200Y006150D01*
X011200Y002350D02*
X012600Y002350D01*
X011200Y002350D02*
X011200Y001950D01*
D15*
X011200Y001950D03*
X012600Y002350D03*
X010200Y003850D03*
X015200Y003850D03*
X016200Y004150D03*
X018200Y004450D03*
X019200Y004750D03*
X021200Y005050D03*
X022200Y005350D03*
X006500Y001950D03*
M02*
