G75*
%MOIN*%
%OFA0B0*%
%FSLAX24Y24*%
%IPPOS*%
%LPD*%
%AMOC8*
5,1,8,0,0,1.08239X$1,22.5*
%
%ADD10R,0.0820X0.0820*%
%ADD11C,0.0820*%
%ADD12C,0.1780*%
%ADD13R,0.0297X0.0552*%
%ADD14R,0.0395X0.0552*%
%ADD15R,0.0474X0.0789*%
D10*
X006200Y000650D03*
X015200Y000650D03*
X015200Y001650D03*
X016200Y006150D03*
X008200Y006150D03*
D11*
X007200Y006150D03*
X006200Y006150D03*
X005200Y006150D03*
X004200Y006150D03*
X003200Y006150D03*
X002200Y006150D03*
X009200Y006150D03*
X010200Y006150D03*
X011200Y006150D03*
X012200Y006150D03*
X013200Y006150D03*
X014200Y006150D03*
X015200Y006150D03*
X017200Y006150D03*
X018200Y006150D03*
X019200Y006150D03*
X020200Y006150D03*
X021200Y006150D03*
X022200Y006150D03*
X023200Y006150D03*
X022200Y001650D03*
X021200Y001650D03*
X020200Y001650D03*
X019200Y001650D03*
X018200Y001650D03*
X017200Y001650D03*
X016200Y001650D03*
X016200Y000650D03*
X017200Y000650D03*
X018200Y000650D03*
X019200Y000650D03*
X020200Y000650D03*
X021200Y000650D03*
X022200Y000650D03*
X013200Y000650D03*
X012200Y000650D03*
X011200Y000650D03*
X010200Y000650D03*
X009200Y000650D03*
X008200Y000650D03*
X007200Y000650D03*
D12*
X004713Y001400D03*
X005894Y003250D03*
X003531Y003250D03*
D13*
X008426Y002962D03*
X008800Y002962D03*
X009174Y002962D03*
X009174Y001938D03*
X008426Y001938D03*
D14*
X007854Y001950D03*
X007146Y001950D03*
X009746Y001950D03*
X010454Y001950D03*
X010454Y003150D03*
X009746Y003150D03*
D15*
X012049Y001750D03*
X013151Y001750D03*
M02*
