G75*
%MOIN*%
%OFA0B0*%
%FSLAX24Y24*%
%IPPOS*%
%LPD*%
%AMOC8*
5,1,8,0,0,1.08239X$1,22.5*
%
%ADD10C,0.0000*%
%ADD11C,0.0050*%
%ADD12C,0.0040*%
%ADD13C,0.0080*%
%ADD14C,0.0010*%
%ADD15C,0.0060*%
%ADD16R,0.0128X0.0004*%
%ADD17R,0.0136X0.0004*%
%ADD18R,0.0136X0.0004*%
%ADD19R,0.0048X0.0004*%
%ADD20R,0.0168X0.0004*%
%ADD21R,0.0224X0.0004*%
%ADD22R,0.0272X0.0004*%
%ADD23R,0.0312X0.0004*%
%ADD24R,0.0352X0.0004*%
%ADD25R,0.0384X0.0004*%
%ADD26R,0.0408X0.0004*%
%ADD27R,0.0440X0.0004*%
%ADD28R,0.0464X0.0004*%
%ADD29R,0.0488X0.0004*%
%ADD30R,0.0516X0.0004*%
%ADD31R,0.0544X0.0004*%
%ADD32R,0.0564X0.0004*%
%ADD33R,0.0580X0.0004*%
%ADD34R,0.0600X0.0004*%
%ADD35R,0.0612X0.0004*%
%ADD36R,0.0628X0.0004*%
%ADD37R,0.0652X0.0004*%
%ADD38R,0.0668X0.0004*%
%ADD39R,0.0684X0.0004*%
%ADD40R,0.0700X0.0004*%
%ADD41R,0.0716X0.0004*%
%ADD42R,0.0728X0.0004*%
%ADD43R,0.0744X0.0004*%
%ADD44R,0.0756X0.0004*%
%ADD45R,0.0772X0.0004*%
%ADD46R,0.0780X0.0004*%
%ADD47R,0.0796X0.0004*%
%ADD48R,0.0812X0.0004*%
%ADD49R,0.0820X0.0004*%
%ADD50R,0.0836X0.0004*%
%ADD51R,0.0848X0.0004*%
%ADD52R,0.0364X0.0004*%
%ADD53R,0.0344X0.0004*%
%ADD54R,0.0316X0.0004*%
%ADD55R,0.0304X0.0004*%
%ADD56R,0.0308X0.0004*%
%ADD57R,0.0296X0.0004*%
%ADD58R,0.0284X0.0004*%
%ADD59R,0.0288X0.0004*%
%ADD60R,0.0276X0.0004*%
%ADD61R,0.0268X0.0004*%
%ADD62R,0.0260X0.0004*%
%ADD63R,0.0260X0.0004*%
%ADD64R,0.0252X0.0004*%
%ADD65R,0.0244X0.0004*%
%ADD66R,0.0020X0.0004*%
%ADD67R,0.0248X0.0004*%
%ADD68R,0.0240X0.0004*%
%ADD69R,0.0036X0.0004*%
%ADD70R,0.0032X0.0004*%
%ADD71R,0.0044X0.0004*%
%ADD72R,0.0236X0.0004*%
%ADD73R,0.0232X0.0004*%
%ADD74R,0.0060X0.0004*%
%ADD75R,0.0056X0.0004*%
%ADD76R,0.0236X0.0004*%
%ADD77R,0.0228X0.0004*%
%ADD78R,0.0072X0.0004*%
%ADD79R,0.0232X0.0004*%
%ADD80R,0.0224X0.0004*%
%ADD81R,0.0076X0.0004*%
%ADD82R,0.0080X0.0004*%
%ADD83R,0.0220X0.0004*%
%ADD84R,0.0084X0.0004*%
%ADD85R,0.0088X0.0004*%
%ADD86R,0.0216X0.0004*%
%ADD87R,0.0092X0.0004*%
%ADD88R,0.0096X0.0004*%
%ADD89R,0.0216X0.0004*%
%ADD90R,0.0100X0.0004*%
%ADD91R,0.0104X0.0004*%
%ADD92R,0.0212X0.0004*%
%ADD93R,0.0112X0.0004*%
%ADD94R,0.0108X0.0004*%
%ADD95R,0.0208X0.0004*%
%ADD96R,0.0116X0.0004*%
%ADD97R,0.0124X0.0004*%
%ADD98R,0.0120X0.0004*%
%ADD99R,0.0204X0.0004*%
%ADD100R,0.0200X0.0004*%
%ADD101R,0.0132X0.0004*%
%ADD102R,0.0204X0.0004*%
%ADD103R,0.0200X0.0004*%
%ADD104R,0.0140X0.0004*%
%ADD105R,0.0196X0.0004*%
%ADD106R,0.0144X0.0004*%
%ADD107R,0.0148X0.0004*%
%ADD108R,0.0192X0.0004*%
%ADD109R,0.0192X0.0004*%
%ADD110R,0.0140X0.0004*%
%ADD111R,0.0192X0.0004*%
%ADD112R,0.0132X0.0004*%
%ADD113R,0.0188X0.0004*%
%ADD114R,0.0124X0.0004*%
%ADD115R,0.0184X0.0004*%
%ADD116R,0.0184X0.0004*%
%ADD117R,0.0116X0.0004*%
%ADD118R,0.0120X0.0004*%
%ADD119R,0.0184X0.0004*%
%ADD120R,0.0180X0.0004*%
%ADD121R,0.0112X0.0004*%
%ADD122R,0.0104X0.0004*%
%ADD123R,0.0180X0.0004*%
%ADD124R,0.0176X0.0004*%
%ADD125R,0.0176X0.0004*%
%ADD126R,0.0100X0.0004*%
%ADD127R,0.0172X0.0004*%
%ADD128R,0.0168X0.0004*%
%ADD129R,0.0092X0.0004*%
%ADD130R,0.0096X0.0004*%
%ADD131R,0.0056X0.0004*%
%ADD132R,0.0092X0.0004*%
%ADD133R,0.0164X0.0004*%
%ADD134R,0.0164X0.0004*%
%ADD135R,0.0300X0.0004*%
%ADD136R,0.0088X0.0004*%
%ADD137R,0.0092X0.0004*%
%ADD138R,0.0296X0.0004*%
%ADD139R,0.0256X0.0004*%
%ADD140R,0.0292X0.0004*%
%ADD141R,0.0280X0.0004*%
%ADD142R,0.0084X0.0004*%
%ADD143R,0.0160X0.0004*%
%ADD144R,0.0280X0.0004*%
%ADD145R,0.0332X0.0004*%
%ADD146R,0.0084X0.0004*%
%ADD147R,0.0160X0.0004*%
%ADD148R,0.0348X0.0004*%
%ADD149R,0.0364X0.0004*%
%ADD150R,0.0156X0.0004*%
%ADD151R,0.0264X0.0004*%
%ADD152R,0.0396X0.0004*%
%ADD153R,0.0264X0.0004*%
%ADD154R,0.0076X0.0004*%
%ADD155R,0.0404X0.0004*%
%ADD156R,0.0080X0.0004*%
%ADD157R,0.0156X0.0004*%
%ADD158R,0.0416X0.0004*%
%ADD159R,0.0428X0.0004*%
%ADD160R,0.0252X0.0004*%
%ADD161R,0.0072X0.0004*%
%ADD162R,0.0452X0.0004*%
%ADD163R,0.0248X0.0004*%
%ADD164R,0.0072X0.0004*%
%ADD165R,0.0464X0.0004*%
%ADD166R,0.0152X0.0004*%
%ADD167R,0.0476X0.0004*%
%ADD168R,0.0068X0.0004*%
%ADD169R,0.0500X0.0004*%
%ADD170R,0.0152X0.0004*%
%ADD171R,0.0508X0.0004*%
%ADD172R,0.0232X0.0004*%
%ADD173R,0.0068X0.0004*%
%ADD174R,0.0516X0.0004*%
%ADD175R,0.0152X0.0004*%
%ADD176R,0.0232X0.0004*%
%ADD177R,0.0064X0.0004*%
%ADD178R,0.0060X0.0004*%
%ADD179R,0.0524X0.0004*%
%ADD180R,0.0532X0.0004*%
%ADD181R,0.0152X0.0004*%
%ADD182R,0.0104X0.0004*%
%ADD183R,0.0540X0.0004*%
%ADD184R,0.0548X0.0004*%
%ADD185R,0.0220X0.0004*%
%ADD186R,0.0172X0.0004*%
%ADD187R,0.0556X0.0004*%
%ADD188R,0.0148X0.0004*%
%ADD189R,0.0572X0.0004*%
%ADD190R,0.0212X0.0004*%
%ADD191R,0.0588X0.0004*%
%ADD192R,0.0208X0.0004*%
%ADD193R,0.0164X0.0004*%
%ADD194R,0.0592X0.0004*%
%ADD195R,0.0604X0.0004*%
%ADD196R,0.0012X0.0004*%
%ADD197R,0.0616X0.0004*%
%ADD198R,0.0144X0.0004*%
%ADD199R,0.0064X0.0004*%
%ADD200R,0.0620X0.0004*%
%ADD201R,0.0144X0.0004*%
%ADD202R,0.0628X0.0004*%
%ADD203R,0.0064X0.0004*%
%ADD204R,0.0636X0.0004*%
%ADD205R,0.0640X0.0004*%
%ADD206R,0.0644X0.0004*%
%ADD207R,0.0188X0.0004*%
%ADD208R,0.0652X0.0004*%
%ADD209R,0.0144X0.0004*%
%ADD210R,0.0656X0.0004*%
%ADD211R,0.0664X0.0004*%
%ADD212R,0.0672X0.0004*%
%ADD213R,0.0676X0.0004*%
%ADD214R,0.0680X0.0004*%
%ADD215R,0.0688X0.0004*%
%ADD216R,0.0172X0.0004*%
%ADD217R,0.0492X0.0004*%
%ADD218R,0.0172X0.0004*%
%ADD219R,0.0256X0.0004*%
%ADD220R,0.0132X0.0004*%
%ADD221R,0.0204X0.0004*%
%ADD222R,0.0108X0.0004*%
%ADD223R,0.0008X0.0004*%
%ADD224R,0.0196X0.0004*%
%ADD225R,0.0052X0.0004*%
%ADD226R,0.0104X0.0004*%
%ADD227R,0.0052X0.0004*%
%ADD228R,0.0084X0.0004*%
%ADD229R,0.0044X0.0004*%
%ADD230R,0.0132X0.0004*%
%ADD231R,0.0044X0.0004*%
%ADD232R,0.0040X0.0004*%
%ADD233R,0.0036X0.0004*%
%ADD234R,0.0020X0.0004*%
%ADD235R,0.0016X0.0004*%
%ADD236R,0.0004X0.0004*%
%ADD237R,0.0048X0.0004*%
%ADD238R,0.0004X0.0004*%
%ADD239R,0.0032X0.0004*%
%ADD240R,0.0032X0.0004*%
%ADD241R,0.0052X0.0004*%
%ADD242R,0.0128X0.0004*%
%ADD243R,0.0008X0.0004*%
%ADD244R,0.0016X0.0004*%
%ADD245R,0.0028X0.0004*%
%ADD246R,0.0112X0.0004*%
%ADD247R,0.0040X0.0004*%
%ADD248R,0.0052X0.0004*%
%ADD249R,0.0024X0.0004*%
%ADD250R,0.0124X0.0004*%
%ADD251R,0.0064X0.0004*%
%ADD252R,0.0024X0.0004*%
%ADD253R,0.0184X0.0004*%
%ADD254R,0.0536X0.0004*%
%ADD255R,0.0768X0.0004*%
%ADD256R,0.0768X0.0004*%
%ADD257R,0.0764X0.0004*%
%ADD258R,0.0764X0.0004*%
%ADD259R,0.0760X0.0004*%
%ADD260R,0.0752X0.0004*%
%ADD261R,0.0072X0.0004*%
%ADD262R,0.0276X0.0004*%
%ADD263R,0.0272X0.0004*%
%ADD264R,0.0044X0.0004*%
%ADD265R,0.0244X0.0004*%
%ADD266R,0.0420X0.0004*%
%ADD267R,0.0484X0.0004*%
%ADD268R,0.0532X0.0004*%
%ADD269R,0.0632X0.0004*%
%ADD270R,0.0692X0.0004*%
%ADD271R,0.0724X0.0004*%
%ADD272R,0.0748X0.0004*%
%ADD273R,0.0784X0.0004*%
%ADD274R,0.0836X0.0004*%
%ADD275R,0.0852X0.0004*%
%ADD276R,0.0868X0.0004*%
%ADD277R,0.0876X0.0004*%
%ADD278R,0.0884X0.0004*%
%ADD279R,0.0432X0.0004*%
%ADD280R,0.0400X0.0004*%
%ADD281R,0.0376X0.0004*%
%ADD282R,0.0320X0.0004*%
%ADD283R,0.0324X0.0004*%
%ADD284R,0.0292X0.0004*%
%ADD285R,0.0272X0.0004*%
%ADD286R,0.0332X0.0004*%
%ADD287R,0.0432X0.0004*%
%ADD288R,0.0468X0.0004*%
%ADD289R,0.0512X0.0004*%
%ADD290R,0.0564X0.0004*%
%ADD291R,0.0612X0.0004*%
%ADD292R,0.0624X0.0004*%
%ADD293R,0.0636X0.0004*%
%ADD294R,0.0620X0.0004*%
%ADD295R,0.0616X0.0004*%
%ADD296R,0.0608X0.0004*%
%ADD297R,0.0604X0.0004*%
%ADD298R,0.0592X0.0004*%
%ADD299R,0.0584X0.0004*%
%ADD300R,0.0576X0.0004*%
%ADD301R,0.0228X0.0004*%
%ADD302R,0.0192X0.0004*%
%ADD303R,0.0252X0.0004*%
%ADD304R,0.0112X0.0004*%
%ADD305R,0.0240X0.0004*%
%ADD306R,0.0304X0.0004*%
%ADD307R,0.0312X0.0004*%
%ADD308R,0.0328X0.0004*%
%ADD309R,0.0372X0.0004*%
%ADD310R,0.0844X0.0004*%
%ADD311R,0.0832X0.0004*%
%ADD312R,0.0808X0.0004*%
%ADD313R,0.0740X0.0004*%
%ADD314R,0.0724X0.0004*%
%ADD315R,0.0712X0.0004*%
%ADD316R,0.0696X0.0004*%
%ADD317R,0.0676X0.0004*%
%ADD318R,0.0660X0.0004*%
%ADD319R,0.0596X0.0004*%
%ADD320R,0.0576X0.0004*%
%ADD321R,0.0552X0.0004*%
%ADD322R,0.0432X0.0004*%
D10*
X001900Y000150D02*
X001700Y000350D01*
X001700Y006550D01*
X001900Y006750D01*
X023600Y006750D01*
X023800Y006550D01*
X023800Y000350D01*
X023600Y000150D01*
X001900Y000150D01*
D11*
X007825Y001275D02*
X007825Y001545D01*
X007960Y001545D01*
X008005Y001500D01*
X008005Y001410D01*
X007960Y001365D01*
X007825Y001365D01*
X007915Y001365D02*
X008005Y001275D01*
X008120Y001320D02*
X008165Y001275D01*
X008255Y001275D01*
X008300Y001320D01*
X008300Y001365D01*
X008255Y001410D01*
X008165Y001410D01*
X008120Y001455D01*
X008120Y001500D01*
X008165Y001545D01*
X008255Y001545D01*
X008300Y001500D01*
X008414Y001545D02*
X008594Y001545D01*
X008504Y001545D02*
X008504Y001275D01*
X008825Y001320D02*
X008870Y001275D01*
X008960Y001275D01*
X009005Y001320D01*
X009005Y001365D01*
X008960Y001410D01*
X008915Y001410D01*
X008960Y001410D02*
X009005Y001455D01*
X009005Y001500D01*
X008960Y001545D01*
X008870Y001545D01*
X008825Y001500D01*
X008684Y001645D02*
X007800Y001645D01*
X009120Y001545D02*
X009120Y001365D01*
X009210Y001275D01*
X009300Y001365D01*
X009300Y001545D01*
X009414Y001500D02*
X009459Y001545D01*
X009549Y001545D01*
X009594Y001500D01*
X009594Y001455D01*
X009549Y001410D01*
X009594Y001365D01*
X009594Y001320D01*
X009549Y001275D01*
X009459Y001275D01*
X009414Y001320D01*
X009504Y001410D02*
X009549Y001410D01*
X009825Y001410D02*
X009825Y001545D01*
X010005Y001545D01*
X009960Y001455D02*
X010005Y001410D01*
X010005Y001320D01*
X009960Y001275D01*
X009870Y001275D01*
X009825Y001320D01*
X009825Y001410D02*
X009915Y001455D01*
X009960Y001455D01*
X010120Y001545D02*
X010120Y001365D01*
X010210Y001275D01*
X010300Y001365D01*
X010300Y001545D01*
X010414Y001500D02*
X010459Y001545D01*
X010549Y001545D01*
X010594Y001500D01*
X010414Y001320D01*
X010459Y001275D01*
X010549Y001275D01*
X010594Y001320D01*
X010594Y001500D01*
X010414Y001500D02*
X010414Y001320D01*
X010825Y001320D02*
X010825Y001500D01*
X010870Y001545D01*
X010960Y001545D01*
X011005Y001500D01*
X011005Y001410D02*
X010915Y001410D01*
X011005Y001410D02*
X011005Y001320D01*
X010960Y001275D01*
X010870Y001275D01*
X010825Y001320D01*
X011120Y001275D02*
X011120Y001545D01*
X011300Y001275D01*
X011300Y001545D01*
X011414Y001545D02*
X011549Y001545D01*
X011594Y001500D01*
X011594Y001320D01*
X011549Y001275D01*
X011414Y001275D01*
X011414Y001545D01*
X013425Y001545D02*
X013425Y001365D01*
X013515Y001275D01*
X013605Y001365D01*
X013605Y001545D01*
X013720Y001545D02*
X013810Y001545D01*
X013765Y001545D02*
X013765Y001275D01*
X013720Y001275D02*
X013810Y001275D01*
X013916Y001275D02*
X013916Y001545D01*
X014096Y001275D01*
X014096Y001545D01*
X015005Y002375D02*
X015005Y002510D01*
X015050Y002555D01*
X015140Y002555D01*
X015185Y002510D01*
X015185Y002375D01*
X015275Y002375D02*
X015005Y002375D01*
X015050Y002670D02*
X015005Y002715D01*
X015005Y002805D01*
X015050Y002850D01*
X015095Y002850D01*
X015140Y002805D01*
X015185Y002850D01*
X015230Y002850D01*
X015275Y002805D01*
X015275Y002715D01*
X015230Y002670D01*
X015140Y002760D02*
X015140Y002805D01*
X015320Y002964D02*
X015320Y003144D01*
X015275Y003259D02*
X015230Y003259D01*
X015050Y003439D01*
X015005Y003439D01*
X015005Y003259D01*
X016005Y003439D02*
X016050Y003349D01*
X016140Y003259D01*
X016140Y003394D01*
X016185Y003439D01*
X016230Y003439D01*
X016275Y003394D01*
X016275Y003304D01*
X016230Y003259D01*
X016140Y003259D01*
X016320Y003144D02*
X016320Y002964D01*
X016230Y002850D02*
X016275Y002805D01*
X016275Y002715D01*
X016230Y002670D01*
X016140Y002760D02*
X016140Y002805D01*
X016185Y002850D01*
X016230Y002850D01*
X016140Y002805D02*
X016095Y002850D01*
X016050Y002850D01*
X016005Y002805D01*
X016005Y002715D01*
X016050Y002670D01*
X016050Y002555D02*
X016140Y002555D01*
X016185Y002510D01*
X016185Y002375D01*
X016275Y002375D02*
X016005Y002375D01*
X016005Y002510D01*
X016050Y002555D01*
X017005Y002555D02*
X017275Y002555D01*
X017005Y002375D01*
X017275Y002375D01*
X018005Y002375D02*
X018005Y002510D01*
X018050Y002555D01*
X018140Y002555D01*
X018185Y002510D01*
X018185Y002375D01*
X018275Y002375D02*
X018005Y002375D01*
X018050Y002670D02*
X018005Y002715D01*
X018005Y002805D01*
X018050Y002850D01*
X018095Y002850D01*
X018140Y002805D01*
X018185Y002850D01*
X018230Y002850D01*
X018275Y002805D01*
X018275Y002715D01*
X018230Y002670D01*
X018140Y002760D02*
X018140Y002805D01*
X018320Y002964D02*
X018320Y003144D01*
X018230Y003259D02*
X018275Y003304D01*
X018275Y003394D01*
X018230Y003439D01*
X018140Y003439D01*
X018095Y003394D01*
X018095Y003349D01*
X018140Y003259D01*
X018005Y003259D01*
X018005Y003439D01*
X019005Y003394D02*
X019140Y003259D01*
X019140Y003439D01*
X019275Y003394D02*
X019005Y003394D01*
X019320Y003144D02*
X019320Y002964D01*
X019230Y002850D02*
X019275Y002805D01*
X019275Y002715D01*
X019230Y002670D01*
X019140Y002760D02*
X019140Y002805D01*
X019185Y002850D01*
X019230Y002850D01*
X019140Y002805D02*
X019095Y002850D01*
X019050Y002850D01*
X019005Y002805D01*
X019005Y002715D01*
X019050Y002670D01*
X019050Y002555D02*
X019140Y002555D01*
X019185Y002510D01*
X019185Y002375D01*
X019275Y002375D02*
X019005Y002375D01*
X019005Y002510D01*
X019050Y002555D01*
X020005Y002510D02*
X020005Y002420D01*
X020050Y002375D01*
X020230Y002375D01*
X020275Y002420D01*
X020275Y002510D01*
X020230Y002555D01*
X020140Y002555D01*
X020140Y002465D01*
X020050Y002555D02*
X020005Y002510D01*
X020005Y002670D02*
X020275Y002850D01*
X020005Y002850D01*
X020005Y002964D02*
X020005Y003099D01*
X020050Y003144D01*
X020230Y003144D01*
X020275Y003099D01*
X020275Y002964D01*
X020005Y002964D01*
X020005Y002670D02*
X020275Y002670D01*
X021005Y002715D02*
X021050Y002670D01*
X021005Y002715D02*
X021005Y002805D01*
X021050Y002850D01*
X021095Y002850D01*
X021140Y002805D01*
X021185Y002850D01*
X021230Y002850D01*
X021275Y002805D01*
X021275Y002715D01*
X021230Y002670D01*
X021140Y002760D02*
X021140Y002805D01*
X021320Y002964D02*
X021320Y003144D01*
X021275Y003259D02*
X021275Y003439D01*
X021275Y003349D02*
X021005Y003349D01*
X021095Y003259D01*
X022005Y003304D02*
X022005Y003394D01*
X022050Y003439D01*
X022230Y003259D01*
X022275Y003304D01*
X022275Y003394D01*
X022230Y003439D01*
X022050Y003439D01*
X022005Y003304D02*
X022050Y003259D01*
X022230Y003259D01*
X022320Y003144D02*
X022320Y002964D01*
X022230Y002850D02*
X022275Y002805D01*
X022275Y002715D01*
X022230Y002670D01*
X022140Y002760D02*
X022140Y002805D01*
X022185Y002850D01*
X022230Y002850D01*
X022140Y002805D02*
X022095Y002850D01*
X022050Y002850D01*
X022005Y002805D01*
X022005Y002715D01*
X022050Y002670D01*
X022050Y002555D02*
X022140Y002555D01*
X022185Y002510D01*
X022185Y002375D01*
X022275Y002375D02*
X022005Y002375D01*
X022005Y002510D01*
X022050Y002555D01*
X021275Y002375D02*
X021005Y002375D01*
X021005Y002510D01*
X021050Y002555D01*
X021140Y002555D01*
X021185Y002510D01*
X021185Y002375D01*
X017275Y002715D02*
X017275Y002805D01*
X017230Y002850D01*
X017050Y002850D02*
X017005Y002805D01*
X017005Y002715D01*
X017050Y002670D01*
X017230Y002670D01*
X017275Y002715D01*
X017275Y004375D02*
X017005Y004375D01*
X017005Y004510D01*
X017050Y004555D01*
X017140Y004555D01*
X017185Y004510D01*
X017185Y004375D01*
X017275Y004670D02*
X017095Y004850D01*
X017050Y004850D01*
X017005Y004805D01*
X017005Y004715D01*
X017050Y004670D01*
X017275Y004670D02*
X017275Y004850D01*
X017320Y004964D02*
X017320Y005144D01*
X017230Y005259D02*
X017275Y005304D01*
X017275Y005394D01*
X017230Y005439D01*
X017140Y005439D01*
X017095Y005394D01*
X017095Y005349D01*
X017140Y005259D01*
X017005Y005259D01*
X017005Y005439D01*
X016275Y005394D02*
X016275Y005304D01*
X016230Y005259D01*
X016140Y005259D01*
X016140Y005394D01*
X016185Y005439D01*
X016230Y005439D01*
X016275Y005394D01*
X016140Y005259D02*
X016050Y005349D01*
X016005Y005439D01*
X015375Y005259D02*
X015330Y005259D01*
X015150Y005439D01*
X015105Y005439D01*
X015105Y005259D01*
X015420Y005144D02*
X015420Y004964D01*
X015375Y004850D02*
X015375Y004670D01*
X015195Y004850D01*
X015150Y004850D01*
X015105Y004805D01*
X015105Y004715D01*
X015150Y004670D01*
X015150Y004555D02*
X015240Y004555D01*
X015285Y004510D01*
X015285Y004375D01*
X015375Y004375D02*
X015105Y004375D01*
X015105Y004510D01*
X015150Y004555D01*
X016005Y004510D02*
X016005Y004375D01*
X016275Y004375D01*
X016185Y004375D02*
X016185Y004510D01*
X016140Y004555D01*
X016050Y004555D01*
X016005Y004510D01*
X016050Y004670D02*
X016005Y004715D01*
X016005Y004805D01*
X016050Y004850D01*
X016095Y004850D01*
X016275Y004670D01*
X016275Y004850D01*
X016320Y004964D02*
X016320Y005144D01*
X018105Y005394D02*
X018240Y005259D01*
X018240Y005439D01*
X018375Y005394D02*
X018105Y005394D01*
X018420Y005144D02*
X018420Y004964D01*
X018375Y004850D02*
X018375Y004670D01*
X018195Y004850D01*
X018150Y004850D01*
X018105Y004805D01*
X018105Y004715D01*
X018150Y004670D01*
X018150Y004555D02*
X018240Y004555D01*
X018285Y004510D01*
X018285Y004375D01*
X018375Y004375D02*
X018105Y004375D01*
X018105Y004510D01*
X018150Y004555D01*
X019105Y004510D02*
X019105Y004375D01*
X019375Y004375D01*
X019285Y004375D02*
X019285Y004510D01*
X019240Y004555D01*
X019150Y004555D01*
X019105Y004510D01*
X019150Y004670D02*
X019105Y004715D01*
X019105Y004805D01*
X019150Y004850D01*
X019195Y004850D01*
X019375Y004670D01*
X019375Y004850D01*
X019420Y004964D02*
X019420Y005144D01*
X019330Y005259D02*
X019375Y005304D01*
X019375Y005394D01*
X019330Y005439D01*
X019285Y005439D01*
X019240Y005394D01*
X019240Y005349D01*
X019240Y005394D02*
X019195Y005439D01*
X019150Y005439D01*
X019105Y005394D01*
X019105Y005304D01*
X019150Y005259D01*
X020005Y005304D02*
X020050Y005259D01*
X020005Y005304D02*
X020005Y005394D01*
X020050Y005439D01*
X020095Y005439D01*
X020275Y005259D01*
X020275Y005439D01*
X021005Y005349D02*
X021275Y005349D01*
X021275Y005259D02*
X021275Y005439D01*
X021095Y005259D02*
X021005Y005349D01*
X021320Y005144D02*
X021320Y004964D01*
X021275Y004850D02*
X021275Y004670D01*
X021095Y004850D01*
X021050Y004850D01*
X021005Y004805D01*
X021005Y004715D01*
X021050Y004670D01*
X021050Y004555D02*
X021140Y004555D01*
X021185Y004510D01*
X021185Y004375D01*
X021275Y004375D02*
X021005Y004375D01*
X021005Y004510D01*
X021050Y004555D01*
X020275Y004670D02*
X020095Y004850D01*
X020050Y004850D01*
X020005Y004805D01*
X020005Y004715D01*
X020050Y004670D01*
X020050Y004555D02*
X020140Y004555D01*
X020185Y004510D01*
X020185Y004375D01*
X020275Y004375D02*
X020005Y004375D01*
X020005Y004510D01*
X020050Y004555D01*
X020275Y004670D02*
X020275Y004850D01*
X020320Y004964D02*
X020320Y005144D01*
X022105Y005304D02*
X022105Y005394D01*
X022150Y005439D01*
X022330Y005259D01*
X022375Y005304D01*
X022375Y005394D01*
X022330Y005439D01*
X022150Y005439D01*
X022105Y005304D02*
X022150Y005259D01*
X022330Y005259D01*
X022420Y005144D02*
X022420Y004964D01*
X022375Y004850D02*
X022375Y004670D01*
X022195Y004850D01*
X022150Y004850D01*
X022105Y004805D01*
X022105Y004715D01*
X022150Y004670D01*
X022150Y004555D02*
X022240Y004555D01*
X022285Y004510D01*
X022285Y004375D01*
X022375Y004375D02*
X022105Y004375D01*
X022105Y004510D01*
X022150Y004555D01*
X023005Y004720D02*
X023050Y004675D01*
X023230Y004675D01*
X023275Y004720D01*
X023275Y004810D01*
X023230Y004855D01*
X023140Y004855D01*
X023140Y004765D01*
X023050Y004855D02*
X023005Y004810D01*
X023005Y004720D01*
X023005Y004970D02*
X023275Y005150D01*
X023005Y005150D01*
X023005Y005264D02*
X023005Y005399D01*
X023050Y005444D01*
X023230Y005444D01*
X023275Y005399D01*
X023275Y005264D01*
X023005Y005264D01*
X023005Y004970D02*
X023275Y004970D01*
X014320Y004964D02*
X014320Y005144D01*
X014230Y005259D02*
X014050Y005259D01*
X014005Y005304D01*
X014005Y005394D01*
X014050Y005439D01*
X014230Y005259D01*
X014275Y005304D01*
X014275Y005394D01*
X014230Y005439D01*
X014050Y005439D01*
X013275Y005439D02*
X013275Y005259D01*
X013275Y005349D02*
X013005Y005349D01*
X013095Y005259D01*
X013320Y005144D02*
X013320Y004964D01*
X013230Y004850D02*
X013275Y004805D01*
X013275Y004715D01*
X013230Y004670D01*
X013140Y004760D02*
X013140Y004805D01*
X013185Y004850D01*
X013230Y004850D01*
X013140Y004805D02*
X013095Y004850D01*
X013050Y004850D01*
X013005Y004805D01*
X013005Y004715D01*
X013050Y004670D01*
X013050Y004555D02*
X013140Y004555D01*
X013185Y004510D01*
X013185Y004375D01*
X013275Y004375D02*
X013005Y004375D01*
X013005Y004510D01*
X013050Y004555D01*
X012275Y004715D02*
X012275Y004805D01*
X012230Y004850D01*
X012185Y004850D01*
X012140Y004805D01*
X012140Y004760D01*
X012140Y004805D02*
X012095Y004850D01*
X012050Y004850D01*
X012005Y004805D01*
X012005Y004715D01*
X012050Y004670D01*
X012050Y004555D02*
X012140Y004555D01*
X012185Y004510D01*
X012185Y004375D01*
X012275Y004375D02*
X012005Y004375D01*
X012005Y004510D01*
X012050Y004555D01*
X012230Y004670D02*
X012275Y004715D01*
X012320Y004964D02*
X012320Y005144D01*
X012275Y005259D02*
X012095Y005439D01*
X012050Y005439D01*
X012005Y005394D01*
X012005Y005304D01*
X012050Y005259D01*
X012275Y005259D02*
X012275Y005439D01*
X011320Y005144D02*
X011320Y004964D01*
X011230Y004850D02*
X011275Y004805D01*
X011275Y004715D01*
X011230Y004670D01*
X011140Y004760D02*
X011140Y004805D01*
X011185Y004850D01*
X011230Y004850D01*
X011140Y004805D02*
X011095Y004850D01*
X011050Y004850D01*
X011005Y004805D01*
X011005Y004715D01*
X011050Y004670D01*
X011050Y004555D02*
X011140Y004555D01*
X011185Y004510D01*
X011185Y004375D01*
X011275Y004375D02*
X011005Y004375D01*
X011005Y004510D01*
X011050Y004555D01*
X010375Y004715D02*
X010375Y004805D01*
X010330Y004850D01*
X010285Y004850D01*
X010240Y004805D01*
X010240Y004760D01*
X010240Y004805D02*
X010195Y004850D01*
X010150Y004850D01*
X010105Y004805D01*
X010105Y004715D01*
X010150Y004670D01*
X010150Y004555D02*
X010240Y004555D01*
X010285Y004510D01*
X010285Y004375D01*
X010375Y004375D02*
X010105Y004375D01*
X010105Y004510D01*
X010150Y004555D01*
X010330Y004670D02*
X010375Y004715D01*
X010420Y004964D02*
X010420Y005144D01*
X010240Y005259D02*
X010240Y005439D01*
X010375Y005394D02*
X010105Y005394D01*
X010240Y005259D01*
X011005Y005304D02*
X011005Y005394D01*
X011050Y005439D01*
X011095Y005439D01*
X011140Y005394D01*
X011185Y005439D01*
X011230Y005439D01*
X011275Y005394D01*
X011275Y005304D01*
X011230Y005259D01*
X011140Y005349D02*
X011140Y005394D01*
X011050Y005259D02*
X011005Y005304D01*
X009320Y005144D02*
X009320Y004964D01*
X009230Y004850D02*
X009275Y004805D01*
X009275Y004715D01*
X009230Y004670D01*
X009140Y004760D02*
X009140Y004805D01*
X009185Y004850D01*
X009230Y004850D01*
X009140Y004805D02*
X009095Y004850D01*
X009050Y004850D01*
X009005Y004805D01*
X009005Y004715D01*
X009050Y004670D01*
X009050Y004555D02*
X009140Y004555D01*
X009185Y004510D01*
X009185Y004375D01*
X009275Y004375D02*
X009005Y004375D01*
X009005Y004510D01*
X009050Y004555D01*
X009005Y005259D02*
X009140Y005259D01*
X009095Y005349D01*
X009095Y005394D01*
X009140Y005439D01*
X009230Y005439D01*
X009275Y005394D01*
X009275Y005304D01*
X009230Y005259D01*
X009005Y005259D02*
X009005Y005439D01*
X004684Y005545D02*
X003800Y005545D01*
X003825Y005445D02*
X003960Y005445D01*
X004005Y005400D01*
X004005Y005310D01*
X003960Y005265D01*
X003825Y005265D01*
X003825Y005175D02*
X003825Y005445D01*
X003494Y005400D02*
X003449Y005445D01*
X003314Y005445D01*
X003314Y005175D01*
X003449Y005175D01*
X003494Y005220D01*
X003494Y005400D01*
X003200Y005445D02*
X003200Y005175D01*
X003020Y005445D01*
X003020Y005175D01*
X002905Y005220D02*
X002905Y005310D01*
X002815Y005310D01*
X002725Y005220D02*
X002770Y005175D01*
X002860Y005175D01*
X002905Y005220D01*
X002725Y005220D02*
X002725Y005400D01*
X002770Y005445D01*
X002860Y005445D01*
X002905Y005400D01*
X002400Y005445D02*
X002400Y005265D01*
X002310Y005175D01*
X002220Y005265D01*
X002220Y005445D01*
X002105Y005445D02*
X001925Y005445D01*
X001925Y005310D01*
X002015Y005355D01*
X002060Y005355D01*
X002105Y005310D01*
X002105Y005220D01*
X002060Y005175D01*
X001970Y005175D01*
X001925Y005220D01*
X003915Y005265D02*
X004005Y005175D01*
X004120Y005220D02*
X004165Y005175D01*
X004255Y005175D01*
X004300Y005220D01*
X004300Y005265D01*
X004255Y005310D01*
X004165Y005310D01*
X004120Y005355D01*
X004120Y005400D01*
X004165Y005445D01*
X004255Y005445D01*
X004300Y005400D01*
X004414Y005445D02*
X004594Y005445D01*
X004504Y005445D02*
X004504Y005175D01*
X014005Y004805D02*
X014005Y004715D01*
X014050Y004670D01*
X014050Y004555D02*
X014140Y004555D01*
X014185Y004510D01*
X014185Y004375D01*
X014275Y004375D02*
X014005Y004375D01*
X014005Y004510D01*
X014050Y004555D01*
X014230Y004670D02*
X014275Y004715D01*
X014275Y004805D01*
X014230Y004850D01*
X014185Y004850D01*
X014140Y004805D01*
X014140Y004760D01*
X014140Y004805D02*
X014095Y004850D01*
X014050Y004850D01*
X014005Y004805D01*
D12*
X008616Y005303D02*
X008616Y005337D01*
X008583Y005370D01*
X008483Y005370D01*
X008483Y005303D01*
X008516Y005270D01*
X008583Y005270D01*
X008616Y005303D01*
X008483Y005370D02*
X008550Y005437D01*
X008616Y005470D01*
X008174Y005437D02*
X008174Y005403D01*
X008141Y005370D01*
X008174Y005337D01*
X008174Y005303D01*
X008141Y005270D01*
X008074Y005270D01*
X008041Y005303D01*
X008108Y005370D02*
X008141Y005370D01*
X008174Y005437D02*
X008141Y005470D01*
X008074Y005470D01*
X008041Y005437D01*
X007953Y005437D02*
X007953Y005370D01*
X007920Y005337D01*
X007820Y005337D01*
X007820Y005270D02*
X007820Y005470D01*
X007920Y005470D01*
X007953Y005437D01*
X007616Y005437D02*
X007483Y005303D01*
X007483Y005270D01*
X007395Y005237D02*
X007262Y005237D01*
X007174Y005303D02*
X007141Y005270D01*
X007074Y005270D01*
X007041Y005303D01*
X007108Y005370D02*
X007141Y005370D01*
X007174Y005337D01*
X007174Y005303D01*
X007141Y005370D02*
X007174Y005403D01*
X007174Y005437D01*
X007141Y005470D01*
X007074Y005470D01*
X007041Y005437D01*
X006953Y005437D02*
X006953Y005370D01*
X006920Y005337D01*
X006820Y005337D01*
X006820Y005270D02*
X006820Y005470D01*
X006920Y005470D01*
X006953Y005437D01*
X006616Y005437D02*
X006583Y005470D01*
X006516Y005470D01*
X006483Y005437D01*
X006616Y005437D02*
X006616Y005403D01*
X006483Y005270D01*
X006616Y005270D01*
X006395Y005237D02*
X006262Y005237D01*
X006174Y005303D02*
X006141Y005270D01*
X006074Y005270D01*
X006041Y005303D01*
X006108Y005370D02*
X006141Y005370D01*
X006174Y005337D01*
X006174Y005303D01*
X006141Y005370D02*
X006174Y005403D01*
X006174Y005437D01*
X006141Y005470D01*
X006074Y005470D01*
X006041Y005437D01*
X005953Y005437D02*
X005953Y005370D01*
X005920Y005337D01*
X005820Y005337D01*
X005820Y005270D02*
X005820Y005470D01*
X005920Y005470D01*
X005953Y005437D01*
X005616Y005437D02*
X005583Y005470D01*
X005516Y005470D01*
X005483Y005437D01*
X005550Y005370D02*
X005583Y005370D01*
X005616Y005337D01*
X005616Y005303D01*
X005583Y005270D01*
X005516Y005270D01*
X005483Y005303D01*
X005395Y005237D02*
X005262Y005237D01*
X005174Y005303D02*
X005141Y005270D01*
X005074Y005270D01*
X005041Y005303D01*
X005108Y005370D02*
X005141Y005370D01*
X005174Y005337D01*
X005174Y005303D01*
X005141Y005370D02*
X005174Y005403D01*
X005174Y005437D01*
X005141Y005470D01*
X005074Y005470D01*
X005041Y005437D01*
X004953Y005437D02*
X004953Y005370D01*
X004920Y005337D01*
X004820Y005337D01*
X004820Y005270D02*
X004820Y005470D01*
X004920Y005470D01*
X004953Y005437D01*
X005583Y005370D02*
X005616Y005403D01*
X005616Y005437D01*
X007483Y005470D02*
X007616Y005470D01*
X007616Y005437D01*
X008262Y005237D02*
X008395Y005237D01*
D13*
X008450Y005650D02*
X007950Y005650D01*
X007700Y005900D01*
X007700Y006400D01*
X007450Y006650D01*
X006950Y006650D01*
X006700Y006400D01*
X006450Y006650D01*
X005950Y006650D01*
X005700Y006400D01*
X005450Y006650D01*
X004950Y006650D01*
X004700Y006400D01*
X004450Y006650D01*
X003950Y006650D01*
X003700Y006400D01*
X003450Y006650D01*
X002950Y006650D01*
X002700Y006400D01*
X002450Y006650D01*
X001950Y006650D01*
X001700Y006400D01*
X001700Y005900D01*
X001950Y005650D01*
X002450Y005650D01*
X002700Y005900D01*
X002950Y005650D01*
X003450Y005650D01*
X003700Y005900D01*
X003950Y005650D01*
X004450Y005650D01*
X004700Y005900D01*
X004950Y005650D01*
X005450Y005650D01*
X005700Y005900D01*
X005950Y005650D01*
X006450Y005650D01*
X006700Y005900D01*
X006950Y005650D01*
X007450Y005650D01*
X007700Y005900D01*
X007700Y006400D01*
X007950Y006650D01*
X008450Y006650D01*
X008700Y006400D01*
X008950Y006650D01*
X009450Y006650D01*
X009700Y006400D01*
X009950Y006650D01*
X010450Y006650D01*
X010700Y006400D01*
X010950Y006650D01*
X011450Y006650D01*
X011700Y006400D01*
X011950Y006650D01*
X012450Y006650D01*
X012700Y006400D01*
X012950Y006650D01*
X013450Y006650D01*
X013700Y006400D01*
X013950Y006650D01*
X014450Y006650D01*
X014700Y006400D01*
X014950Y006650D01*
X015450Y006650D01*
X015700Y006400D01*
X015700Y005900D01*
X015450Y005650D01*
X014950Y005650D01*
X014700Y005900D01*
X014450Y005650D01*
X013950Y005650D01*
X013700Y005900D01*
X013450Y005650D01*
X012950Y005650D01*
X012700Y005900D01*
X012450Y005650D01*
X011950Y005650D01*
X011700Y005900D01*
X011450Y005650D01*
X010950Y005650D01*
X010700Y005900D01*
X010450Y005650D01*
X009950Y005650D01*
X009700Y005900D01*
X009450Y005650D01*
X008950Y005650D01*
X008700Y005900D01*
X008450Y005650D01*
X005894Y005022D02*
X005894Y004195D01*
X005894Y005022D02*
X001681Y005022D01*
X001681Y001478D01*
X003768Y001478D01*
X005618Y001478D02*
X005894Y001478D01*
X005894Y002305D01*
X008240Y002281D02*
X008240Y002619D01*
X009360Y002619D02*
X009360Y002281D01*
X008906Y002131D02*
X008694Y002131D01*
X008450Y001150D02*
X007950Y001150D01*
X007700Y000900D01*
X007450Y001150D01*
X006950Y001150D01*
X006700Y000900D01*
X006450Y001150D01*
X005950Y001150D01*
X005700Y000900D01*
X005700Y000400D01*
X005950Y000150D01*
X006450Y000150D01*
X006700Y000400D01*
X006950Y000150D01*
X007450Y000150D01*
X007700Y000400D01*
X007950Y000150D01*
X008450Y000150D01*
X008700Y000400D01*
X008950Y000150D01*
X009450Y000150D01*
X009700Y000400D01*
X009950Y000150D01*
X010450Y000150D01*
X010700Y000400D01*
X010950Y000150D01*
X011450Y000150D01*
X011700Y000400D01*
X011950Y000150D01*
X012450Y000150D01*
X012700Y000400D01*
X012950Y000150D01*
X013450Y000150D01*
X013700Y000400D01*
X013700Y000900D01*
X013450Y001150D01*
X012950Y001150D01*
X012700Y000900D01*
X012450Y001150D01*
X011950Y001150D01*
X011700Y000900D01*
X011450Y001150D01*
X010950Y001150D01*
X010700Y000900D01*
X010450Y001150D01*
X009950Y001150D01*
X009700Y000900D01*
X009450Y001150D01*
X008950Y001150D01*
X008700Y000900D01*
X008450Y001150D01*
X012350Y001450D02*
X012850Y001450D01*
X012850Y002050D02*
X012350Y002050D01*
X014700Y001900D02*
X014700Y001400D01*
X014950Y001150D01*
X015450Y001150D01*
X015700Y001400D01*
X015950Y001150D01*
X016450Y001150D01*
X016700Y001400D01*
X016950Y001150D01*
X017450Y001150D01*
X017700Y001400D01*
X017950Y001150D01*
X018450Y001150D01*
X018700Y001400D01*
X018950Y001150D01*
X019450Y001150D01*
X019700Y001400D01*
X019950Y001150D01*
X020450Y001150D01*
X020700Y001400D01*
X020950Y001150D01*
X021450Y001150D01*
X021700Y001400D01*
X021950Y001150D01*
X022450Y001150D01*
X022700Y001400D01*
X022700Y001900D01*
X022450Y002150D01*
X021950Y002150D01*
X021700Y001900D01*
X021450Y002150D01*
X020950Y002150D01*
X020700Y001900D01*
X020450Y002150D01*
X019950Y002150D01*
X019700Y001900D01*
X019450Y002150D01*
X018950Y002150D01*
X018700Y001900D01*
X018450Y002150D01*
X017950Y002150D01*
X017700Y001900D01*
X017450Y002150D01*
X016950Y002150D01*
X016700Y001900D01*
X016450Y002150D01*
X015950Y002150D01*
X015700Y001900D01*
X015450Y002150D01*
X014950Y002150D01*
X014700Y001900D01*
X014950Y001150D02*
X014700Y000900D01*
X014700Y000400D01*
X014950Y000150D01*
X015450Y000150D01*
X015700Y000400D01*
X015950Y000150D01*
X016450Y000150D01*
X016700Y000400D01*
X016950Y000150D01*
X017450Y000150D01*
X017700Y000400D01*
X017950Y000150D01*
X018450Y000150D01*
X018700Y000400D01*
X018950Y000150D01*
X019450Y000150D01*
X019700Y000400D01*
X019950Y000150D01*
X020450Y000150D01*
X020700Y000400D01*
X020950Y000150D01*
X021450Y000150D01*
X021700Y000400D01*
X021950Y000150D01*
X022450Y000150D01*
X022700Y000400D01*
X022700Y000900D01*
X022450Y001150D01*
X021950Y001150D01*
X021700Y000900D01*
X021450Y001150D01*
X020950Y001150D01*
X020700Y000900D01*
X020450Y001150D01*
X019950Y001150D01*
X019700Y000900D01*
X019450Y001150D01*
X018950Y001150D01*
X018700Y000900D01*
X018450Y001150D01*
X017950Y001150D01*
X017700Y000900D01*
X017450Y001150D01*
X016950Y001150D01*
X016700Y000900D01*
X016450Y001150D01*
X015950Y001150D01*
X015700Y000900D01*
X015450Y001150D01*
X014950Y001150D01*
X015950Y005650D02*
X016450Y005650D01*
X016700Y005900D01*
X016950Y005650D01*
X017450Y005650D01*
X017700Y005900D01*
X017950Y005650D01*
X018450Y005650D01*
X018700Y005900D01*
X018950Y005650D01*
X019450Y005650D01*
X019700Y005900D01*
X019950Y005650D01*
X020450Y005650D01*
X020700Y005900D01*
X020950Y005650D01*
X021450Y005650D01*
X021700Y005900D01*
X021950Y005650D01*
X022450Y005650D01*
X022700Y005900D01*
X022950Y005650D01*
X023450Y005650D01*
X023700Y005900D01*
X023700Y006400D01*
X023450Y006650D01*
X022950Y006650D01*
X022700Y006400D01*
X022450Y006650D01*
X021950Y006650D01*
X021700Y006400D01*
X021450Y006650D01*
X020950Y006650D01*
X020700Y006400D01*
X020450Y006650D01*
X019950Y006650D01*
X019700Y006400D01*
X019450Y006650D01*
X018950Y006650D01*
X018700Y006400D01*
X018450Y006650D01*
X017950Y006650D01*
X017700Y006400D01*
X017450Y006650D01*
X016950Y006650D01*
X016700Y006400D01*
X016450Y006650D01*
X015950Y006650D01*
X015700Y006400D01*
X015700Y005900D01*
X015950Y005650D01*
D14*
X010308Y002820D02*
X010258Y002770D01*
X010210Y002795D02*
X010185Y002820D01*
X010135Y002820D01*
X010110Y002795D01*
X010110Y002695D01*
X010135Y002670D01*
X010185Y002670D01*
X010210Y002695D01*
X010258Y002670D02*
X010358Y002670D01*
X010308Y002670D02*
X010308Y002820D01*
X007452Y002405D02*
X007452Y002380D01*
X007427Y002355D01*
X007452Y002330D01*
X007452Y002305D01*
X007427Y002280D01*
X007377Y002280D01*
X007352Y002305D01*
X007305Y002305D02*
X007280Y002280D01*
X007230Y002280D01*
X007205Y002305D01*
X007205Y002405D01*
X007230Y002430D01*
X007280Y002430D01*
X007305Y002405D01*
X007352Y002405D02*
X007377Y002430D01*
X007427Y002430D01*
X007452Y002405D01*
X007427Y002355D02*
X007402Y002355D01*
X010110Y001595D02*
X010110Y001495D01*
X010135Y001470D01*
X010185Y001470D01*
X010210Y001495D01*
X010258Y001470D02*
X010358Y001570D01*
X010358Y001595D01*
X010333Y001620D01*
X010283Y001620D01*
X010258Y001595D01*
X010210Y001595D02*
X010185Y001620D01*
X010135Y001620D01*
X010110Y001595D01*
X010258Y001470D02*
X010358Y001470D01*
X012910Y001245D02*
X012910Y001095D01*
X012910Y001170D02*
X012960Y001170D01*
X013058Y001195D02*
X013108Y001245D01*
X013108Y001095D01*
X013058Y001095D02*
X013158Y001095D01*
X013010Y001245D02*
X012910Y001245D01*
X002655Y004338D02*
X002630Y004313D01*
X002655Y004338D02*
X002655Y004363D01*
X002630Y004388D01*
X002505Y004388D01*
X002505Y004363D02*
X002505Y004413D01*
X002505Y004460D02*
X002505Y004535D01*
X002530Y004560D01*
X002580Y004560D01*
X002605Y004535D01*
X002605Y004460D01*
X002655Y004460D02*
X002505Y004460D01*
X002580Y004608D02*
X002580Y004683D01*
X002605Y004708D01*
X002630Y004708D01*
X002655Y004683D01*
X002655Y004633D01*
X002630Y004608D01*
X002580Y004608D01*
X002530Y004658D01*
X002505Y004708D01*
D15*
X009982Y003386D02*
X010218Y003386D01*
X010218Y002914D02*
X009982Y002914D01*
X009982Y002186D02*
X010218Y002186D01*
X010218Y001714D02*
X009982Y001714D01*
X007618Y001714D02*
X007382Y001714D01*
X007382Y002186D02*
X007618Y002186D01*
D16*
X013316Y002364D03*
X013880Y002652D03*
X014132Y002652D03*
X014204Y002684D03*
X014292Y002964D03*
X014296Y002968D03*
X014176Y003000D03*
X014004Y003020D03*
X013836Y003000D03*
X013680Y003124D03*
X013680Y003128D03*
X013312Y003148D03*
X013312Y003152D03*
X013312Y003160D03*
X013312Y003164D03*
X013312Y003168D03*
X013312Y003172D03*
X013312Y003180D03*
X013312Y003184D03*
X013312Y003188D03*
X013312Y003192D03*
X013312Y003200D03*
X013312Y003204D03*
X013312Y003208D03*
X013312Y003212D03*
X013312Y003220D03*
X013312Y003224D03*
X013320Y003292D03*
X013324Y003320D03*
X014328Y003124D03*
X014328Y003120D03*
X014688Y003064D03*
X014688Y003060D03*
X014692Y003080D03*
X014692Y003084D03*
X014692Y003088D03*
X014692Y003092D03*
X014696Y003120D03*
X014696Y003124D03*
X014696Y003128D03*
X014696Y003132D03*
X014696Y003240D03*
X014696Y003244D03*
X014696Y003248D03*
X014696Y003252D03*
X014692Y003280D03*
X014692Y003284D03*
X014692Y003288D03*
X014692Y003292D03*
X014688Y003308D03*
X014688Y003312D03*
X014400Y003368D03*
X014152Y003708D03*
D17*
X014152Y003704D03*
X014656Y003428D03*
X014660Y003412D03*
X014664Y003404D03*
X014668Y003392D03*
X014668Y003388D03*
X014672Y003380D03*
X014676Y003364D03*
X014680Y003348D03*
X014324Y003132D03*
X014176Y003112D03*
X014004Y003108D03*
X013688Y003140D03*
X014004Y003012D03*
X014656Y002944D03*
X014664Y002968D03*
X014668Y002980D03*
X014668Y002984D03*
X014672Y002992D03*
X014680Y003024D03*
X013616Y003372D03*
X013360Y003440D03*
X013356Y003432D03*
X013356Y003428D03*
X013352Y003420D03*
X013348Y003412D03*
X013348Y003408D03*
X013348Y003404D03*
X013344Y003400D03*
X013344Y003392D03*
X013340Y003384D03*
X013340Y003380D03*
X013316Y003100D03*
X013316Y003092D03*
X013316Y003088D03*
X013316Y003084D03*
X013316Y003080D03*
X013316Y002740D03*
X013316Y002732D03*
X013316Y002728D03*
X013316Y002724D03*
X013316Y002720D03*
X013316Y002712D03*
X013316Y002708D03*
X013316Y002704D03*
X013316Y002700D03*
X013316Y002692D03*
X013316Y002688D03*
X013316Y002684D03*
X013316Y002680D03*
X013316Y002672D03*
X013316Y002668D03*
X013316Y002664D03*
X013316Y002660D03*
X013316Y002652D03*
X013316Y002648D03*
X013316Y002644D03*
X013316Y002640D03*
X013316Y002632D03*
X013316Y002628D03*
X013316Y002624D03*
X013316Y002620D03*
X013316Y002612D03*
X013316Y002608D03*
X013316Y002604D03*
X013316Y002600D03*
X013316Y002592D03*
X013316Y002588D03*
X013316Y002584D03*
X013316Y002580D03*
X013316Y002572D03*
X013316Y002568D03*
X013316Y002564D03*
X013316Y002560D03*
X013316Y002552D03*
X013316Y002548D03*
X013316Y002544D03*
X013316Y002540D03*
X013316Y002532D03*
X013316Y002528D03*
X013316Y002524D03*
X013316Y002520D03*
X013316Y002512D03*
X013316Y002508D03*
X013316Y002504D03*
X013316Y002500D03*
X013316Y002492D03*
X013316Y002488D03*
X013316Y002484D03*
X013316Y002480D03*
X013316Y002472D03*
X013316Y002468D03*
X013316Y002464D03*
X013316Y002460D03*
X013316Y002452D03*
X013316Y002448D03*
X013316Y002444D03*
X013316Y002440D03*
X013316Y002432D03*
X013316Y002428D03*
X013316Y002424D03*
X013316Y002420D03*
X013316Y002412D03*
X013316Y002408D03*
X013316Y002404D03*
X013316Y002400D03*
X013316Y002392D03*
X013316Y002388D03*
X013316Y002384D03*
X013316Y002380D03*
X013316Y002372D03*
X013316Y002368D03*
D18*
X013316Y002376D03*
X013316Y002396D03*
X013316Y002416D03*
X013316Y002436D03*
X013316Y002456D03*
X013316Y002476D03*
X013316Y002496D03*
X013316Y002516D03*
X013316Y002536D03*
X013316Y002556D03*
X013316Y002576D03*
X013316Y002596D03*
X013316Y002616D03*
X013316Y002636D03*
X013316Y002656D03*
X013316Y002676D03*
X013316Y002696D03*
X013316Y002716D03*
X013316Y002736D03*
X013828Y002676D03*
X013872Y002656D03*
X013724Y002956D03*
X013316Y003096D03*
X014284Y002956D03*
X014660Y002956D03*
X014668Y002976D03*
X014672Y002996D03*
X014324Y003136D03*
X014672Y003376D03*
X014668Y003396D03*
X014660Y003416D03*
X013344Y003396D03*
D19*
X013644Y003412D03*
X013880Y003108D03*
X013836Y003068D03*
X013836Y003064D03*
X013836Y003044D03*
X013880Y003008D03*
X013884Y003012D03*
X013784Y003012D03*
X013784Y003104D03*
X013464Y003088D03*
X013456Y003064D03*
X014128Y003104D03*
X014176Y003064D03*
X014176Y003060D03*
X014176Y003052D03*
X014128Y003012D03*
X014176Y002980D03*
X014552Y003072D03*
X013964Y002612D03*
X014008Y002428D03*
D20*
X014008Y002432D03*
X014528Y002732D03*
X014536Y002740D03*
X014540Y002744D03*
X014416Y002872D03*
X014412Y002868D03*
X014408Y002864D03*
X014000Y003128D03*
X013628Y003364D03*
X013460Y003612D03*
X013468Y003620D03*
X013824Y003632D03*
X013856Y003704D03*
X014004Y003640D03*
X014152Y003688D03*
X014536Y003628D03*
X014540Y003624D03*
X014544Y003620D03*
X014552Y003608D03*
X014556Y003604D03*
X014004Y003940D03*
X013332Y002968D03*
X013332Y002964D03*
X013332Y002960D03*
X013600Y002868D03*
X013604Y002864D03*
X013476Y002740D03*
D21*
X014004Y002756D03*
X014004Y002436D03*
D22*
X014008Y002440D03*
X013384Y002784D03*
D23*
X014004Y002772D03*
X014008Y002444D03*
D24*
X014008Y002448D03*
X013724Y003324D03*
D25*
X014004Y002788D03*
X014004Y002452D03*
D26*
X014004Y002456D03*
D27*
X014008Y002460D03*
X014004Y002808D03*
D28*
X014008Y002464D03*
X014004Y003908D03*
D29*
X014004Y003904D03*
X014008Y003444D03*
X014004Y002824D03*
X014008Y002468D03*
D30*
X014006Y002472D03*
D31*
X014004Y002476D03*
D32*
X014006Y002480D03*
X014006Y002860D03*
D33*
X014006Y002868D03*
X014006Y002484D03*
X014006Y003572D03*
D34*
X014008Y003544D03*
X014008Y003540D03*
X014004Y002880D03*
X014008Y002488D03*
D35*
X014006Y002492D03*
X014006Y002888D03*
X014010Y003520D03*
X014010Y003524D03*
X014006Y003880D03*
D36*
X014006Y003876D03*
X014010Y003496D03*
X014006Y002496D03*
D37*
X014006Y002500D03*
D38*
X014006Y002504D03*
X014006Y002928D03*
X014006Y003268D03*
D39*
X014006Y002944D03*
X014006Y002508D03*
D40*
X014006Y002512D03*
D41*
X014006Y002516D03*
D42*
X014004Y002520D03*
D43*
X014008Y002524D03*
D44*
X014006Y002528D03*
X014006Y003204D03*
X014006Y003208D03*
X014006Y003844D03*
D45*
X014006Y002532D03*
D46*
X014006Y002536D03*
X014006Y003836D03*
D47*
X014006Y003832D03*
X014006Y003288D03*
X014006Y002540D03*
D48*
X014006Y002544D03*
X014006Y003292D03*
D49*
X014006Y003824D03*
X014006Y002548D03*
D50*
X014006Y002552D03*
D51*
X014004Y002556D03*
D52*
X013758Y002560D03*
X014254Y002560D03*
X014010Y003428D03*
D53*
X013744Y003808D03*
X014004Y003924D03*
X013740Y002564D03*
X014268Y002564D03*
D54*
X014290Y002568D03*
X013722Y002568D03*
X014294Y003800D03*
X014006Y003928D03*
D55*
X013400Y002752D03*
X013400Y002748D03*
X013712Y002572D03*
D56*
X013402Y002744D03*
X014298Y002572D03*
D57*
X014308Y002576D03*
X013700Y002576D03*
D58*
X013690Y002580D03*
X013390Y002772D03*
D59*
X013392Y002768D03*
X014320Y002580D03*
X014008Y003164D03*
X014012Y003420D03*
X013696Y003792D03*
D60*
X013386Y002780D03*
X013682Y002584D03*
X014330Y002584D03*
D61*
X014338Y002588D03*
X014346Y002592D03*
X013674Y002588D03*
X013382Y002788D03*
X013674Y003340D03*
X014158Y003584D03*
X014342Y003780D03*
X013666Y003780D03*
D62*
X013378Y002800D03*
X013666Y002592D03*
D63*
X013658Y002596D03*
X014354Y002596D03*
X014354Y003776D03*
D64*
X014362Y003772D03*
X014166Y003588D03*
X013650Y003772D03*
X013642Y003768D03*
X014006Y003160D03*
X013650Y002600D03*
X014362Y002600D03*
D65*
X013642Y002604D03*
X013370Y002820D03*
X013630Y003760D03*
X014374Y003764D03*
D66*
X013658Y003420D03*
X013982Y002604D03*
X014026Y002604D03*
D67*
X014368Y002604D03*
X013664Y003344D03*
X013636Y003764D03*
X014368Y003768D03*
D68*
X014380Y003760D03*
X013872Y003660D03*
X014352Y003340D03*
X013368Y002828D03*
X013368Y002824D03*
X013628Y002612D03*
X013636Y002608D03*
X014376Y002608D03*
D69*
X013974Y002608D03*
X014110Y003032D03*
X014106Y003040D03*
X014106Y003044D03*
X014106Y003048D03*
X014106Y003052D03*
X014106Y003060D03*
X014106Y003064D03*
X014106Y003068D03*
X014106Y003072D03*
X014110Y003080D03*
X014110Y003084D03*
X014174Y003164D03*
X014242Y003084D03*
X014242Y003080D03*
X014246Y003068D03*
X014246Y003064D03*
X014246Y003060D03*
X014246Y003052D03*
X014242Y003040D03*
X014238Y003028D03*
X013906Y003052D03*
X013906Y003060D03*
X013906Y003064D03*
X013902Y003080D03*
X013898Y003088D03*
X013902Y003044D03*
X013902Y003040D03*
X013770Y003032D03*
X013766Y003040D03*
X013766Y003044D03*
X013766Y003072D03*
X013770Y003084D03*
X014418Y003264D03*
X014154Y003740D03*
D70*
X014176Y003040D03*
X013836Y003040D03*
X014036Y002608D03*
D71*
X014046Y002612D03*
X014226Y003012D03*
X014226Y003104D03*
X013886Y003104D03*
X013846Y003752D03*
X014006Y003944D03*
D72*
X013618Y003752D03*
X013870Y003664D03*
X013842Y003592D03*
X014002Y002960D03*
X013366Y002832D03*
X014382Y002612D03*
D73*
X013620Y002616D03*
D74*
X013954Y002616D03*
X013498Y003156D03*
X013510Y003176D03*
X014498Y003176D03*
X014514Y003156D03*
D75*
X014524Y003136D03*
X014536Y003116D03*
X013484Y003136D03*
X013456Y003056D03*
X014056Y002616D03*
X014156Y003736D03*
D76*
X014386Y003756D03*
X014170Y003596D03*
X014390Y002616D03*
D77*
X014402Y002624D03*
X013614Y002620D03*
X013362Y002844D03*
X013362Y002848D03*
X013734Y003168D03*
X014170Y003600D03*
X014402Y003748D03*
X014406Y003744D03*
X013610Y003748D03*
D78*
X013628Y003400D03*
X013544Y003212D03*
X014324Y003040D03*
X014548Y003040D03*
X014468Y002964D03*
X014464Y002960D03*
X014448Y002944D03*
X014444Y002940D03*
X014428Y002928D03*
X014424Y002924D03*
X014424Y002824D03*
X014068Y002620D03*
X013944Y002620D03*
X013568Y002940D03*
X013564Y002944D03*
X014464Y003212D03*
X014468Y003208D03*
D79*
X013656Y003348D03*
X014392Y003752D03*
X014396Y002620D03*
D80*
X014408Y002628D03*
X014004Y002964D03*
X013360Y002852D03*
X013608Y002624D03*
X013604Y003744D03*
X014412Y003740D03*
D81*
X014450Y003224D03*
X014498Y002992D03*
X014494Y002988D03*
X014490Y002984D03*
X014486Y002980D03*
X014478Y002972D03*
X014410Y002812D03*
X014406Y002808D03*
X014402Y002804D03*
X014398Y002800D03*
X013934Y002624D03*
X013614Y002800D03*
X013610Y002804D03*
X013606Y002808D03*
X013546Y002960D03*
X013542Y002964D03*
X013538Y002968D03*
X013534Y002972D03*
X013526Y002980D03*
X013522Y002984D03*
X013518Y002988D03*
X013462Y003040D03*
X013554Y003220D03*
D82*
X013560Y003224D03*
X013504Y003000D03*
X013512Y002992D03*
X013836Y002984D03*
X014176Y002984D03*
X014508Y003000D03*
X014512Y003004D03*
X014176Y003132D03*
X014444Y003228D03*
X014388Y002792D03*
X014384Y002788D03*
X014372Y002780D03*
X014076Y002624D03*
X013632Y002784D03*
X013628Y002788D03*
X013624Y002792D03*
X014004Y003620D03*
X013848Y003744D03*
D83*
X013866Y003672D03*
X013598Y003740D03*
X014174Y003604D03*
X014362Y003344D03*
X014270Y003220D03*
X014006Y003152D03*
X013742Y003220D03*
X013358Y002860D03*
X013602Y002628D03*
X014414Y002632D03*
D84*
X013926Y002628D03*
X013666Y002844D03*
X013466Y003032D03*
X013566Y003228D03*
D85*
X013572Y003232D03*
X013676Y003032D03*
X013488Y003012D03*
X013656Y002768D03*
X013660Y002764D03*
X014084Y002628D03*
X014344Y002760D03*
X014348Y002764D03*
X014356Y002768D03*
X014360Y002772D03*
X014344Y002844D03*
X014532Y003020D03*
X014536Y003024D03*
X014540Y003028D03*
X014544Y003032D03*
X014404Y003384D03*
D86*
X013836Y003600D03*
X013588Y003732D03*
X013580Y003728D03*
X014144Y003660D03*
X014424Y003732D03*
X014428Y003728D03*
X013356Y002868D03*
X013356Y002864D03*
X013596Y002632D03*
D87*
X013678Y002752D03*
X013918Y002632D03*
X014334Y002752D03*
X014334Y003032D03*
X014174Y002988D03*
X013834Y002988D03*
X013678Y003020D03*
X013678Y003024D03*
X013678Y003028D03*
X013834Y003128D03*
X014018Y003412D03*
X013618Y003392D03*
X013614Y003388D03*
X014154Y003724D03*
D88*
X013612Y003384D03*
X014176Y003128D03*
X014332Y003028D03*
X014328Y003020D03*
X014324Y003012D03*
X014324Y003008D03*
X013692Y002992D03*
X013692Y002988D03*
X013668Y003072D03*
X013668Y003080D03*
X014408Y003380D03*
X014316Y002740D03*
X014300Y002732D03*
X014092Y002632D03*
X013716Y002728D03*
X013708Y002732D03*
X013696Y002740D03*
D89*
X013592Y002636D03*
X014420Y002636D03*
X013864Y003676D03*
X013592Y003736D03*
D90*
X013682Y003236D03*
X014338Y003076D03*
X013738Y002716D03*
X013910Y002636D03*
D91*
X014100Y002636D03*
X014272Y002716D03*
X013672Y003096D03*
X014408Y003376D03*
X013848Y003736D03*
D92*
X013646Y003352D03*
X014006Y002968D03*
X013586Y002640D03*
X014426Y002640D03*
X014430Y002644D03*
D93*
X013900Y002640D03*
X013756Y002708D03*
X014312Y002988D03*
X014336Y003092D03*
X013676Y003104D03*
X013676Y003108D03*
D94*
X013674Y003100D03*
X013834Y003124D03*
X013834Y002992D03*
X014314Y002992D03*
X014318Y003000D03*
X014334Y003088D03*
X014258Y002708D03*
X014110Y002640D03*
X013746Y002712D03*
D95*
X013580Y002644D03*
X013576Y002648D03*
X013352Y002880D03*
X014004Y003148D03*
X014368Y003348D03*
X014440Y003720D03*
X014144Y003664D03*
X013864Y003680D03*
X013568Y003720D03*
X014436Y002648D03*
D96*
X014242Y002700D03*
X014118Y002644D03*
X013894Y002644D03*
X014306Y002980D03*
X014334Y003100D03*
X014334Y003104D03*
X014334Y003108D03*
X014006Y003088D03*
X014006Y003084D03*
X013834Y003120D03*
X013678Y003112D03*
X014406Y003372D03*
X013850Y003732D03*
D97*
X014006Y003092D03*
X013806Y002684D03*
X013886Y002648D03*
D98*
X013788Y002692D03*
X014124Y002648D03*
X014224Y002692D03*
X013712Y002964D03*
X014004Y003032D03*
X014004Y003080D03*
X014176Y003120D03*
X014332Y003112D03*
X014316Y003232D03*
X014400Y003248D03*
X014300Y002972D03*
X014152Y003712D03*
D99*
X014178Y003612D03*
X014450Y003712D03*
X013830Y003608D03*
X013558Y003712D03*
X014002Y003144D03*
X013350Y002884D03*
X013570Y002652D03*
X014442Y002652D03*
D100*
X013564Y002656D03*
X013348Y002896D03*
X013640Y003356D03*
X014016Y003416D03*
D101*
X014678Y003356D03*
X014694Y003276D03*
X014698Y003216D03*
X014698Y003196D03*
X014698Y003176D03*
X014698Y003156D03*
X014694Y003096D03*
X014678Y003016D03*
X014138Y002656D03*
X013314Y003116D03*
X013314Y003136D03*
X013314Y003236D03*
X013314Y003256D03*
X013318Y003276D03*
X013334Y003356D03*
X013338Y003376D03*
D102*
X014446Y003716D03*
X014446Y002656D03*
D103*
X014452Y002660D03*
X014456Y002664D03*
X013560Y002660D03*
X013348Y002888D03*
X013348Y002892D03*
X014004Y003140D03*
X014000Y003652D03*
X013860Y003684D03*
X013556Y003708D03*
X014456Y003708D03*
X014460Y003704D03*
X014464Y003700D03*
D104*
X014154Y003700D03*
X014002Y003632D03*
X013854Y003720D03*
X013374Y003472D03*
X013370Y003464D03*
X013370Y003460D03*
X013366Y003452D03*
X013362Y003448D03*
X013362Y003444D03*
X013354Y003424D03*
X014006Y003112D03*
X014322Y003140D03*
X014666Y002972D03*
X014662Y002964D03*
X014662Y002960D03*
X014658Y002952D03*
X014658Y002948D03*
X014654Y002940D03*
X014650Y002932D03*
X014650Y002928D03*
X014646Y002924D03*
X014646Y002920D03*
X014642Y002912D03*
X014638Y002900D03*
X014006Y002744D03*
X013866Y002660D03*
X013858Y002664D03*
X014146Y002660D03*
X013318Y003052D03*
X013318Y003060D03*
X013318Y003064D03*
X013318Y003068D03*
X013318Y003072D03*
X014634Y003480D03*
X014642Y003460D03*
X014646Y003452D03*
X014646Y003448D03*
X014650Y003444D03*
X014650Y003440D03*
X014654Y003432D03*
X014658Y003424D03*
X014658Y003420D03*
X014662Y003408D03*
X014666Y003400D03*
D105*
X014474Y003692D03*
X014146Y003672D03*
X013830Y003612D03*
X013550Y003704D03*
X013546Y003700D03*
X013346Y002904D03*
X013346Y002900D03*
X014006Y002752D03*
X013554Y002664D03*
X013550Y002668D03*
X014462Y002668D03*
X014466Y002672D03*
D106*
X014152Y002664D03*
X013840Y002672D03*
X014624Y002872D03*
X014628Y002880D03*
X014632Y002884D03*
X014632Y002888D03*
X014640Y002904D03*
X014640Y002908D03*
X014004Y003004D03*
X014004Y003008D03*
X013692Y003144D03*
X013320Y003048D03*
X013320Y003044D03*
X013320Y003040D03*
X013372Y003468D03*
X013380Y003484D03*
X013380Y003488D03*
X013384Y003492D03*
X013388Y003500D03*
X013392Y003508D03*
X013820Y003652D03*
X014184Y003652D03*
X014624Y003500D03*
X014628Y003492D03*
X014628Y003488D03*
X014632Y003484D03*
X014640Y003468D03*
X014640Y003464D03*
D107*
X014622Y003504D03*
X014618Y003508D03*
X014618Y003512D03*
X014610Y003520D03*
X014610Y003524D03*
X014606Y003528D03*
X014606Y003532D03*
X014394Y003244D03*
X014302Y003228D03*
X014318Y003144D03*
X013694Y003148D03*
X013618Y003244D03*
X013390Y003504D03*
X013394Y003512D03*
X013398Y003520D03*
X013402Y003524D03*
X013402Y003528D03*
X013406Y003532D03*
X013322Y003032D03*
X013322Y003028D03*
X013322Y003024D03*
X013322Y003020D03*
X013734Y002952D03*
X014602Y002832D03*
X014606Y002840D03*
X014610Y002848D03*
X014614Y002852D03*
X014618Y002860D03*
X014618Y002864D03*
X014622Y002868D03*
X014170Y002672D03*
X014158Y002668D03*
X013850Y002668D03*
D108*
X013544Y002672D03*
X013344Y002908D03*
X013344Y002912D03*
X013528Y003684D03*
D109*
X013540Y002676D03*
X014472Y002676D03*
D110*
X014182Y002676D03*
X014654Y002936D03*
X013318Y003056D03*
X013318Y003076D03*
X013350Y003416D03*
X013358Y003436D03*
X013366Y003456D03*
X014654Y003436D03*
D111*
X014180Y003620D03*
X014000Y003648D03*
X013860Y003688D03*
X013536Y003692D03*
X013532Y003688D03*
X014476Y003688D03*
X014480Y002684D03*
X014476Y002680D03*
X013536Y002680D03*
D112*
X013818Y002680D03*
X014194Y002680D03*
X014674Y003000D03*
X014674Y003004D03*
X014678Y003008D03*
X014678Y003012D03*
X014678Y003020D03*
X014694Y003100D03*
X014694Y003104D03*
X014694Y003108D03*
X014694Y003112D03*
X014698Y003140D03*
X014698Y003144D03*
X014698Y003148D03*
X014698Y003152D03*
X014698Y003160D03*
X014698Y003164D03*
X014698Y003168D03*
X014698Y003172D03*
X014698Y003180D03*
X014698Y003184D03*
X014698Y003188D03*
X014698Y003192D03*
X014698Y003200D03*
X014698Y003204D03*
X014698Y003208D03*
X014698Y003212D03*
X014698Y003220D03*
X014698Y003224D03*
X014698Y003228D03*
X014698Y003232D03*
X014694Y003260D03*
X014694Y003264D03*
X014694Y003268D03*
X014694Y003272D03*
X014678Y003352D03*
X014678Y003360D03*
X014674Y003368D03*
X014674Y003372D03*
X013834Y003112D03*
X013314Y003112D03*
X013314Y003108D03*
X013314Y003104D03*
X013314Y003120D03*
X013314Y003124D03*
X013314Y003128D03*
X013314Y003132D03*
X013314Y003140D03*
X013314Y003144D03*
X013314Y003228D03*
X013314Y003232D03*
X013314Y003240D03*
X013314Y003244D03*
X013314Y003248D03*
X013314Y003252D03*
X013314Y003260D03*
X013314Y003264D03*
X013318Y003268D03*
X013318Y003272D03*
X013318Y003280D03*
X013318Y003284D03*
X013318Y003288D03*
X013334Y003360D03*
X013334Y003364D03*
X013334Y003368D03*
X013338Y003372D03*
D113*
X013826Y003620D03*
X013858Y003692D03*
X013522Y003680D03*
X013514Y003672D03*
X014482Y003684D03*
X014486Y003680D03*
X014378Y003352D03*
X013342Y002920D03*
X013522Y002692D03*
X013526Y002688D03*
X013530Y002684D03*
D114*
X013798Y002688D03*
X014214Y002688D03*
X013718Y002960D03*
X014002Y003024D03*
X014002Y003028D03*
X013678Y003120D03*
X013694Y003232D03*
X013610Y003248D03*
X014002Y003628D03*
X013850Y003728D03*
D115*
X013512Y003668D03*
X014180Y003624D03*
X014500Y003668D03*
X014504Y003664D03*
X014008Y002980D03*
X013340Y002928D03*
X013340Y002924D03*
X014484Y002688D03*
X014488Y002692D03*
D116*
X013516Y002696D03*
D117*
X013778Y002696D03*
X013834Y002996D03*
X014334Y003096D03*
D118*
X014304Y002976D03*
X014176Y002996D03*
X013680Y003116D03*
X013612Y003376D03*
X014232Y002696D03*
D119*
X014492Y002696D03*
X014004Y003136D03*
X014492Y003676D03*
D120*
X014506Y003660D03*
X014514Y003652D03*
X014518Y003648D03*
X014182Y003628D03*
X014150Y003680D03*
X014002Y003644D03*
X013826Y003624D03*
X013506Y003664D03*
X013502Y003660D03*
X013722Y003224D03*
X014290Y003224D03*
X014302Y003160D03*
X013338Y002932D03*
X013502Y002712D03*
X013506Y002708D03*
X013510Y002704D03*
X013514Y002700D03*
X014498Y002700D03*
X014502Y002704D03*
X014506Y002708D03*
X014510Y002712D03*
D121*
X014248Y002704D03*
X013768Y002700D03*
X013764Y002704D03*
X013708Y002968D03*
X013704Y002972D03*
X014308Y002984D03*
D122*
X014320Y003004D03*
X013672Y003092D03*
X013612Y003380D03*
X014004Y003624D03*
X014152Y003720D03*
X014264Y002712D03*
D123*
X013498Y002716D03*
X013338Y002936D03*
X013498Y003656D03*
X013858Y003696D03*
X014510Y003656D03*
D124*
X014384Y003356D03*
X014400Y002856D03*
X014512Y002716D03*
D125*
X014516Y002720D03*
X014520Y002724D03*
X014396Y002852D03*
X014392Y002848D03*
X014004Y003132D03*
X013708Y003164D03*
X013336Y002948D03*
X013336Y002944D03*
X013336Y002940D03*
X013616Y002852D03*
X013492Y002724D03*
X013496Y002720D03*
X013484Y003640D03*
X013488Y003644D03*
X013492Y003648D03*
X013496Y003652D03*
X013824Y003628D03*
X014180Y003632D03*
D126*
X014406Y003252D03*
X013670Y003088D03*
X013670Y003084D03*
X013694Y002984D03*
X013698Y002980D03*
X013722Y002724D03*
X013730Y002720D03*
X014282Y002720D03*
X014286Y002724D03*
X014294Y002728D03*
X013606Y003252D03*
D127*
X013626Y003240D03*
X014006Y002984D03*
X014402Y002860D03*
X014526Y002728D03*
X013606Y002860D03*
X013482Y002732D03*
X013486Y002728D03*
X014386Y003240D03*
X014526Y003640D03*
X014522Y003644D03*
X014150Y003684D03*
X013470Y003624D03*
D128*
X013464Y003616D03*
X014548Y003616D03*
X014548Y002756D03*
X014532Y002736D03*
X013480Y002736D03*
D129*
X013702Y002736D03*
D130*
X014308Y002736D03*
X014328Y003016D03*
X013688Y002996D03*
X013668Y003076D03*
X014328Y003236D03*
D131*
X014416Y003260D03*
X014508Y003164D03*
X014516Y003152D03*
X014520Y003144D03*
X014524Y003140D03*
X014528Y003132D03*
X014532Y003124D03*
X014540Y003104D03*
X014552Y003052D03*
X014132Y003008D03*
X014332Y002840D03*
X014004Y002740D03*
X013472Y003108D03*
X013484Y003132D03*
X013488Y003140D03*
X013492Y003148D03*
X013500Y003160D03*
X013508Y003172D03*
X013636Y003408D03*
X014384Y003404D03*
D132*
X013846Y003740D03*
X013682Y003012D03*
X013682Y003008D03*
X013686Y003004D03*
X013686Y003000D03*
X014330Y003024D03*
X013666Y002760D03*
X013682Y002748D03*
X013690Y002744D03*
X014322Y002744D03*
X014326Y002748D03*
D133*
X014546Y002752D03*
X014006Y002748D03*
X013586Y002880D03*
X014006Y002988D03*
X013446Y003592D03*
D134*
X013442Y003588D03*
X013454Y003604D03*
X013458Y003608D03*
X014182Y003640D03*
X014550Y003612D03*
X014558Y003600D03*
X013702Y003160D03*
X013330Y002980D03*
X013330Y002972D03*
X013594Y002872D03*
X014542Y002748D03*
X014550Y002760D03*
X014554Y002764D03*
X014558Y002768D03*
D135*
X013398Y002756D03*
X013706Y003796D03*
D136*
X013580Y003236D03*
X013672Y003036D03*
X013680Y003016D03*
X013644Y002776D03*
X013672Y002756D03*
X014432Y003236D03*
D137*
X014334Y003036D03*
X014338Y002756D03*
D138*
X014004Y002768D03*
X013396Y002760D03*
X013692Y003332D03*
D139*
X013848Y003584D03*
X014004Y002760D03*
X013376Y002804D03*
D140*
X013394Y002764D03*
X014314Y003792D03*
D141*
X014328Y003788D03*
X013684Y003788D03*
X013860Y003580D03*
X014152Y003580D03*
X014004Y002764D03*
D142*
X013650Y002772D03*
X013638Y002780D03*
X013498Y003004D03*
X013494Y003008D03*
X013478Y003020D03*
X013474Y003024D03*
X013470Y003028D03*
X013834Y003132D03*
X014438Y003232D03*
X014402Y003388D03*
X014398Y003392D03*
X014154Y003728D03*
X014522Y003012D03*
X014518Y003008D03*
X014378Y002784D03*
D143*
X014424Y002880D03*
X014428Y002884D03*
X014572Y002788D03*
X014576Y002792D03*
X014584Y002804D03*
X014568Y002780D03*
X014560Y002772D03*
X014004Y002992D03*
X014312Y003152D03*
X013584Y002884D03*
X013328Y002984D03*
X013328Y002988D03*
X013436Y003580D03*
X013440Y003584D03*
X013452Y003600D03*
X014564Y003592D03*
X014568Y003588D03*
X014572Y003584D03*
D144*
X013684Y003336D03*
X013388Y002776D03*
D145*
X014006Y002776D03*
D146*
X014366Y002776D03*
X014526Y003016D03*
X014546Y003036D03*
D147*
X013700Y003156D03*
X014564Y002776D03*
X013448Y003596D03*
D148*
X014266Y003808D03*
X014290Y003320D03*
X014006Y003244D03*
X014006Y002780D03*
D149*
X014006Y002784D03*
D150*
X014570Y002784D03*
X014582Y002800D03*
X014586Y002808D03*
X014590Y002812D03*
X014594Y002820D03*
X014598Y002824D03*
X014314Y003148D03*
X014002Y003124D03*
X013698Y003152D03*
X013326Y003000D03*
X013326Y002992D03*
X014390Y003360D03*
X014594Y003552D03*
X014586Y003564D03*
X014582Y003568D03*
X014582Y003572D03*
X014574Y003580D03*
X014182Y003644D03*
X014154Y003692D03*
X013854Y003708D03*
X013822Y003644D03*
X013822Y003640D03*
X013430Y003572D03*
X013426Y003568D03*
X013426Y003564D03*
X013422Y003560D03*
X013418Y003552D03*
D151*
X014004Y003932D03*
X013380Y002792D03*
D152*
X014006Y002792D03*
X014010Y003432D03*
D153*
X013660Y003776D03*
X013380Y002796D03*
D154*
X013618Y002796D03*
X013550Y002956D03*
X013530Y002976D03*
X014482Y002976D03*
D155*
X014006Y002796D03*
X014006Y003916D03*
D156*
X014068Y003656D03*
X013624Y003396D03*
X013600Y003256D03*
X013464Y003036D03*
X013508Y002996D03*
X014392Y002796D03*
X014504Y002996D03*
X014412Y003256D03*
D157*
X014578Y003576D03*
X014002Y003636D03*
X013434Y003576D03*
X013326Y002996D03*
X014578Y002796D03*
D158*
X014004Y002800D03*
D159*
X014006Y002804D03*
D160*
X013374Y002808D03*
X013374Y002812D03*
D161*
X013592Y002820D03*
X013600Y002812D03*
X013580Y002928D03*
X013576Y002932D03*
X013560Y002948D03*
X013556Y002952D03*
X013540Y003208D03*
X014456Y003220D03*
X014472Y002968D03*
X014456Y002952D03*
X014452Y002948D03*
X014420Y002920D03*
X014420Y002820D03*
X014156Y003732D03*
D162*
X014006Y002812D03*
D163*
X013372Y002816D03*
D164*
X013596Y002816D03*
X013572Y002936D03*
X014416Y002916D03*
X014460Y002956D03*
X014416Y002816D03*
X014460Y003216D03*
X014392Y003396D03*
D165*
X014004Y002816D03*
D166*
X014592Y002816D03*
X014592Y003556D03*
X013420Y003556D03*
D167*
X014006Y002820D03*
D168*
X014402Y002904D03*
X014406Y002908D03*
X014410Y002912D03*
X014434Y002932D03*
X014442Y002840D03*
X014434Y002832D03*
X014430Y002828D03*
X014550Y003044D03*
X014478Y003200D03*
X014474Y003204D03*
X013602Y002908D03*
X013598Y002912D03*
X013590Y002920D03*
X013586Y002924D03*
X013578Y002832D03*
X013582Y002828D03*
X013586Y002824D03*
X013462Y003044D03*
X013522Y003188D03*
X013526Y003192D03*
X013534Y003200D03*
X013538Y003204D03*
D169*
X014006Y002828D03*
D170*
X014600Y002828D03*
X014600Y003540D03*
X014600Y003544D03*
X014596Y003548D03*
X013852Y003712D03*
X013820Y003648D03*
X013416Y003548D03*
X013412Y003544D03*
X013412Y003540D03*
D171*
X014006Y003900D03*
X014006Y002832D03*
D172*
X013364Y002836D03*
X014004Y003156D03*
D173*
X013834Y003136D03*
X013530Y003196D03*
X013594Y002916D03*
X013574Y002836D03*
X014438Y002836D03*
X014438Y002936D03*
D174*
X014006Y002836D03*
D175*
X014004Y002996D03*
X014604Y002836D03*
X013324Y003016D03*
X013408Y003536D03*
D176*
X013868Y003668D03*
X013364Y002840D03*
D177*
X013564Y002844D03*
X013564Y002848D03*
X013568Y002840D03*
X013612Y002900D03*
X013608Y002904D03*
X013624Y002892D03*
X013628Y002888D03*
X013868Y003004D03*
X013460Y003048D03*
X014140Y003004D03*
X014212Y003004D03*
X014552Y003048D03*
X014388Y002892D03*
X014384Y002888D03*
X014444Y002844D03*
X014388Y003400D03*
X013632Y003404D03*
X013848Y003748D03*
D178*
X013598Y003260D03*
X013518Y003184D03*
X013514Y003180D03*
X013506Y003168D03*
X013502Y003164D03*
X013494Y003152D03*
X013490Y003144D03*
X013458Y003052D03*
X013798Y003004D03*
X013678Y002840D03*
X014502Y003172D03*
X014506Y003168D03*
X014510Y003160D03*
X014518Y003148D03*
X014494Y003184D03*
X014490Y003188D03*
X014486Y003192D03*
D179*
X014006Y002840D03*
D180*
X014006Y002844D03*
D181*
X014004Y003000D03*
X014004Y003120D03*
X013708Y003228D03*
X013624Y003368D03*
X014184Y003648D03*
X014588Y003560D03*
X013324Y003012D03*
X013324Y003008D03*
X013324Y003004D03*
X014608Y002844D03*
D182*
X014176Y002992D03*
X014336Y003080D03*
X014336Y003084D03*
X014176Y003124D03*
X013656Y002848D03*
D183*
X014006Y002848D03*
D184*
X014006Y002852D03*
D185*
X013358Y002856D03*
X014418Y003736D03*
X014006Y003936D03*
D186*
X014182Y003636D03*
X014530Y003636D03*
X013482Y003636D03*
X013610Y002856D03*
D187*
X014006Y002856D03*
D188*
X014614Y002856D03*
X014626Y002876D03*
X014614Y003516D03*
X014602Y003536D03*
X014154Y003696D03*
X013398Y003516D03*
D189*
X014006Y002864D03*
D190*
X013354Y002872D03*
X013834Y003604D03*
X013574Y003724D03*
X014174Y003608D03*
X014434Y003724D03*
D191*
X014002Y003460D03*
X014006Y003260D03*
X014006Y002872D03*
D192*
X013352Y002876D03*
X013564Y003716D03*
D193*
X013822Y003636D03*
X014562Y003596D03*
X014310Y003156D03*
X014418Y002876D03*
X013590Y002876D03*
X013330Y002976D03*
D194*
X014004Y002876D03*
X014008Y003556D03*
D195*
X014006Y002884D03*
D196*
X013510Y002888D03*
X014502Y002888D03*
D197*
X014004Y002892D03*
D198*
X014636Y002892D03*
X014396Y003364D03*
X014636Y003472D03*
X013376Y003480D03*
D199*
X014484Y003196D03*
X014392Y002896D03*
X013620Y002896D03*
D200*
X014006Y002896D03*
D201*
X014636Y002896D03*
X014636Y003476D03*
X013376Y003476D03*
D202*
X014010Y003488D03*
X014010Y003492D03*
X014006Y002900D03*
D203*
X014396Y002900D03*
X014496Y003180D03*
D204*
X014006Y002904D03*
X014006Y003472D03*
X014010Y003480D03*
X014010Y003484D03*
D205*
X014004Y002908D03*
D206*
X014006Y002912D03*
X014006Y003872D03*
D207*
X014150Y003676D03*
X013518Y003676D03*
X013342Y002916D03*
D208*
X014006Y002916D03*
D209*
X014004Y003116D03*
X014644Y002916D03*
X013320Y003036D03*
X013384Y003496D03*
X013852Y003716D03*
X014184Y003656D03*
X014624Y003496D03*
X014644Y003456D03*
D210*
X014004Y002920D03*
D211*
X014004Y002924D03*
D212*
X014004Y002932D03*
D213*
X014006Y002936D03*
D214*
X014004Y002940D03*
D215*
X014004Y002948D03*
D216*
X013334Y002952D03*
X013474Y003628D03*
X013478Y003632D03*
X013858Y003700D03*
X014534Y003632D03*
D217*
X014106Y002952D03*
D218*
X013334Y002956D03*
D219*
X014008Y002956D03*
X014344Y003336D03*
D220*
X014670Y003384D03*
X014682Y003344D03*
X014682Y003340D03*
X014682Y003332D03*
X014686Y003328D03*
X014686Y003324D03*
X014686Y003320D03*
X014690Y003304D03*
X014690Y003300D03*
X014326Y003128D03*
X014006Y003104D03*
X014006Y003100D03*
X013682Y003132D03*
X013322Y003300D03*
X013322Y003304D03*
X013322Y003308D03*
X013322Y003312D03*
X013326Y003324D03*
X013326Y003328D03*
X013326Y003332D03*
X013330Y003340D03*
X013330Y003344D03*
X013330Y003348D03*
X013330Y003352D03*
X013342Y003388D03*
X013850Y003724D03*
X014690Y003072D03*
X014690Y003068D03*
X014686Y003052D03*
X014686Y003048D03*
X014686Y003044D03*
X014682Y003040D03*
X014682Y003032D03*
X014682Y003028D03*
X014670Y002988D03*
X014290Y002960D03*
D221*
X014006Y002972D03*
X014146Y003668D03*
D222*
X013702Y002976D03*
D223*
X013832Y002976D03*
X014176Y002976D03*
D224*
X014006Y002976D03*
X014178Y003616D03*
X014470Y003696D03*
X013542Y003696D03*
D225*
X014378Y003408D03*
X014534Y003120D03*
X014538Y003112D03*
X014538Y003108D03*
X014554Y003068D03*
X014554Y003064D03*
X014554Y003060D03*
X014218Y003108D03*
X013838Y003060D03*
X013834Y003052D03*
X013834Y003048D03*
X013834Y002980D03*
X013458Y003060D03*
X013458Y003068D03*
X013458Y003072D03*
X013474Y003112D03*
X013478Y003120D03*
X013478Y003124D03*
D226*
X014316Y002996D03*
D227*
X014222Y003008D03*
X014546Y003084D03*
X014546Y003088D03*
X014546Y003092D03*
X014542Y003100D03*
X014550Y003080D03*
X014530Y003128D03*
X014130Y003108D03*
X013790Y003108D03*
X013482Y003128D03*
X013470Y003104D03*
X013470Y003100D03*
X013466Y003092D03*
X013462Y003084D03*
X013462Y003080D03*
X013790Y003008D03*
D228*
X013482Y003016D03*
D229*
X013782Y003016D03*
X013890Y003016D03*
X014122Y003016D03*
X014118Y003096D03*
X014234Y003096D03*
X014230Y003016D03*
D230*
X014002Y003016D03*
X013686Y003136D03*
X013322Y003296D03*
X013326Y003336D03*
X014682Y003336D03*
X014686Y003316D03*
X014690Y003296D03*
X014682Y003036D03*
D231*
X014230Y003100D03*
X014178Y003068D03*
X014174Y003048D03*
X014118Y003020D03*
X014122Y003100D03*
X013890Y003100D03*
X013778Y003020D03*
X013774Y003024D03*
D232*
X013772Y003028D03*
X013772Y003088D03*
X013772Y003092D03*
X013780Y003100D03*
X013836Y003072D03*
X013896Y003092D03*
X013900Y003084D03*
X013900Y003032D03*
X013896Y003028D03*
X013896Y003024D03*
X013892Y003020D03*
X014112Y003028D03*
X014116Y003024D03*
X014176Y003044D03*
X014176Y003072D03*
X014236Y003092D03*
X014240Y003088D03*
X014240Y003032D03*
X014236Y003024D03*
X014232Y003020D03*
X014116Y003092D03*
X014112Y003088D03*
X013596Y003264D03*
X014372Y003412D03*
D233*
X013650Y003416D03*
X013766Y003076D03*
X013770Y003036D03*
X013902Y003036D03*
X013906Y003056D03*
X013902Y003076D03*
X014106Y003056D03*
X014110Y003036D03*
X014178Y003076D03*
X014246Y003056D03*
X014242Y003036D03*
D234*
X013834Y003036D03*
D235*
X013984Y003036D03*
D236*
X014006Y003036D03*
D237*
X014036Y003036D03*
X014176Y003056D03*
X013460Y003076D03*
D238*
X014378Y003040D03*
X013662Y003424D03*
D239*
X013768Y003080D03*
X013764Y003068D03*
X013764Y003064D03*
X013764Y003060D03*
X013764Y003052D03*
X013764Y003048D03*
X013904Y003048D03*
X013904Y003068D03*
X013904Y003072D03*
X014244Y003072D03*
X014244Y003048D03*
X014244Y003044D03*
D240*
X014244Y003076D03*
X013764Y003056D03*
X014364Y003416D03*
X014008Y003616D03*
D241*
X013474Y003116D03*
X013834Y003056D03*
X014554Y003056D03*
D242*
X014688Y003056D03*
X014692Y003076D03*
X014696Y003116D03*
X014696Y003136D03*
X014696Y003236D03*
X014696Y003256D03*
X014176Y003116D03*
X014008Y003096D03*
X013312Y003156D03*
X013312Y003176D03*
X013312Y003196D03*
X013312Y003216D03*
X013324Y003316D03*
D243*
X013708Y003068D03*
D244*
X014380Y003072D03*
X014420Y003268D03*
X014360Y003420D03*
D245*
X013838Y003076D03*
D246*
X014004Y003076D03*
D247*
X014108Y003076D03*
X013892Y003096D03*
X013776Y003096D03*
D248*
X013466Y003096D03*
X014542Y003096D03*
X014550Y003076D03*
D249*
X014176Y003080D03*
X014176Y003140D03*
D250*
X014330Y003116D03*
X013834Y003116D03*
D251*
X014176Y003136D03*
D252*
X013832Y003140D03*
X013592Y003268D03*
D253*
X013636Y003360D03*
X014296Y003164D03*
X014496Y003672D03*
D254*
X014004Y003452D03*
X014120Y003168D03*
D255*
X014004Y003172D03*
X014004Y003180D03*
X014004Y003840D03*
D256*
X014004Y003176D03*
D257*
X014006Y003184D03*
X014006Y003188D03*
X014006Y003192D03*
D258*
X014006Y003196D03*
D259*
X014004Y003200D03*
D260*
X014004Y003212D03*
D261*
X013548Y003216D03*
D262*
X013766Y003216D03*
D263*
X014244Y003216D03*
D264*
X014006Y003236D03*
D265*
X014006Y003240D03*
X013846Y003588D03*
X014166Y003592D03*
D266*
X014006Y003248D03*
D267*
X014006Y003252D03*
D268*
X014006Y003256D03*
X014006Y003896D03*
D269*
X014008Y003264D03*
D270*
X014006Y003272D03*
D271*
X014006Y003276D03*
D272*
X014006Y003280D03*
D273*
X014008Y003284D03*
D274*
X014006Y003296D03*
D275*
X014006Y003300D03*
D276*
X014006Y003304D03*
D277*
X014006Y003308D03*
D278*
X014006Y003312D03*
D279*
X013776Y003316D03*
D280*
X014256Y003316D03*
D281*
X013740Y003320D03*
X014004Y003920D03*
D282*
X014304Y003324D03*
D283*
X013706Y003328D03*
D284*
X014322Y003328D03*
D285*
X014332Y003332D03*
X014336Y003784D03*
X013676Y003784D03*
D286*
X014014Y003424D03*
D287*
X014008Y003436D03*
D288*
X014006Y003440D03*
D289*
X014004Y003448D03*
D290*
X014002Y003456D03*
D291*
X013998Y003464D03*
D292*
X014004Y003468D03*
X014008Y003500D03*
X014008Y003504D03*
D293*
X014010Y003476D03*
D294*
X014010Y003508D03*
X014010Y003512D03*
D295*
X014008Y003516D03*
D296*
X014008Y003528D03*
X014008Y003532D03*
D297*
X014010Y003536D03*
D298*
X014008Y003548D03*
X014008Y003552D03*
X014008Y003560D03*
D299*
X014008Y003564D03*
X014008Y003568D03*
D300*
X014008Y003576D03*
D301*
X013838Y003596D03*
D302*
X013828Y003616D03*
D303*
X013874Y003656D03*
D304*
X014152Y003716D03*
D305*
X013624Y003756D03*
D306*
X014304Y003796D03*
D307*
X013716Y003800D03*
D308*
X013732Y003804D03*
X014280Y003804D03*
D309*
X014246Y003812D03*
X013762Y003812D03*
D310*
X014006Y003816D03*
D311*
X014004Y003820D03*
D312*
X014004Y003828D03*
D313*
X014006Y003848D03*
D314*
X014006Y003852D03*
D315*
X014004Y003856D03*
D316*
X014004Y003860D03*
D317*
X014006Y003864D03*
D318*
X014006Y003868D03*
D319*
X014006Y003884D03*
D320*
X014004Y003888D03*
D321*
X014004Y003892D03*
D322*
X014004Y003912D03*
M02*
