%
M48
M72
T01C0.0140
T02C0.0400
T03C0.1180
%
T01
X6500Y1950
X11200Y1950
X12600Y2350
X10200Y3850
X15200Y3850
X16200Y4150
X18200Y4450
X19200Y4750
X21200Y5050
X22200Y5350
T02
X22200Y6150
X21200Y6150
X20200Y6150
X19200Y6150
X18200Y6150
X17200Y6150
X16200Y6150
X15200Y6150
X14200Y6150
X13200Y6150
X12200Y6150
X11200Y6150
X10200Y6150
X9200Y6150
X8200Y6150
X7200Y6150
X6200Y6150
X5200Y6150
X4200Y6150
X3200Y6150
X2200Y6150
X15200Y1650
X16200Y1650
X17200Y1650
X18200Y1650
X19200Y1650
X20200Y1650
X21200Y1650
X22200Y1650
X22200Y650
X21200Y650
X20200Y650
X19200Y650
X18200Y650
X17200Y650
X16200Y650
X15200Y650
X13200Y650
X12200Y650
X11200Y650
X10200Y650
X9200Y650
X8200Y650
X7200Y650
X6200Y650
X23200Y6150
T03
X4713Y1400
X5894Y3250
X3531Y3250
M30
