%
M48
M72
T01C0.0140
T02C0.0400
%
T01
X1750Y2350
X4950Y2350
X4950Y4350
X8250Y5250
T02
X650Y650
X1650Y650
X2650Y650
X3650Y650
X4650Y650
X5650Y650
X6650Y650
X7650Y650
X8650Y650
X9650Y650
X10650Y650
X11650Y650
X12650Y650
X13650Y650
X14650Y650
X15650Y650
X16650Y650
X17650Y650
X18650Y650
X19650Y650
X20650Y650
X21650Y650
X18650Y6150
X17650Y6150
X16650Y6150
X15650Y6150
X14650Y6150
X13650Y6150
X12650Y6150
X11650Y6150
X10150Y6150
X9150Y6150
X8150Y6150
X7150Y6150
X6150Y6150
X5150Y6150
X4150Y6150
X3150Y6150
X2150Y6150
X1150Y6150
M30
