G75*
%MOIN*%
%OFA0B0*%
%FSLAX24Y24*%
%IPPOS*%
%LPD*%
%AMOC8*
5,1,8,0,0,1.08239X$1,22.5*
%
%ADD10C,0.0030*%
%ADD11C,0.0000*%
%ADD12C,0.0080*%
%ADD13R,0.0128X0.0004*%
%ADD14R,0.0136X0.0004*%
%ADD15R,0.0136X0.0004*%
%ADD16R,0.0048X0.0004*%
%ADD17R,0.0168X0.0004*%
%ADD18R,0.0224X0.0004*%
%ADD19R,0.0272X0.0004*%
%ADD20R,0.0312X0.0004*%
%ADD21R,0.0352X0.0004*%
%ADD22R,0.0384X0.0004*%
%ADD23R,0.0408X0.0004*%
%ADD24R,0.0440X0.0004*%
%ADD25R,0.0464X0.0004*%
%ADD26R,0.0488X0.0004*%
%ADD27R,0.0516X0.0004*%
%ADD28R,0.0544X0.0004*%
%ADD29R,0.0564X0.0004*%
%ADD30R,0.0580X0.0004*%
%ADD31R,0.0600X0.0004*%
%ADD32R,0.0612X0.0004*%
%ADD33R,0.0628X0.0004*%
%ADD34R,0.0652X0.0004*%
%ADD35R,0.0668X0.0004*%
%ADD36R,0.0684X0.0004*%
%ADD37R,0.0700X0.0004*%
%ADD38R,0.0716X0.0004*%
%ADD39R,0.0728X0.0004*%
%ADD40R,0.0744X0.0004*%
%ADD41R,0.0756X0.0004*%
%ADD42R,0.0772X0.0004*%
%ADD43R,0.0780X0.0004*%
%ADD44R,0.0796X0.0004*%
%ADD45R,0.0812X0.0004*%
%ADD46R,0.0820X0.0004*%
%ADD47R,0.0836X0.0004*%
%ADD48R,0.0848X0.0004*%
%ADD49R,0.0364X0.0004*%
%ADD50R,0.0344X0.0004*%
%ADD51R,0.0316X0.0004*%
%ADD52R,0.0304X0.0004*%
%ADD53R,0.0308X0.0004*%
%ADD54R,0.0296X0.0004*%
%ADD55R,0.0284X0.0004*%
%ADD56R,0.0288X0.0004*%
%ADD57R,0.0276X0.0004*%
%ADD58R,0.0268X0.0004*%
%ADD59R,0.0260X0.0004*%
%ADD60R,0.0260X0.0004*%
%ADD61R,0.0252X0.0004*%
%ADD62R,0.0244X0.0004*%
%ADD63R,0.0020X0.0004*%
%ADD64R,0.0248X0.0004*%
%ADD65R,0.0240X0.0004*%
%ADD66R,0.0036X0.0004*%
%ADD67R,0.0032X0.0004*%
%ADD68R,0.0044X0.0004*%
%ADD69R,0.0236X0.0004*%
%ADD70R,0.0232X0.0004*%
%ADD71R,0.0060X0.0004*%
%ADD72R,0.0056X0.0004*%
%ADD73R,0.0236X0.0004*%
%ADD74R,0.0228X0.0004*%
%ADD75R,0.0072X0.0004*%
%ADD76R,0.0232X0.0004*%
%ADD77R,0.0224X0.0004*%
%ADD78R,0.0076X0.0004*%
%ADD79R,0.0080X0.0004*%
%ADD80R,0.0220X0.0004*%
%ADD81R,0.0084X0.0004*%
%ADD82R,0.0088X0.0004*%
%ADD83R,0.0216X0.0004*%
%ADD84R,0.0092X0.0004*%
%ADD85R,0.0096X0.0004*%
%ADD86R,0.0216X0.0004*%
%ADD87R,0.0100X0.0004*%
%ADD88R,0.0104X0.0004*%
%ADD89R,0.0212X0.0004*%
%ADD90R,0.0112X0.0004*%
%ADD91R,0.0108X0.0004*%
%ADD92R,0.0208X0.0004*%
%ADD93R,0.0116X0.0004*%
%ADD94R,0.0124X0.0004*%
%ADD95R,0.0120X0.0004*%
%ADD96R,0.0204X0.0004*%
%ADD97R,0.0200X0.0004*%
%ADD98R,0.0132X0.0004*%
%ADD99R,0.0204X0.0004*%
%ADD100R,0.0200X0.0004*%
%ADD101R,0.0140X0.0004*%
%ADD102R,0.0196X0.0004*%
%ADD103R,0.0144X0.0004*%
%ADD104R,0.0148X0.0004*%
%ADD105R,0.0192X0.0004*%
%ADD106R,0.0192X0.0004*%
%ADD107R,0.0140X0.0004*%
%ADD108R,0.0192X0.0004*%
%ADD109R,0.0132X0.0004*%
%ADD110R,0.0188X0.0004*%
%ADD111R,0.0124X0.0004*%
%ADD112R,0.0184X0.0004*%
%ADD113R,0.0184X0.0004*%
%ADD114R,0.0116X0.0004*%
%ADD115R,0.0120X0.0004*%
%ADD116R,0.0184X0.0004*%
%ADD117R,0.0180X0.0004*%
%ADD118R,0.0112X0.0004*%
%ADD119R,0.0104X0.0004*%
%ADD120R,0.0180X0.0004*%
%ADD121R,0.0176X0.0004*%
%ADD122R,0.0176X0.0004*%
%ADD123R,0.0100X0.0004*%
%ADD124R,0.0172X0.0004*%
%ADD125R,0.0168X0.0004*%
%ADD126R,0.0092X0.0004*%
%ADD127R,0.0096X0.0004*%
%ADD128R,0.0056X0.0004*%
%ADD129R,0.0092X0.0004*%
%ADD130R,0.0164X0.0004*%
%ADD131R,0.0164X0.0004*%
%ADD132R,0.0300X0.0004*%
%ADD133R,0.0088X0.0004*%
%ADD134R,0.0092X0.0004*%
%ADD135R,0.0296X0.0004*%
%ADD136R,0.0256X0.0004*%
%ADD137R,0.0292X0.0004*%
%ADD138R,0.0280X0.0004*%
%ADD139R,0.0084X0.0004*%
%ADD140R,0.0160X0.0004*%
%ADD141R,0.0280X0.0004*%
%ADD142R,0.0332X0.0004*%
%ADD143R,0.0084X0.0004*%
%ADD144R,0.0160X0.0004*%
%ADD145R,0.0348X0.0004*%
%ADD146R,0.0364X0.0004*%
%ADD147R,0.0156X0.0004*%
%ADD148R,0.0264X0.0004*%
%ADD149R,0.0396X0.0004*%
%ADD150R,0.0264X0.0004*%
%ADD151R,0.0076X0.0004*%
%ADD152R,0.0404X0.0004*%
%ADD153R,0.0080X0.0004*%
%ADD154R,0.0156X0.0004*%
%ADD155R,0.0416X0.0004*%
%ADD156R,0.0428X0.0004*%
%ADD157R,0.0252X0.0004*%
%ADD158R,0.0072X0.0004*%
%ADD159R,0.0452X0.0004*%
%ADD160R,0.0248X0.0004*%
%ADD161R,0.0072X0.0004*%
%ADD162R,0.0464X0.0004*%
%ADD163R,0.0152X0.0004*%
%ADD164R,0.0476X0.0004*%
%ADD165R,0.0068X0.0004*%
%ADD166R,0.0500X0.0004*%
%ADD167R,0.0152X0.0004*%
%ADD168R,0.0508X0.0004*%
%ADD169R,0.0232X0.0004*%
%ADD170R,0.0068X0.0004*%
%ADD171R,0.0516X0.0004*%
%ADD172R,0.0152X0.0004*%
%ADD173R,0.0232X0.0004*%
%ADD174R,0.0064X0.0004*%
%ADD175R,0.0060X0.0004*%
%ADD176R,0.0524X0.0004*%
%ADD177R,0.0532X0.0004*%
%ADD178R,0.0152X0.0004*%
%ADD179R,0.0104X0.0004*%
%ADD180R,0.0540X0.0004*%
%ADD181R,0.0548X0.0004*%
%ADD182R,0.0220X0.0004*%
%ADD183R,0.0172X0.0004*%
%ADD184R,0.0556X0.0004*%
%ADD185R,0.0148X0.0004*%
%ADD186R,0.0572X0.0004*%
%ADD187R,0.0212X0.0004*%
%ADD188R,0.0588X0.0004*%
%ADD189R,0.0208X0.0004*%
%ADD190R,0.0164X0.0004*%
%ADD191R,0.0592X0.0004*%
%ADD192R,0.0604X0.0004*%
%ADD193R,0.0012X0.0004*%
%ADD194R,0.0616X0.0004*%
%ADD195R,0.0144X0.0004*%
%ADD196R,0.0064X0.0004*%
%ADD197R,0.0620X0.0004*%
%ADD198R,0.0144X0.0004*%
%ADD199R,0.0628X0.0004*%
%ADD200R,0.0064X0.0004*%
%ADD201R,0.0636X0.0004*%
%ADD202R,0.0640X0.0004*%
%ADD203R,0.0644X0.0004*%
%ADD204R,0.0188X0.0004*%
%ADD205R,0.0652X0.0004*%
%ADD206R,0.0144X0.0004*%
%ADD207R,0.0656X0.0004*%
%ADD208R,0.0664X0.0004*%
%ADD209R,0.0672X0.0004*%
%ADD210R,0.0676X0.0004*%
%ADD211R,0.0680X0.0004*%
%ADD212R,0.0688X0.0004*%
%ADD213R,0.0172X0.0004*%
%ADD214R,0.0492X0.0004*%
%ADD215R,0.0172X0.0004*%
%ADD216R,0.0256X0.0004*%
%ADD217R,0.0132X0.0004*%
%ADD218R,0.0204X0.0004*%
%ADD219R,0.0108X0.0004*%
%ADD220R,0.0008X0.0004*%
%ADD221R,0.0196X0.0004*%
%ADD222R,0.0052X0.0004*%
%ADD223R,0.0104X0.0004*%
%ADD224R,0.0052X0.0004*%
%ADD225R,0.0084X0.0004*%
%ADD226R,0.0044X0.0004*%
%ADD227R,0.0132X0.0004*%
%ADD228R,0.0044X0.0004*%
%ADD229R,0.0040X0.0004*%
%ADD230R,0.0036X0.0004*%
%ADD231R,0.0020X0.0004*%
%ADD232R,0.0016X0.0004*%
%ADD233R,0.0004X0.0004*%
%ADD234R,0.0048X0.0004*%
%ADD235R,0.0004X0.0004*%
%ADD236R,0.0032X0.0004*%
%ADD237R,0.0032X0.0004*%
%ADD238R,0.0052X0.0004*%
%ADD239R,0.0128X0.0004*%
%ADD240R,0.0008X0.0004*%
%ADD241R,0.0016X0.0004*%
%ADD242R,0.0028X0.0004*%
%ADD243R,0.0112X0.0004*%
%ADD244R,0.0040X0.0004*%
%ADD245R,0.0052X0.0004*%
%ADD246R,0.0024X0.0004*%
%ADD247R,0.0124X0.0004*%
%ADD248R,0.0064X0.0004*%
%ADD249R,0.0024X0.0004*%
%ADD250R,0.0184X0.0004*%
%ADD251R,0.0536X0.0004*%
%ADD252R,0.0768X0.0004*%
%ADD253R,0.0768X0.0004*%
%ADD254R,0.0764X0.0004*%
%ADD255R,0.0764X0.0004*%
%ADD256R,0.0760X0.0004*%
%ADD257R,0.0752X0.0004*%
%ADD258R,0.0072X0.0004*%
%ADD259R,0.0276X0.0004*%
%ADD260R,0.0272X0.0004*%
%ADD261R,0.0044X0.0004*%
%ADD262R,0.0244X0.0004*%
%ADD263R,0.0420X0.0004*%
%ADD264R,0.0484X0.0004*%
%ADD265R,0.0532X0.0004*%
%ADD266R,0.0632X0.0004*%
%ADD267R,0.0692X0.0004*%
%ADD268R,0.0724X0.0004*%
%ADD269R,0.0748X0.0004*%
%ADD270R,0.0784X0.0004*%
%ADD271R,0.0836X0.0004*%
%ADD272R,0.0852X0.0004*%
%ADD273R,0.0868X0.0004*%
%ADD274R,0.0876X0.0004*%
%ADD275R,0.0884X0.0004*%
%ADD276R,0.0432X0.0004*%
%ADD277R,0.0400X0.0004*%
%ADD278R,0.0376X0.0004*%
%ADD279R,0.0320X0.0004*%
%ADD280R,0.0324X0.0004*%
%ADD281R,0.0292X0.0004*%
%ADD282R,0.0272X0.0004*%
%ADD283R,0.0332X0.0004*%
%ADD284R,0.0432X0.0004*%
%ADD285R,0.0468X0.0004*%
%ADD286R,0.0512X0.0004*%
%ADD287R,0.0564X0.0004*%
%ADD288R,0.0612X0.0004*%
%ADD289R,0.0624X0.0004*%
%ADD290R,0.0636X0.0004*%
%ADD291R,0.0620X0.0004*%
%ADD292R,0.0616X0.0004*%
%ADD293R,0.0608X0.0004*%
%ADD294R,0.0604X0.0004*%
%ADD295R,0.0592X0.0004*%
%ADD296R,0.0584X0.0004*%
%ADD297R,0.0576X0.0004*%
%ADD298R,0.0228X0.0004*%
%ADD299R,0.0192X0.0004*%
%ADD300R,0.0252X0.0004*%
%ADD301R,0.0112X0.0004*%
%ADD302R,0.0240X0.0004*%
%ADD303R,0.0304X0.0004*%
%ADD304R,0.0312X0.0004*%
%ADD305R,0.0328X0.0004*%
%ADD306R,0.0372X0.0004*%
%ADD307R,0.0844X0.0004*%
%ADD308R,0.0832X0.0004*%
%ADD309R,0.0808X0.0004*%
%ADD310R,0.0740X0.0004*%
%ADD311R,0.0724X0.0004*%
%ADD312R,0.0712X0.0004*%
%ADD313R,0.0696X0.0004*%
%ADD314R,0.0676X0.0004*%
%ADD315R,0.0660X0.0004*%
%ADD316R,0.0596X0.0004*%
%ADD317R,0.0576X0.0004*%
%ADD318R,0.0552X0.0004*%
%ADD319R,0.0432X0.0004*%
%ADD320C,0.0060*%
%ADD321C,0.0040*%
D10*
X000545Y001265D02*
X000545Y001410D01*
X000593Y001458D01*
X000690Y001458D01*
X000738Y001410D01*
X000738Y001265D01*
X000835Y001265D02*
X000545Y001265D01*
X000690Y001560D02*
X000690Y001753D01*
X000835Y001705D02*
X000545Y001705D01*
X000690Y001560D01*
X001445Y001705D02*
X001590Y001560D01*
X001590Y001753D01*
X001735Y001705D02*
X001445Y001705D01*
X001783Y001854D02*
X001783Y002048D01*
X001735Y002149D02*
X001735Y002342D01*
X001735Y002246D02*
X001445Y002246D01*
X001542Y002149D01*
X000883Y002048D02*
X000883Y001854D01*
X000787Y002149D02*
X000593Y002149D01*
X000545Y002197D01*
X000545Y002294D01*
X000593Y002342D01*
X000787Y002149D01*
X000835Y002197D01*
X000835Y002294D01*
X000787Y002342D01*
X000593Y002342D01*
X001042Y002865D02*
X000945Y002962D01*
X000993Y003061D02*
X001042Y003061D01*
X001090Y003110D01*
X001090Y003207D01*
X001138Y003255D01*
X001187Y003255D01*
X001235Y003207D01*
X001235Y003110D01*
X001187Y003061D01*
X001235Y002962D02*
X001138Y002865D01*
X001042Y002865D01*
X000993Y003061D02*
X000945Y003110D01*
X000945Y003207D01*
X000993Y003255D01*
X000993Y003356D02*
X001187Y003356D01*
X001235Y003404D01*
X001235Y003501D01*
X001187Y003550D01*
X001235Y003651D02*
X000945Y003651D01*
X000993Y003550D02*
X000945Y003501D01*
X000945Y003404D01*
X000993Y003356D01*
X001235Y003651D02*
X001235Y003844D01*
X001235Y003945D02*
X001138Y004042D01*
X001042Y004042D01*
X000945Y003945D01*
X002045Y003945D02*
X002142Y004042D01*
X002238Y004042D01*
X002335Y003945D01*
X002335Y003844D02*
X002142Y003844D01*
X002045Y003747D01*
X002142Y003651D01*
X002335Y003651D01*
X002287Y003550D02*
X002093Y003550D01*
X002045Y003501D01*
X002045Y003356D01*
X002335Y003356D01*
X002335Y003501D01*
X002287Y003550D01*
X002190Y003651D02*
X002190Y003844D01*
X003145Y003839D02*
X003145Y003645D01*
X003435Y003645D01*
X003435Y003544D02*
X003435Y003351D01*
X003145Y003351D01*
X003145Y003544D01*
X003290Y003645D02*
X003290Y003742D01*
X003435Y003940D02*
X003338Y004037D01*
X003242Y004037D01*
X003145Y003940D01*
X004045Y003910D02*
X004045Y003813D01*
X004093Y003765D01*
X004287Y003765D01*
X004335Y003813D01*
X004335Y003910D01*
X004287Y003958D01*
X004190Y003958D01*
X004190Y003862D01*
X004093Y003958D02*
X004045Y003910D01*
X004045Y004060D02*
X004045Y004205D01*
X004093Y004253D01*
X004190Y004253D01*
X004238Y004205D01*
X004238Y004060D01*
X004238Y004156D02*
X004335Y004253D01*
X004287Y004354D02*
X004093Y004354D01*
X004045Y004403D01*
X004045Y004499D01*
X004093Y004548D01*
X004287Y004548D01*
X004335Y004499D01*
X004335Y004403D01*
X004287Y004354D01*
X005045Y004436D02*
X005045Y004582D01*
X005093Y004630D01*
X005190Y004630D01*
X005238Y004582D01*
X005238Y004436D01*
X005335Y004436D02*
X005045Y004436D01*
X004335Y004697D02*
X004287Y004649D01*
X004045Y004649D01*
X004335Y004697D02*
X004335Y004794D01*
X004287Y004842D01*
X004045Y004842D01*
X004045Y004944D02*
X004335Y005137D01*
X004045Y005137D01*
X004045Y005238D02*
X004045Y005383D01*
X004093Y005432D01*
X004287Y005432D01*
X004335Y005383D01*
X004335Y005238D01*
X004045Y005238D01*
X003483Y005214D02*
X003483Y005020D01*
X003435Y004919D02*
X003435Y004726D01*
X003435Y004823D02*
X003145Y004823D01*
X003242Y004726D01*
X003290Y004625D02*
X003338Y004576D01*
X003338Y004431D01*
X003435Y004431D02*
X003145Y004431D01*
X003145Y004576D01*
X003193Y004625D01*
X003290Y004625D01*
X004045Y004944D02*
X004335Y004944D01*
X005045Y004876D02*
X005045Y004780D01*
X005093Y004731D01*
X005287Y004731D01*
X005093Y004925D01*
X005287Y004925D01*
X005335Y004876D01*
X005335Y004780D01*
X005287Y004731D01*
X005093Y004925D02*
X005045Y004876D01*
X005383Y005026D02*
X005383Y005219D01*
X005287Y005320D02*
X005093Y005514D01*
X005287Y005514D01*
X005335Y005466D01*
X005335Y005369D01*
X005287Y005320D01*
X005093Y005320D01*
X005045Y005369D01*
X005045Y005466D01*
X005093Y005514D01*
X006045Y005414D02*
X006142Y005317D01*
X006335Y005317D02*
X006335Y005510D01*
X006335Y005414D02*
X006045Y005414D01*
X006383Y005216D02*
X006383Y005022D01*
X006287Y004921D02*
X006093Y004921D01*
X006287Y004728D01*
X006335Y004776D01*
X006335Y004873D01*
X006287Y004921D01*
X006093Y004921D02*
X006045Y004873D01*
X006045Y004776D01*
X006093Y004728D01*
X006287Y004728D01*
X006190Y004626D02*
X006238Y004578D01*
X006238Y004433D01*
X006335Y004433D02*
X006045Y004433D01*
X006045Y004578D01*
X006093Y004626D01*
X006190Y004626D01*
X007045Y004578D02*
X007045Y004433D01*
X007335Y004433D01*
X007238Y004433D02*
X007238Y004578D01*
X007190Y004626D01*
X007093Y004626D01*
X007045Y004578D01*
X007093Y004728D02*
X007045Y004776D01*
X007045Y004873D01*
X007093Y004921D01*
X007287Y004728D01*
X007335Y004776D01*
X007335Y004873D01*
X007287Y004921D01*
X007093Y004921D01*
X007383Y005022D02*
X007383Y005216D01*
X007335Y005317D02*
X007142Y005510D01*
X007093Y005510D01*
X007045Y005462D01*
X007045Y005365D01*
X007093Y005317D01*
X007335Y005317D02*
X007335Y005510D01*
X008045Y005471D02*
X008045Y005374D01*
X008093Y005326D01*
X008287Y005326D02*
X008335Y005374D01*
X008335Y005471D01*
X008287Y005519D01*
X008238Y005519D01*
X008190Y005471D01*
X008190Y005423D01*
X008190Y005471D02*
X008142Y005519D01*
X008093Y005519D01*
X008045Y005471D01*
X008383Y005225D02*
X008383Y005031D01*
X008287Y004930D02*
X008093Y004930D01*
X008287Y004736D01*
X008335Y004785D01*
X008335Y004882D01*
X008287Y004930D01*
X008093Y004930D02*
X008045Y004882D01*
X008045Y004785D01*
X008093Y004736D01*
X008287Y004736D01*
X008190Y004635D02*
X008238Y004587D01*
X008238Y004442D01*
X008335Y004442D02*
X008045Y004442D01*
X008045Y004587D01*
X008093Y004635D01*
X008190Y004635D01*
X007287Y004728D02*
X007093Y004728D01*
X007142Y004039D02*
X007045Y003942D01*
X007045Y003842D02*
X007045Y003745D01*
X007045Y003794D02*
X007335Y003794D01*
X007335Y003842D02*
X007335Y003745D01*
X007287Y003644D02*
X007335Y003596D01*
X007335Y003499D01*
X007287Y003451D01*
X007287Y003350D02*
X007093Y003350D01*
X007045Y003301D01*
X007045Y003204D01*
X007093Y003156D01*
X007287Y003156D01*
X007335Y003204D01*
X007335Y003301D01*
X007287Y003350D01*
X007142Y003451D02*
X007093Y003451D01*
X007045Y003499D01*
X007045Y003596D01*
X007093Y003644D01*
X007190Y003596D02*
X007238Y003644D01*
X007287Y003644D01*
X007190Y003596D02*
X007190Y003499D01*
X007142Y003451D01*
X006335Y003498D02*
X006335Y003401D01*
X006287Y003353D01*
X006190Y003401D02*
X006190Y003498D01*
X006238Y003546D01*
X006287Y003546D01*
X006335Y003498D01*
X006190Y003401D02*
X006142Y003353D01*
X006093Y003353D01*
X006045Y003401D01*
X006045Y003498D01*
X006093Y003546D01*
X006093Y003647D02*
X006287Y003647D01*
X006335Y003696D01*
X006335Y003792D01*
X006287Y003841D01*
X006093Y003841D01*
X006045Y003792D01*
X006045Y003696D01*
X006093Y003647D01*
X006045Y003942D02*
X006142Y004039D01*
X006238Y004039D01*
X006335Y003942D01*
X007142Y004039D02*
X007238Y004039D01*
X007335Y003942D01*
X008045Y003951D02*
X008142Y004047D01*
X008238Y004047D01*
X008335Y003951D01*
X008287Y003850D02*
X008238Y003850D01*
X008190Y003801D01*
X008190Y003704D01*
X008142Y003656D01*
X008093Y003656D01*
X008045Y003704D01*
X008045Y003801D01*
X008093Y003850D01*
X008287Y003850D02*
X008335Y003801D01*
X008335Y003704D01*
X008287Y003656D01*
X008287Y003555D02*
X008238Y003555D01*
X008190Y003507D01*
X008190Y003410D01*
X008142Y003361D01*
X008093Y003361D01*
X008045Y003410D01*
X008045Y003507D01*
X008093Y003555D01*
X008287Y003555D02*
X008335Y003507D01*
X008335Y003410D01*
X008287Y003361D01*
X008335Y003262D02*
X008238Y003165D01*
X008142Y003165D01*
X008045Y003262D01*
X007335Y003055D02*
X007045Y003055D01*
X007142Y002958D01*
X007045Y002861D01*
X007335Y002861D01*
X007335Y002762D02*
X007238Y002665D01*
X007142Y002665D01*
X007045Y002762D01*
X006335Y002762D02*
X006238Y002665D01*
X006142Y002665D01*
X006045Y002762D01*
X006045Y002861D02*
X006142Y002958D01*
X006045Y003055D01*
X006335Y003055D01*
X006335Y003156D02*
X006335Y003253D01*
X006335Y003204D02*
X006045Y003204D01*
X006045Y003156D02*
X006045Y003253D01*
X005335Y003207D02*
X005335Y003110D01*
X005287Y003061D01*
X005190Y003110D02*
X005142Y003061D01*
X005093Y003061D01*
X005045Y003110D01*
X005045Y003207D01*
X005093Y003255D01*
X005093Y003356D02*
X005287Y003356D01*
X005335Y003404D01*
X005335Y003501D01*
X005287Y003550D01*
X005335Y003651D02*
X005045Y003651D01*
X005093Y003550D02*
X005045Y003501D01*
X005045Y003404D01*
X005093Y003356D01*
X005238Y003255D02*
X005287Y003255D01*
X005335Y003207D01*
X005238Y003255D02*
X005190Y003207D01*
X005190Y003110D01*
X005335Y002962D02*
X005238Y002865D01*
X005142Y002865D01*
X005045Y002962D01*
X006045Y002861D02*
X006335Y002861D01*
X006493Y002342D02*
X006445Y002294D01*
X006445Y002197D01*
X006493Y002149D01*
X006542Y002342D02*
X006735Y002149D01*
X006735Y002342D01*
X006542Y002342D02*
X006493Y002342D01*
X006783Y002048D02*
X006783Y001854D01*
X006687Y001753D02*
X006735Y001705D01*
X006735Y001608D01*
X006687Y001560D01*
X006493Y001753D01*
X006687Y001753D01*
X006493Y001753D02*
X006445Y001705D01*
X006445Y001608D01*
X006493Y001560D01*
X006687Y001560D01*
X006590Y001458D02*
X006638Y001410D01*
X006638Y001265D01*
X006735Y001265D02*
X006445Y001265D01*
X006445Y001410D01*
X006493Y001458D01*
X006590Y001458D01*
X007445Y001410D02*
X007445Y001265D01*
X007735Y001265D01*
X007638Y001265D02*
X007638Y001410D01*
X007590Y001458D01*
X007493Y001458D01*
X007445Y001410D01*
X007493Y001560D02*
X007445Y001608D01*
X007445Y001705D01*
X007493Y001753D01*
X007687Y001560D01*
X007735Y001608D01*
X007735Y001705D01*
X007687Y001753D01*
X007493Y001753D01*
X007783Y001854D02*
X007783Y002048D01*
X007687Y002149D02*
X007735Y002197D01*
X007735Y002294D01*
X007687Y002342D01*
X007638Y002342D01*
X007590Y002294D01*
X007590Y002246D01*
X007590Y002294D02*
X007542Y002342D01*
X007493Y002342D01*
X007445Y002294D01*
X007445Y002197D01*
X007493Y002149D01*
X008445Y002294D02*
X008590Y002149D01*
X008590Y002342D01*
X008735Y002294D02*
X008445Y002294D01*
X008783Y002048D02*
X008783Y001854D01*
X008687Y001753D02*
X008735Y001705D01*
X008735Y001608D01*
X008687Y001560D01*
X008493Y001753D01*
X008687Y001753D01*
X008493Y001753D02*
X008445Y001705D01*
X008445Y001608D01*
X008493Y001560D01*
X008687Y001560D01*
X008590Y001458D02*
X008638Y001410D01*
X008638Y001265D01*
X008735Y001265D02*
X008445Y001265D01*
X008445Y001410D01*
X008493Y001458D01*
X008590Y001458D01*
X009445Y001410D02*
X009445Y001265D01*
X009735Y001265D01*
X009638Y001265D02*
X009638Y001410D01*
X009590Y001458D01*
X009493Y001458D01*
X009445Y001410D01*
X009493Y001560D02*
X009445Y001608D01*
X009445Y001705D01*
X009493Y001753D01*
X009687Y001560D01*
X009735Y001608D01*
X009735Y001705D01*
X009687Y001753D01*
X009493Y001753D01*
X009783Y001854D02*
X009783Y002048D01*
X009687Y002149D02*
X009735Y002197D01*
X009735Y002294D01*
X009687Y002342D01*
X009590Y002342D01*
X009542Y002294D01*
X009542Y002246D01*
X009590Y002149D01*
X009445Y002149D01*
X009445Y002342D01*
X010445Y002342D02*
X010493Y002246D01*
X010590Y002149D01*
X010590Y002294D01*
X010638Y002342D01*
X010687Y002342D01*
X010735Y002294D01*
X010735Y002197D01*
X010687Y002149D01*
X010590Y002149D01*
X010783Y002048D02*
X010783Y001854D01*
X010687Y001753D02*
X010735Y001705D01*
X010735Y001608D01*
X010687Y001560D01*
X010493Y001753D01*
X010687Y001753D01*
X010493Y001753D02*
X010445Y001705D01*
X010445Y001608D01*
X010493Y001560D01*
X010687Y001560D01*
X010590Y001458D02*
X010638Y001410D01*
X010638Y001265D01*
X010735Y001265D02*
X010445Y001265D01*
X010445Y001410D01*
X010493Y001458D01*
X010590Y001458D01*
X011445Y001410D02*
X011445Y001265D01*
X011735Y001265D01*
X011638Y001265D02*
X011638Y001410D01*
X011590Y001458D01*
X011493Y001458D01*
X011445Y001410D01*
X011493Y001560D02*
X011445Y001608D01*
X011445Y001705D01*
X011493Y001753D01*
X011687Y001560D01*
X011735Y001608D01*
X011735Y001705D01*
X011687Y001753D01*
X011493Y001753D01*
X011783Y001854D02*
X011783Y002048D01*
X011735Y002149D02*
X011687Y002149D01*
X011493Y002342D01*
X011445Y002342D01*
X011445Y002149D01*
X012445Y002197D02*
X012445Y002294D01*
X012493Y002342D01*
X012687Y002149D01*
X012735Y002197D01*
X012735Y002294D01*
X012687Y002342D01*
X012493Y002342D01*
X012445Y002197D02*
X012493Y002149D01*
X012687Y002149D01*
X012783Y002048D02*
X012783Y001854D01*
X012735Y001753D02*
X012735Y001560D01*
X012590Y001458D02*
X012638Y001410D01*
X012638Y001265D01*
X012735Y001265D02*
X012445Y001265D01*
X012445Y001410D01*
X012493Y001458D01*
X012590Y001458D01*
X012542Y001560D02*
X012445Y001656D01*
X012735Y001656D01*
X013445Y001656D02*
X013542Y001560D01*
X013590Y001458D02*
X013638Y001410D01*
X013638Y001265D01*
X013735Y001265D02*
X013445Y001265D01*
X013445Y001410D01*
X013493Y001458D01*
X013590Y001458D01*
X013735Y001560D02*
X013735Y001753D01*
X013735Y001656D02*
X013445Y001656D01*
X013783Y001854D02*
X013783Y002048D01*
X013735Y002149D02*
X013735Y002342D01*
X013735Y002246D02*
X013445Y002246D01*
X013542Y002149D01*
X014445Y002197D02*
X014493Y002149D01*
X014445Y002197D02*
X014445Y002294D01*
X014493Y002342D01*
X014542Y002342D01*
X014735Y002149D01*
X014735Y002342D01*
X015445Y002294D02*
X015445Y002197D01*
X015493Y002149D01*
X015687Y002149D02*
X015735Y002197D01*
X015735Y002294D01*
X015687Y002342D01*
X015638Y002342D01*
X015590Y002294D01*
X015590Y002246D01*
X015590Y002294D02*
X015542Y002342D01*
X015493Y002342D01*
X015445Y002294D01*
X015783Y002048D02*
X015783Y001854D01*
X015735Y001753D02*
X015735Y001560D01*
X015590Y001458D02*
X015638Y001410D01*
X015638Y001265D01*
X015735Y001265D02*
X015445Y001265D01*
X015445Y001410D01*
X015493Y001458D01*
X015590Y001458D01*
X015542Y001560D02*
X015445Y001656D01*
X015735Y001656D01*
X016445Y001656D02*
X016735Y001656D01*
X016735Y001560D02*
X016735Y001753D01*
X016783Y001854D02*
X016783Y002048D01*
X016590Y002149D02*
X016590Y002342D01*
X016735Y002294D02*
X016445Y002294D01*
X016590Y002149D01*
X017445Y002149D02*
X017590Y002149D01*
X017542Y002246D01*
X017542Y002294D01*
X017590Y002342D01*
X017687Y002342D01*
X017735Y002294D01*
X017735Y002197D01*
X017687Y002149D01*
X017783Y002048D02*
X017783Y001854D01*
X017735Y001753D02*
X017735Y001560D01*
X017590Y001458D02*
X017638Y001410D01*
X017638Y001265D01*
X017735Y001265D02*
X017445Y001265D01*
X017445Y001410D01*
X017493Y001458D01*
X017590Y001458D01*
X017542Y001560D02*
X017445Y001656D01*
X017735Y001656D01*
X018445Y001656D02*
X018735Y001656D01*
X018735Y001560D02*
X018735Y001753D01*
X018783Y001854D02*
X018783Y002048D01*
X018687Y002149D02*
X018735Y002197D01*
X018735Y002294D01*
X018687Y002342D01*
X018638Y002342D01*
X018590Y002294D01*
X018590Y002149D01*
X018687Y002149D01*
X018590Y002149D02*
X018493Y002246D01*
X018445Y002342D01*
X017445Y002342D02*
X017445Y002149D01*
X016542Y001560D02*
X016445Y001656D01*
X016493Y001458D02*
X016590Y001458D01*
X016638Y001410D01*
X016638Y001265D01*
X016735Y001265D02*
X016445Y001265D01*
X016445Y001410D01*
X016493Y001458D01*
X014783Y001854D02*
X014783Y002048D01*
X014735Y001753D02*
X014735Y001560D01*
X014590Y001458D02*
X014638Y001410D01*
X014638Y001265D01*
X014735Y001265D02*
X014445Y001265D01*
X014445Y001410D01*
X014493Y001458D01*
X014590Y001458D01*
X014542Y001560D02*
X014445Y001656D01*
X014735Y001656D01*
X011687Y001560D02*
X011493Y001560D01*
X009687Y001560D02*
X009493Y001560D01*
X007687Y001560D02*
X007493Y001560D01*
X005783Y001854D02*
X005783Y002048D01*
X005735Y002149D02*
X005735Y002342D01*
X005735Y002246D02*
X005445Y002246D01*
X005542Y002149D01*
X004783Y002048D02*
X004783Y001854D01*
X004687Y001753D02*
X004493Y001753D01*
X004687Y001560D01*
X004735Y001608D01*
X004735Y001705D01*
X004687Y001753D01*
X004493Y001753D02*
X004445Y001705D01*
X004445Y001608D01*
X004493Y001560D01*
X004687Y001560D01*
X004590Y001458D02*
X004638Y001410D01*
X004638Y001265D01*
X004735Y001265D02*
X004445Y001265D01*
X004445Y001410D01*
X004493Y001458D01*
X004590Y001458D01*
X005445Y001410D02*
X005445Y001265D01*
X005735Y001265D01*
X005638Y001265D02*
X005638Y001410D01*
X005590Y001458D01*
X005493Y001458D01*
X005445Y001410D01*
X005493Y001560D02*
X005445Y001608D01*
X005445Y001705D01*
X005493Y001753D01*
X005687Y001560D01*
X005735Y001608D01*
X005735Y001705D01*
X005687Y001753D01*
X005493Y001753D01*
X005493Y001560D02*
X005687Y001560D01*
X004735Y002197D02*
X004687Y002149D01*
X004493Y002342D01*
X004687Y002342D01*
X004735Y002294D01*
X004735Y002197D01*
X004687Y002149D02*
X004493Y002149D01*
X004445Y002197D01*
X004445Y002294D01*
X004493Y002342D01*
X003735Y002294D02*
X003735Y002197D01*
X003687Y002149D01*
X003783Y002048D02*
X003783Y001854D01*
X003590Y001753D02*
X003590Y001560D01*
X003445Y001705D01*
X003735Y001705D01*
X003590Y001458D02*
X003493Y001458D01*
X003445Y001410D01*
X003445Y001265D01*
X003735Y001265D01*
X003638Y001265D02*
X003638Y001410D01*
X003590Y001458D01*
X002735Y001265D02*
X002445Y001265D01*
X002445Y001410D01*
X002493Y001458D01*
X002590Y001458D01*
X002638Y001410D01*
X002638Y001265D01*
X002590Y001560D02*
X002590Y001753D01*
X002735Y001705D02*
X002445Y001705D01*
X002590Y001560D01*
X002783Y001854D02*
X002783Y002048D01*
X002735Y002149D02*
X002542Y002342D01*
X002493Y002342D01*
X002445Y002294D01*
X002445Y002197D01*
X002493Y002149D01*
X002735Y002149D02*
X002735Y002342D01*
X003145Y002662D02*
X003242Y002565D01*
X003338Y002565D01*
X003435Y002662D01*
X003435Y002761D02*
X003242Y002761D01*
X003145Y002858D01*
X003242Y002955D01*
X003435Y002955D01*
X003435Y003056D02*
X003145Y003056D01*
X003145Y003201D01*
X003193Y003250D01*
X003290Y003250D01*
X003338Y003201D01*
X003338Y003056D01*
X003338Y003153D02*
X003435Y003250D01*
X003290Y003351D02*
X003290Y003447D01*
X002335Y003207D02*
X002335Y003110D01*
X002287Y003061D01*
X002190Y003110D02*
X002190Y003207D01*
X002238Y003255D01*
X002287Y003255D01*
X002335Y003207D01*
X002190Y003110D02*
X002142Y003061D01*
X002093Y003061D01*
X002045Y003110D01*
X002045Y003207D01*
X002093Y003255D01*
X002045Y002962D02*
X002142Y002865D01*
X002238Y002865D01*
X002335Y002962D01*
X003290Y002955D02*
X003290Y002761D01*
X003493Y002342D02*
X003542Y002342D01*
X003590Y002294D01*
X003638Y002342D01*
X003687Y002342D01*
X003735Y002294D01*
X003590Y002294D02*
X003590Y002246D01*
X003493Y002342D02*
X003445Y002294D01*
X003445Y002197D01*
X003493Y002149D01*
X001638Y001410D02*
X001590Y001458D01*
X001493Y001458D01*
X001445Y001410D01*
X001445Y001265D01*
X001735Y001265D01*
X001638Y001265D02*
X001638Y001410D01*
X005045Y003844D02*
X005238Y003651D01*
X005190Y003699D02*
X005335Y003844D01*
X005335Y003945D02*
X005238Y004042D01*
X005142Y004042D01*
X005045Y003945D01*
X004335Y004060D02*
X004045Y004060D01*
X002335Y004436D02*
X002045Y004436D01*
X002045Y004582D01*
X002093Y004630D01*
X002190Y004630D01*
X002238Y004582D01*
X002238Y004436D01*
X002287Y004731D02*
X002093Y004731D01*
X002045Y004780D01*
X002045Y004876D01*
X002093Y004925D01*
X002287Y004731D01*
X002335Y004780D01*
X002335Y004876D01*
X002287Y004925D01*
X002093Y004925D01*
X002383Y005026D02*
X002383Y005219D01*
X002287Y005320D02*
X002335Y005369D01*
X002335Y005466D01*
X002287Y005514D01*
X002190Y005514D01*
X002142Y005466D01*
X002142Y005417D01*
X002190Y005320D01*
X002045Y005320D01*
X002045Y005514D01*
X001235Y005466D02*
X000945Y005466D01*
X001090Y005320D01*
X001090Y005514D01*
X001283Y005219D02*
X001283Y005026D01*
X001187Y004925D02*
X000993Y004925D01*
X001187Y004731D01*
X001235Y004780D01*
X001235Y004876D01*
X001187Y004925D01*
X000993Y004925D02*
X000945Y004876D01*
X000945Y004780D01*
X000993Y004731D01*
X001187Y004731D01*
X001090Y004630D02*
X001138Y004582D01*
X001138Y004436D01*
X001235Y004436D02*
X000945Y004436D01*
X000945Y004582D01*
X000993Y004630D01*
X001090Y004630D01*
X003145Y005315D02*
X003145Y005509D01*
X003193Y005509D01*
X003387Y005315D01*
X003435Y005315D01*
X010045Y005320D02*
X010190Y005320D01*
X010142Y005417D01*
X010142Y005466D01*
X010190Y005514D01*
X010287Y005514D01*
X010335Y005466D01*
X010335Y005369D01*
X010287Y005320D01*
X010383Y005219D02*
X010383Y005026D01*
X010287Y004925D02*
X010093Y004925D01*
X010287Y004731D01*
X010335Y004780D01*
X010335Y004876D01*
X010287Y004925D01*
X010093Y004925D02*
X010045Y004876D01*
X010045Y004780D01*
X010093Y004731D01*
X010287Y004731D01*
X010190Y004630D02*
X010238Y004582D01*
X010238Y004436D01*
X010335Y004436D02*
X010045Y004436D01*
X010045Y004582D01*
X010093Y004630D01*
X010190Y004630D01*
X011545Y004582D02*
X011545Y004436D01*
X011835Y004436D01*
X011738Y004436D02*
X011738Y004582D01*
X011690Y004630D01*
X011593Y004630D01*
X011545Y004582D01*
X011593Y004731D02*
X011545Y004780D01*
X011545Y004876D01*
X011593Y004925D01*
X011787Y004731D01*
X011835Y004780D01*
X011835Y004876D01*
X011787Y004925D01*
X011593Y004925D01*
X011883Y005026D02*
X011883Y005219D01*
X011787Y005320D02*
X011835Y005369D01*
X011835Y005466D01*
X011787Y005514D01*
X011738Y005514D01*
X011690Y005466D01*
X011690Y005320D01*
X011787Y005320D01*
X011690Y005320D02*
X011593Y005417D01*
X011545Y005514D01*
X012545Y005466D02*
X012545Y005369D01*
X012593Y005320D01*
X012787Y005320D01*
X012593Y005514D01*
X012787Y005514D01*
X012835Y005466D01*
X012835Y005369D01*
X012787Y005320D01*
X012883Y005219D02*
X012883Y005026D01*
X012835Y004925D02*
X012835Y004731D01*
X012690Y004630D02*
X012738Y004582D01*
X012738Y004436D01*
X012835Y004436D02*
X012545Y004436D01*
X012545Y004582D01*
X012593Y004630D01*
X012690Y004630D01*
X012642Y004731D02*
X012545Y004828D01*
X012835Y004828D01*
X013545Y004828D02*
X013835Y004828D01*
X013835Y004731D02*
X013835Y004925D01*
X013883Y005026D02*
X013883Y005219D01*
X013835Y005320D02*
X013835Y005514D01*
X013835Y005417D02*
X013545Y005417D01*
X013642Y005320D01*
X014545Y005369D02*
X014593Y005320D01*
X014545Y005369D02*
X014545Y005466D01*
X014593Y005514D01*
X014642Y005514D01*
X014835Y005320D01*
X014835Y005514D01*
X015545Y005466D02*
X015545Y005369D01*
X015593Y005320D01*
X015787Y005320D02*
X015835Y005369D01*
X015835Y005466D01*
X015787Y005514D01*
X015738Y005514D01*
X015690Y005466D01*
X015690Y005417D01*
X015690Y005466D02*
X015642Y005514D01*
X015593Y005514D01*
X015545Y005466D01*
X015883Y005219D02*
X015883Y005026D01*
X015835Y004925D02*
X015835Y004731D01*
X015690Y004630D02*
X015738Y004582D01*
X015738Y004436D01*
X015835Y004436D02*
X015545Y004436D01*
X015545Y004582D01*
X015593Y004630D01*
X015690Y004630D01*
X015642Y004731D02*
X015545Y004828D01*
X015835Y004828D01*
X016545Y004828D02*
X016642Y004731D01*
X016690Y004630D02*
X016738Y004582D01*
X016738Y004436D01*
X016835Y004436D02*
X016545Y004436D01*
X016545Y004582D01*
X016593Y004630D01*
X016690Y004630D01*
X016835Y004731D02*
X016835Y004925D01*
X016835Y004828D02*
X016545Y004828D01*
X016883Y005026D02*
X016883Y005219D01*
X016690Y005320D02*
X016690Y005514D01*
X016835Y005466D02*
X016545Y005466D01*
X016690Y005320D01*
X017545Y005412D02*
X017835Y005412D01*
X017835Y005315D02*
X017835Y005509D01*
X017642Y005315D02*
X017545Y005412D01*
X017883Y005214D02*
X017883Y005020D01*
X017690Y004919D02*
X017690Y004726D01*
X017545Y004871D01*
X017835Y004871D01*
X017690Y004625D02*
X017593Y004625D01*
X017545Y004576D01*
X017545Y004431D01*
X017835Y004431D01*
X017738Y004431D02*
X017738Y004576D01*
X017690Y004625D01*
X018645Y004576D02*
X018645Y004431D01*
X018935Y004431D01*
X018838Y004431D02*
X018838Y004576D01*
X018790Y004625D01*
X018693Y004625D01*
X018645Y004576D01*
X018790Y004726D02*
X018790Y004919D01*
X018935Y004871D02*
X018645Y004871D01*
X018790Y004726D01*
X018983Y005020D02*
X018983Y005214D01*
X018887Y005315D02*
X018693Y005509D01*
X018887Y005509D01*
X018935Y005460D01*
X018935Y005363D01*
X018887Y005315D01*
X018693Y005315D01*
X018645Y005363D01*
X018645Y005460D01*
X018693Y005509D01*
X021445Y004801D02*
X021542Y004898D01*
X021638Y004898D01*
X021735Y004801D01*
X021687Y004700D02*
X021735Y004651D01*
X021735Y004506D01*
X021445Y004506D01*
X021445Y004651D01*
X021493Y004700D01*
X021542Y004700D01*
X021590Y004651D01*
X021590Y004506D01*
X021638Y004405D02*
X021687Y004405D01*
X021735Y004357D01*
X021735Y004260D01*
X021687Y004212D01*
X021687Y004110D02*
X021445Y004110D01*
X021493Y004212D02*
X021542Y004212D01*
X021590Y004260D01*
X021590Y004357D01*
X021638Y004405D01*
X021493Y004405D02*
X021445Y004357D01*
X021445Y004260D01*
X021493Y004212D01*
X021687Y004110D02*
X021735Y004062D01*
X021735Y003965D01*
X021687Y003917D01*
X021445Y003917D01*
X021542Y003816D02*
X021735Y003719D01*
X021542Y003622D01*
X021445Y003523D02*
X021542Y003426D01*
X021638Y003426D01*
X021735Y003523D01*
X021687Y003030D02*
X021638Y002982D01*
X021638Y002885D01*
X021590Y002836D01*
X021542Y002885D01*
X021542Y003030D01*
X021687Y003030D02*
X021735Y002982D01*
X021735Y002836D01*
X021735Y002737D02*
X021687Y002688D01*
X021493Y002688D01*
X021542Y002640D02*
X021542Y002737D01*
X021735Y002540D02*
X021735Y002444D01*
X021735Y002492D02*
X021445Y002492D01*
X021445Y002444D01*
X021590Y002342D02*
X021542Y002294D01*
X021542Y002197D01*
X021590Y002149D01*
X021687Y002149D01*
X021735Y002197D01*
X021735Y002294D01*
X021687Y002342D01*
X021590Y002342D01*
X021638Y002048D02*
X021445Y002048D01*
X021638Y002048D02*
X021735Y001951D01*
X021638Y001854D01*
X021445Y001854D01*
X020635Y001854D02*
X020635Y001999D01*
X020587Y002048D01*
X020393Y002048D01*
X020345Y001999D01*
X020345Y001854D01*
X020635Y001854D01*
X020635Y001753D02*
X020345Y001753D01*
X020345Y001560D02*
X020635Y001753D01*
X020635Y001560D02*
X020345Y001560D01*
X020393Y001458D02*
X020345Y001410D01*
X020345Y001313D01*
X020393Y001265D01*
X020587Y001265D01*
X020635Y001313D01*
X020635Y001410D01*
X020587Y001458D01*
X020490Y001458D01*
X020490Y001362D01*
X019735Y001265D02*
X019445Y001265D01*
X019445Y001410D01*
X019493Y001458D01*
X019590Y001458D01*
X019638Y001410D01*
X019638Y001265D01*
X019542Y001560D02*
X019445Y001656D01*
X019735Y001656D01*
X019735Y001560D02*
X019735Y001753D01*
X019783Y001854D02*
X019783Y002048D01*
X019735Y002149D02*
X019687Y002149D01*
X019493Y002342D01*
X019445Y002342D01*
X019445Y002149D01*
X018542Y001560D02*
X018445Y001656D01*
X018493Y001458D02*
X018590Y001458D01*
X018638Y001410D01*
X018638Y001265D01*
X018735Y001265D02*
X018445Y001265D01*
X018445Y001410D01*
X018493Y001458D01*
X021445Y001458D02*
X021445Y001265D01*
X021590Y001265D01*
X021542Y001362D01*
X021542Y001410D01*
X021590Y001458D01*
X021687Y001458D01*
X021735Y001410D01*
X021735Y001313D01*
X021687Y001265D01*
X018935Y002956D02*
X018838Y002860D01*
X018742Y002860D01*
X018645Y002956D01*
X018645Y003056D02*
X018645Y003201D01*
X018693Y003250D01*
X018790Y003250D01*
X018838Y003201D01*
X018838Y003056D01*
X018838Y003153D02*
X018935Y003250D01*
X018935Y003351D02*
X018645Y003544D01*
X018645Y003645D02*
X018645Y003791D01*
X018693Y003839D01*
X018887Y003839D01*
X018935Y003791D01*
X018935Y003645D01*
X018645Y003645D01*
X018645Y003351D02*
X018935Y003544D01*
X018935Y003940D02*
X018838Y004037D01*
X018742Y004037D01*
X018645Y003940D01*
X017835Y003940D02*
X017738Y004037D01*
X017642Y004037D01*
X017545Y003940D01*
X017593Y003839D02*
X017545Y003791D01*
X017545Y003645D01*
X017835Y003645D01*
X017835Y003791D01*
X017787Y003839D01*
X017593Y003839D01*
X016835Y003844D02*
X016545Y003844D01*
X016642Y003747D01*
X016545Y003651D01*
X016835Y003651D01*
X016835Y003550D02*
X016545Y003550D01*
X016738Y003453D02*
X016835Y003550D01*
X016738Y003453D02*
X016835Y003356D01*
X016545Y003356D01*
X016593Y003255D02*
X016690Y003255D01*
X016738Y003207D01*
X016738Y003061D01*
X016835Y003061D02*
X016545Y003061D01*
X016545Y003207D01*
X016593Y003255D01*
X015835Y003356D02*
X015738Y003453D01*
X015835Y003550D01*
X015545Y003550D01*
X015545Y003651D02*
X015642Y003747D01*
X015545Y003844D01*
X015835Y003844D01*
X015835Y003945D02*
X015738Y004042D01*
X015642Y004042D01*
X015545Y003945D01*
X014835Y003945D02*
X014738Y004042D01*
X014642Y004042D01*
X014545Y003945D01*
X014545Y003844D02*
X014835Y003844D01*
X014642Y003747D02*
X014545Y003844D01*
X014642Y003747D02*
X014545Y003651D01*
X014835Y003651D01*
X014835Y003550D02*
X014545Y003550D01*
X014738Y003453D02*
X014835Y003550D01*
X014738Y003453D02*
X014835Y003356D01*
X014545Y003356D01*
X014593Y003255D02*
X014690Y003255D01*
X014738Y003207D01*
X014738Y003061D01*
X014835Y003061D02*
X014545Y003061D01*
X014545Y003207D01*
X014593Y003255D01*
X013835Y003356D02*
X013738Y003453D01*
X013835Y003550D01*
X013545Y003550D01*
X013545Y003651D02*
X013642Y003747D01*
X013545Y003844D01*
X013835Y003844D01*
X013835Y003945D02*
X013738Y004042D01*
X013642Y004042D01*
X013545Y003945D01*
X012835Y003945D02*
X012738Y004042D01*
X012642Y004042D01*
X012545Y003945D01*
X012545Y003844D02*
X012835Y003844D01*
X012642Y003747D02*
X012545Y003844D01*
X012642Y003747D02*
X012545Y003651D01*
X012835Y003651D01*
X012835Y003550D02*
X012545Y003550D01*
X012738Y003453D02*
X012835Y003550D01*
X012738Y003453D02*
X012835Y003356D01*
X012545Y003356D01*
X012593Y003255D02*
X012690Y003255D01*
X012738Y003207D01*
X012738Y003061D01*
X012835Y003061D02*
X012545Y003061D01*
X012545Y003207D01*
X012593Y003255D01*
X011835Y003356D02*
X011738Y003453D01*
X011835Y003550D01*
X011545Y003550D01*
X011545Y003651D02*
X011642Y003747D01*
X011545Y003844D01*
X011835Y003844D01*
X011835Y003945D02*
X011738Y004042D01*
X011642Y004042D01*
X011545Y003945D01*
X011545Y003651D02*
X011835Y003651D01*
X011835Y003356D02*
X011545Y003356D01*
X011593Y003255D02*
X011690Y003255D01*
X011738Y003207D01*
X011738Y003061D01*
X011835Y003061D02*
X011545Y003061D01*
X011545Y003207D01*
X011593Y003255D01*
X011545Y002962D02*
X011642Y002865D01*
X011738Y002865D01*
X011835Y002962D01*
X012545Y002962D02*
X012642Y002865D01*
X012738Y002865D01*
X012835Y002962D01*
X013545Y002962D02*
X013642Y002865D01*
X013738Y002865D01*
X013835Y002962D01*
X013835Y003061D02*
X013545Y003061D01*
X013545Y003207D01*
X013593Y003255D01*
X013690Y003255D01*
X013738Y003207D01*
X013738Y003061D01*
X013835Y003356D02*
X013545Y003356D01*
X013545Y003651D02*
X013835Y003651D01*
X015545Y003651D02*
X015835Y003651D01*
X015835Y003356D02*
X015545Y003356D01*
X015593Y003255D02*
X015690Y003255D01*
X015738Y003207D01*
X015738Y003061D01*
X015835Y003061D02*
X015545Y003061D01*
X015545Y003207D01*
X015593Y003255D01*
X015545Y002962D02*
X015642Y002865D01*
X015738Y002865D01*
X015835Y002962D01*
X016545Y002962D02*
X016642Y002865D01*
X016738Y002865D01*
X016835Y002962D01*
X017545Y002956D02*
X017642Y002860D01*
X017738Y002860D01*
X017835Y002956D01*
X017545Y003056D02*
X017545Y003250D01*
X017545Y003351D02*
X017835Y003544D01*
X017835Y003351D02*
X017545Y003544D01*
X016835Y003945D02*
X016738Y004042D01*
X016642Y004042D01*
X016545Y003945D01*
X014835Y004436D02*
X014545Y004436D01*
X014545Y004582D01*
X014593Y004630D01*
X014690Y004630D01*
X014738Y004582D01*
X014738Y004436D01*
X014642Y004731D02*
X014545Y004828D01*
X014835Y004828D01*
X014835Y004731D02*
X014835Y004925D01*
X014883Y005026D02*
X014883Y005219D01*
X013642Y004731D02*
X013545Y004828D01*
X013593Y004630D02*
X013690Y004630D01*
X013738Y004582D01*
X013738Y004436D01*
X013835Y004436D02*
X013545Y004436D01*
X013545Y004582D01*
X013593Y004630D01*
X011787Y004731D02*
X011593Y004731D01*
X010045Y005320D02*
X010045Y005514D01*
X012545Y005466D02*
X012593Y005514D01*
X010335Y003945D02*
X010238Y004042D01*
X010142Y004042D01*
X010045Y003945D01*
X010045Y003844D02*
X010335Y003844D01*
X010142Y003747D02*
X010045Y003844D01*
X010142Y003747D02*
X010045Y003651D01*
X010335Y003651D01*
X010335Y003550D02*
X010045Y003550D01*
X010238Y003453D02*
X010335Y003550D01*
X010238Y003453D02*
X010335Y003356D01*
X010045Y003356D01*
X010093Y003255D02*
X010190Y003255D01*
X010238Y003207D01*
X010238Y003061D01*
X010335Y003061D02*
X010045Y003061D01*
X010045Y003207D01*
X010093Y003255D01*
X010045Y002962D02*
X010142Y002865D01*
X010238Y002865D01*
X010335Y002962D01*
X014545Y002962D02*
X014642Y002865D01*
X014738Y002865D01*
X014835Y002962D01*
X017545Y003153D02*
X017835Y003153D01*
X018645Y003056D02*
X018935Y003056D01*
X021590Y004651D02*
X021638Y004700D01*
X021687Y004700D01*
D11*
X021950Y000150D02*
X000350Y000150D01*
X000150Y000350D01*
X000150Y006850D01*
X000350Y007050D01*
X021950Y007050D01*
X022150Y006850D01*
X022150Y000350D01*
X021950Y000150D01*
X000350Y000150D02*
X000350Y000250D01*
X000150Y000450D01*
D12*
X000150Y000400D02*
X000400Y000150D01*
X000900Y000150D01*
X001150Y000400D01*
X001400Y000150D01*
X001900Y000150D01*
X002150Y000400D01*
X002400Y000150D01*
X002900Y000150D01*
X003150Y000400D01*
X003400Y000150D01*
X003900Y000150D01*
X004150Y000400D01*
X004400Y000150D01*
X004900Y000150D01*
X005150Y000400D01*
X005400Y000150D01*
X005900Y000150D01*
X006150Y000400D01*
X006150Y000900D01*
X005900Y001150D01*
X005400Y001150D01*
X005150Y000900D01*
X004900Y001150D01*
X004400Y001150D01*
X004150Y000900D01*
X003900Y001150D01*
X003400Y001150D01*
X003150Y000900D01*
X002900Y001150D01*
X002400Y001150D01*
X002150Y000900D01*
X001900Y001150D01*
X001400Y001150D01*
X001150Y000900D01*
X000900Y001150D01*
X000400Y001150D01*
X000150Y000900D01*
X000150Y000400D01*
X006150Y000400D02*
X006400Y000150D01*
X006900Y000150D01*
X007150Y000400D01*
X007400Y000150D01*
X007900Y000150D01*
X008150Y000400D01*
X008400Y000150D01*
X008900Y000150D01*
X009150Y000400D01*
X009400Y000150D01*
X009900Y000150D01*
X010150Y000400D01*
X010400Y000150D01*
X010900Y000150D01*
X011150Y000400D01*
X011400Y000150D01*
X011900Y000150D01*
X012150Y000400D01*
X012400Y000150D01*
X012900Y000150D01*
X013150Y000400D01*
X013400Y000150D01*
X013900Y000150D01*
X014150Y000400D01*
X014150Y000900D01*
X013900Y001150D01*
X013400Y001150D01*
X013150Y000900D01*
X012900Y001150D01*
X012400Y001150D01*
X012150Y000900D01*
X011900Y001150D01*
X011400Y001150D01*
X011150Y000900D01*
X010900Y001150D01*
X010400Y001150D01*
X010150Y000900D01*
X009900Y001150D01*
X009400Y001150D01*
X009150Y000900D01*
X008900Y001150D01*
X008400Y001150D01*
X008150Y000900D01*
X007900Y001150D01*
X007400Y001150D01*
X007150Y000900D01*
X006900Y001150D01*
X006400Y001150D01*
X006150Y000900D01*
X006150Y000400D01*
X014150Y000400D02*
X014400Y000150D01*
X014900Y000150D01*
X015150Y000400D01*
X015400Y000150D01*
X015900Y000150D01*
X016150Y000400D01*
X016400Y000150D01*
X016900Y000150D01*
X017150Y000400D01*
X017400Y000150D01*
X017900Y000150D01*
X018150Y000400D01*
X018400Y000150D01*
X018900Y000150D01*
X019150Y000400D01*
X019400Y000150D01*
X019900Y000150D01*
X020150Y000400D01*
X020400Y000150D01*
X020900Y000150D01*
X021150Y000400D01*
X021400Y000150D01*
X021900Y000150D01*
X022150Y000400D01*
X022150Y000900D01*
X021900Y001150D01*
X021400Y001150D01*
X021150Y000900D01*
X020900Y001150D01*
X020400Y001150D01*
X020150Y000900D01*
X019900Y001150D01*
X019400Y001150D01*
X019150Y000900D01*
X018900Y001150D01*
X018400Y001150D01*
X018150Y000900D01*
X017900Y001150D01*
X017400Y001150D01*
X017150Y000900D01*
X016900Y001150D01*
X016400Y001150D01*
X016150Y000900D01*
X015900Y001150D01*
X015400Y001150D01*
X015150Y000900D01*
X014900Y001150D01*
X014400Y001150D01*
X014150Y000900D01*
X014150Y000400D01*
X013900Y005650D02*
X013400Y005650D01*
X013150Y005900D01*
X012900Y005650D01*
X012400Y005650D01*
X012150Y005900D01*
X011900Y005650D01*
X011400Y005650D01*
X011150Y005900D01*
X011150Y006400D01*
X011400Y006650D01*
X011900Y006650D01*
X012150Y006400D01*
X012400Y006650D01*
X012900Y006650D01*
X013150Y006400D01*
X013400Y006650D01*
X013900Y006650D01*
X014150Y006400D01*
X014400Y006650D01*
X014900Y006650D01*
X015150Y006400D01*
X015400Y006650D01*
X015900Y006650D01*
X016150Y006400D01*
X016400Y006650D01*
X016900Y006650D01*
X017150Y006400D01*
X017400Y006650D01*
X017900Y006650D01*
X018150Y006400D01*
X018400Y006650D01*
X018900Y006650D01*
X019150Y006400D01*
X019150Y005900D01*
X018900Y005650D01*
X018400Y005650D01*
X018150Y005900D01*
X017900Y005650D01*
X017400Y005650D01*
X017150Y005900D01*
X016900Y005650D01*
X016400Y005650D01*
X016150Y005900D01*
X015900Y005650D01*
X015400Y005650D01*
X015150Y005900D01*
X014900Y005650D01*
X014400Y005650D01*
X014150Y005900D01*
X013900Y005650D01*
X010650Y005900D02*
X010400Y005650D01*
X009900Y005650D01*
X009650Y005900D01*
X009400Y005650D01*
X008900Y005650D01*
X008650Y005900D01*
X008400Y005650D01*
X007900Y005650D01*
X007650Y005900D01*
X007400Y005650D01*
X006900Y005650D01*
X006650Y005900D01*
X006400Y005650D01*
X005900Y005650D01*
X005650Y005900D01*
X005400Y005650D01*
X004900Y005650D01*
X004650Y005900D01*
X004400Y005650D01*
X003900Y005650D01*
X003650Y005900D01*
X003400Y005650D01*
X002900Y005650D01*
X002650Y005900D01*
X002400Y005650D01*
X001900Y005650D01*
X001650Y005900D01*
X001400Y005650D01*
X000900Y005650D01*
X000650Y005900D01*
X000650Y006400D01*
X000900Y006650D01*
X001400Y006650D01*
X001650Y006400D01*
X001900Y006650D01*
X002400Y006650D01*
X002650Y006400D01*
X002900Y006650D01*
X003400Y006650D01*
X003650Y006400D01*
X003900Y006650D01*
X004400Y006650D01*
X004650Y006400D01*
X004900Y006650D01*
X005400Y006650D01*
X005650Y006400D01*
X005900Y006650D01*
X006400Y006650D01*
X006650Y006400D01*
X006900Y006650D01*
X007400Y006650D01*
X007650Y006400D01*
X007900Y006650D01*
X008400Y006650D01*
X008650Y006400D01*
X008900Y006650D01*
X009400Y006650D01*
X009650Y006400D01*
X009900Y006650D01*
X010400Y006650D01*
X010650Y006400D01*
X010650Y005900D01*
D13*
X020262Y005900D03*
X020262Y005904D03*
X020262Y005908D03*
X020262Y005912D03*
X020262Y005920D03*
X020262Y005924D03*
X020262Y005892D03*
X020262Y005888D03*
X020262Y005884D03*
X020262Y005880D03*
X020262Y005872D03*
X020262Y005868D03*
X020262Y005864D03*
X020262Y005860D03*
X020262Y005852D03*
X020262Y005848D03*
X020270Y005992D03*
X020274Y006020D03*
X020630Y005828D03*
X020630Y005824D03*
X020786Y005700D03*
X020954Y005720D03*
X021126Y005700D03*
X021242Y005664D03*
X021246Y005668D03*
X021278Y005820D03*
X021278Y005824D03*
X021638Y005764D03*
X021638Y005760D03*
X021642Y005780D03*
X021642Y005784D03*
X021642Y005788D03*
X021642Y005792D03*
X021646Y005820D03*
X021646Y005824D03*
X021646Y005828D03*
X021646Y005832D03*
X021646Y005940D03*
X021646Y005944D03*
X021646Y005948D03*
X021646Y005952D03*
X021642Y005980D03*
X021642Y005984D03*
X021642Y005988D03*
X021642Y005992D03*
X021638Y006008D03*
X021638Y006012D03*
X021350Y006068D03*
X021102Y006408D03*
X021154Y005384D03*
X021082Y005352D03*
X020830Y005352D03*
X020266Y005064D03*
D14*
X020266Y005068D03*
X020266Y005072D03*
X020266Y005080D03*
X020266Y005084D03*
X020266Y005088D03*
X020266Y005092D03*
X020266Y005100D03*
X020266Y005104D03*
X020266Y005108D03*
X020266Y005112D03*
X020266Y005120D03*
X020266Y005124D03*
X020266Y005128D03*
X020266Y005132D03*
X020266Y005140D03*
X020266Y005144D03*
X020266Y005148D03*
X020266Y005152D03*
X020266Y005160D03*
X020266Y005164D03*
X020266Y005168D03*
X020266Y005172D03*
X020266Y005180D03*
X020266Y005184D03*
X020266Y005188D03*
X020266Y005192D03*
X020266Y005200D03*
X020266Y005204D03*
X020266Y005208D03*
X020266Y005212D03*
X020266Y005220D03*
X020266Y005224D03*
X020266Y005228D03*
X020266Y005232D03*
X020266Y005240D03*
X020266Y005244D03*
X020266Y005248D03*
X020266Y005252D03*
X020266Y005260D03*
X020266Y005264D03*
X020266Y005268D03*
X020266Y005272D03*
X020266Y005280D03*
X020266Y005284D03*
X020266Y005288D03*
X020266Y005292D03*
X020266Y005300D03*
X020266Y005304D03*
X020266Y005308D03*
X020266Y005312D03*
X020266Y005320D03*
X020266Y005324D03*
X020266Y005328D03*
X020266Y005332D03*
X020266Y005340D03*
X020266Y005344D03*
X020266Y005348D03*
X020266Y005352D03*
X020266Y005360D03*
X020266Y005364D03*
X020266Y005368D03*
X020266Y005372D03*
X020266Y005380D03*
X020266Y005384D03*
X020266Y005388D03*
X020266Y005392D03*
X020266Y005400D03*
X020266Y005404D03*
X020266Y005408D03*
X020266Y005412D03*
X020266Y005420D03*
X020266Y005424D03*
X020266Y005428D03*
X020266Y005432D03*
X020266Y005440D03*
X020954Y005712D03*
X020954Y005808D03*
X021126Y005812D03*
X021274Y005832D03*
X021630Y005724D03*
X021622Y005692D03*
X021618Y005684D03*
X021618Y005680D03*
X021614Y005668D03*
X021606Y005644D03*
X020638Y005840D03*
X020266Y005800D03*
X020266Y005792D03*
X020266Y005788D03*
X020266Y005784D03*
X020266Y005780D03*
X020290Y006080D03*
X020290Y006084D03*
X020294Y006092D03*
X020294Y006100D03*
X020298Y006104D03*
X020298Y006108D03*
X020298Y006112D03*
X020302Y006120D03*
X020306Y006128D03*
X020306Y006132D03*
X020310Y006140D03*
X020566Y006072D03*
X021102Y006404D03*
X021606Y006128D03*
X021610Y006112D03*
X021614Y006104D03*
X021618Y006092D03*
X021618Y006088D03*
X021622Y006080D03*
X021626Y006064D03*
X021630Y006048D03*
D15*
X021622Y006076D03*
X021618Y006096D03*
X021610Y006116D03*
X021274Y005836D03*
X021622Y005696D03*
X021618Y005676D03*
X021610Y005656D03*
X021234Y005656D03*
X020674Y005656D03*
X020266Y005796D03*
X020294Y006096D03*
X020266Y005436D03*
X020266Y005416D03*
X020266Y005396D03*
X020266Y005376D03*
X020266Y005356D03*
X020266Y005336D03*
X020266Y005316D03*
X020266Y005296D03*
X020266Y005276D03*
X020266Y005256D03*
X020266Y005236D03*
X020266Y005216D03*
X020266Y005196D03*
X020266Y005176D03*
X020266Y005156D03*
X020266Y005136D03*
X020266Y005116D03*
X020266Y005096D03*
X020266Y005076D03*
X020778Y005376D03*
X020822Y005356D03*
D16*
X020914Y005312D03*
X020958Y005128D03*
X021126Y005680D03*
X021078Y005712D03*
X021126Y005752D03*
X021126Y005760D03*
X021126Y005764D03*
X021078Y005804D03*
X020830Y005808D03*
X020786Y005768D03*
X020786Y005764D03*
X020786Y005744D03*
X020830Y005708D03*
X020834Y005712D03*
X020734Y005712D03*
X020734Y005804D03*
X020414Y005788D03*
X020406Y005764D03*
X020594Y006112D03*
X021502Y005772D03*
D17*
X021366Y005572D03*
X021362Y005568D03*
X021358Y005564D03*
X021486Y005440D03*
X021490Y005444D03*
X021478Y005432D03*
X020958Y005132D03*
X020426Y005440D03*
X020550Y005568D03*
X020554Y005564D03*
X020282Y005660D03*
X020282Y005664D03*
X020282Y005668D03*
X020950Y005828D03*
X020578Y006064D03*
X020410Y006312D03*
X020418Y006320D03*
X020774Y006332D03*
X020806Y006404D03*
X020954Y006340D03*
X021102Y006388D03*
X021486Y006328D03*
X021490Y006324D03*
X021494Y006320D03*
X021502Y006308D03*
X021506Y006304D03*
X020954Y006640D03*
D18*
X020954Y005456D03*
X020954Y005136D03*
D19*
X020958Y005140D03*
X020334Y005484D03*
D20*
X020954Y005472D03*
X020958Y005144D03*
D21*
X020958Y005148D03*
X020674Y006024D03*
D22*
X020954Y005488D03*
X020954Y005152D03*
D23*
X020954Y005156D03*
D24*
X020958Y005160D03*
X020954Y005508D03*
D25*
X020958Y005164D03*
X020954Y006608D03*
D26*
X020954Y006604D03*
X020958Y006144D03*
X020954Y005524D03*
X020958Y005168D03*
D27*
X020956Y005172D03*
D28*
X020954Y005176D03*
D29*
X020956Y005180D03*
X020956Y005560D03*
D30*
X020956Y005568D03*
X020956Y005184D03*
X020956Y006272D03*
D31*
X020958Y006244D03*
X020958Y006240D03*
X020954Y005580D03*
X020958Y005188D03*
D32*
X020956Y005192D03*
X020956Y005588D03*
X020960Y006220D03*
X020960Y006224D03*
X020956Y006580D03*
D33*
X020956Y006576D03*
X020960Y006196D03*
X020956Y005196D03*
D34*
X020956Y005200D03*
D35*
X020956Y005204D03*
X020956Y005628D03*
X020956Y005968D03*
D36*
X020956Y005644D03*
X020956Y005208D03*
D37*
X020956Y005212D03*
D38*
X020956Y005216D03*
D39*
X020954Y005220D03*
D40*
X020958Y005224D03*
D41*
X020956Y005228D03*
X020956Y005904D03*
X020956Y005908D03*
X020956Y006544D03*
D42*
X020956Y005232D03*
D43*
X020956Y005236D03*
X020956Y006536D03*
D44*
X020956Y006532D03*
X020956Y005988D03*
X020956Y005240D03*
D45*
X020956Y005244D03*
X020956Y005992D03*
D46*
X020956Y006524D03*
X020956Y005248D03*
D47*
X020956Y005252D03*
D48*
X020954Y005256D03*
D49*
X020708Y005260D03*
X021204Y005260D03*
X020960Y006128D03*
D50*
X020694Y006508D03*
X020954Y006624D03*
X020690Y005264D03*
X021218Y005264D03*
D51*
X021240Y005268D03*
X020672Y005268D03*
X021244Y006500D03*
X020956Y006628D03*
D52*
X020350Y005452D03*
X020350Y005448D03*
X020662Y005272D03*
D53*
X020352Y005444D03*
X021248Y005272D03*
D54*
X021258Y005276D03*
X020650Y005276D03*
D55*
X020640Y005280D03*
X020340Y005472D03*
D56*
X020342Y005468D03*
X021270Y005280D03*
X020958Y005864D03*
X020962Y006120D03*
X020646Y006492D03*
D57*
X020336Y005480D03*
X020632Y005284D03*
X021280Y005284D03*
D58*
X021288Y005288D03*
X021296Y005292D03*
X020624Y005288D03*
X020332Y005488D03*
X020624Y006040D03*
X021108Y006284D03*
X021292Y006480D03*
X020616Y006480D03*
D59*
X020328Y005500D03*
X020616Y005292D03*
D60*
X020608Y005296D03*
X021304Y005296D03*
X021304Y006476D03*
D61*
X021312Y006472D03*
X021116Y006288D03*
X020600Y006472D03*
X020592Y006468D03*
X020956Y005860D03*
X020600Y005300D03*
X021312Y005300D03*
D62*
X020592Y005304D03*
X020320Y005520D03*
X020580Y006460D03*
X021324Y006464D03*
D63*
X020608Y006120D03*
X020932Y005304D03*
X020976Y005304D03*
D64*
X021318Y005304D03*
X020614Y006044D03*
X020586Y006464D03*
X021318Y006468D03*
D65*
X021330Y006460D03*
X020822Y006360D03*
X021302Y006040D03*
X020318Y005528D03*
X020318Y005524D03*
X020578Y005312D03*
X020586Y005308D03*
X021326Y005308D03*
D66*
X020924Y005308D03*
X020852Y005740D03*
X020852Y005744D03*
X020856Y005752D03*
X020856Y005760D03*
X020856Y005764D03*
X020852Y005780D03*
X020848Y005788D03*
X020720Y005784D03*
X020716Y005772D03*
X020716Y005744D03*
X020716Y005740D03*
X020720Y005732D03*
X021056Y005740D03*
X021056Y005744D03*
X021056Y005748D03*
X021056Y005752D03*
X021056Y005760D03*
X021056Y005764D03*
X021056Y005768D03*
X021056Y005772D03*
X021060Y005780D03*
X021060Y005784D03*
X021060Y005732D03*
X021188Y005728D03*
X021192Y005740D03*
X021196Y005752D03*
X021196Y005760D03*
X021196Y005764D03*
X021196Y005768D03*
X021192Y005780D03*
X021192Y005784D03*
X021124Y005864D03*
X021368Y005964D03*
X021104Y006440D03*
D67*
X021126Y005740D03*
X020786Y005740D03*
X020986Y005308D03*
D68*
X020996Y005312D03*
X021176Y005712D03*
X021176Y005804D03*
X020836Y005804D03*
X020796Y006452D03*
X020956Y006644D03*
D69*
X020568Y006452D03*
X020820Y006364D03*
X020792Y006292D03*
X020952Y005660D03*
X020316Y005532D03*
X021332Y005312D03*
D70*
X020570Y005316D03*
D71*
X020904Y005316D03*
X020448Y005856D03*
X020460Y005876D03*
X021448Y005876D03*
X021464Y005856D03*
D72*
X021474Y005836D03*
X021486Y005816D03*
X020434Y005836D03*
X020406Y005756D03*
X021006Y005316D03*
X021106Y006436D03*
D73*
X021336Y006456D03*
X021120Y006296D03*
X021340Y005316D03*
D74*
X021352Y005324D03*
X020564Y005320D03*
X020312Y005544D03*
X020312Y005548D03*
X020684Y005868D03*
X021120Y006300D03*
X021352Y006448D03*
X021356Y006444D03*
X020560Y006448D03*
D75*
X020578Y006100D03*
X020494Y005912D03*
X020514Y005644D03*
X020518Y005640D03*
X021274Y005740D03*
X021378Y005628D03*
X021374Y005624D03*
X021394Y005640D03*
X021398Y005644D03*
X021414Y005660D03*
X021418Y005664D03*
X021498Y005740D03*
X021418Y005908D03*
X021414Y005912D03*
X021374Y005524D03*
X021018Y005320D03*
X020894Y005320D03*
D76*
X021346Y005320D03*
X020606Y006048D03*
X021342Y006452D03*
D77*
X021362Y006440D03*
X020554Y006444D03*
X020954Y005664D03*
X020310Y005552D03*
X020558Y005324D03*
X021358Y005328D03*
D78*
X021348Y005500D03*
X021352Y005504D03*
X021356Y005508D03*
X021360Y005512D03*
X021428Y005672D03*
X021436Y005680D03*
X021440Y005684D03*
X021444Y005688D03*
X021448Y005692D03*
X021400Y005924D03*
X020504Y005920D03*
X020412Y005740D03*
X020468Y005688D03*
X020472Y005684D03*
X020476Y005680D03*
X020484Y005672D03*
X020488Y005668D03*
X020492Y005664D03*
X020496Y005660D03*
X020556Y005508D03*
X020560Y005504D03*
X020564Y005500D03*
X020884Y005324D03*
D79*
X021026Y005324D03*
X021322Y005480D03*
X021334Y005488D03*
X021338Y005492D03*
X021126Y005684D03*
X020786Y005684D03*
X020582Y005484D03*
X020578Y005488D03*
X020574Y005492D03*
X020462Y005692D03*
X020454Y005700D03*
X020510Y005924D03*
X021126Y005832D03*
X021394Y005928D03*
X021462Y005704D03*
X021458Y005700D03*
X020954Y006320D03*
X020798Y006444D03*
D80*
X020816Y006372D03*
X020548Y006440D03*
X021124Y006304D03*
X021312Y006044D03*
X021220Y005920D03*
X020956Y005852D03*
X020692Y005920D03*
X020308Y005560D03*
X020552Y005328D03*
X021364Y005332D03*
D81*
X020876Y005328D03*
X020616Y005544D03*
X020416Y005732D03*
X020516Y005928D03*
D82*
X020522Y005932D03*
X020626Y005732D03*
X020438Y005712D03*
X020606Y005468D03*
X020610Y005464D03*
X021034Y005328D03*
X021294Y005460D03*
X021298Y005464D03*
X021306Y005468D03*
X021310Y005472D03*
X021294Y005544D03*
X021482Y005720D03*
X021486Y005724D03*
X021490Y005728D03*
X021494Y005732D03*
X021354Y006084D03*
D83*
X020786Y006300D03*
X021094Y006360D03*
X021374Y006432D03*
X021378Y006428D03*
X020538Y006432D03*
X020530Y006428D03*
X020306Y005568D03*
X020306Y005564D03*
X020546Y005332D03*
D84*
X020628Y005452D03*
X020868Y005332D03*
X021284Y005452D03*
X021284Y005732D03*
X021124Y005688D03*
X020784Y005688D03*
X020784Y005828D03*
X020628Y005728D03*
X020628Y005724D03*
X020628Y005720D03*
X020564Y006088D03*
X020568Y006092D03*
X020968Y006112D03*
X021104Y006424D03*
D85*
X021358Y006080D03*
X020562Y006084D03*
X020618Y005780D03*
X020618Y005772D03*
X020642Y005692D03*
X020642Y005688D03*
X021126Y005828D03*
X021282Y005728D03*
X021278Y005720D03*
X021274Y005712D03*
X021274Y005708D03*
X021266Y005440D03*
X021250Y005432D03*
X021042Y005332D03*
X020666Y005428D03*
X020658Y005432D03*
X020646Y005440D03*
D86*
X020542Y005336D03*
X021370Y005336D03*
X020814Y006376D03*
X020542Y006436D03*
D87*
X020632Y005936D03*
X021288Y005776D03*
X020688Y005416D03*
X020860Y005336D03*
D88*
X021050Y005336D03*
X021222Y005416D03*
X020622Y005796D03*
X021358Y006076D03*
X020798Y006436D03*
D89*
X020596Y006052D03*
X020956Y005668D03*
X020536Y005340D03*
X021376Y005340D03*
X021380Y005344D03*
D90*
X020850Y005340D03*
X020706Y005408D03*
X021262Y005688D03*
X021286Y005792D03*
X020626Y005804D03*
X020626Y005808D03*
D91*
X020624Y005800D03*
X020784Y005824D03*
X020784Y005692D03*
X021264Y005692D03*
X021268Y005700D03*
X021284Y005788D03*
X021208Y005408D03*
X021060Y005340D03*
X020696Y005412D03*
D92*
X020530Y005344D03*
X020526Y005348D03*
X020302Y005580D03*
X020954Y005848D03*
X021318Y006048D03*
X021094Y006364D03*
X020814Y006380D03*
X020518Y006420D03*
X021390Y006420D03*
X021386Y005348D03*
D93*
X021192Y005400D03*
X021068Y005344D03*
X020844Y005344D03*
X021256Y005680D03*
X021284Y005800D03*
X021284Y005804D03*
X021284Y005808D03*
X020956Y005788D03*
X020956Y005784D03*
X020784Y005820D03*
X020628Y005812D03*
X021356Y006072D03*
X020800Y006432D03*
D94*
X020956Y005792D03*
X020756Y005384D03*
X020836Y005348D03*
D95*
X020738Y005392D03*
X021074Y005348D03*
X021174Y005392D03*
X021250Y005672D03*
X021282Y005812D03*
X021126Y005820D03*
X020954Y005780D03*
X020954Y005732D03*
X020662Y005664D03*
X021266Y005932D03*
X021350Y005948D03*
X021102Y006412D03*
D96*
X021400Y006412D03*
X021128Y006312D03*
X020780Y006308D03*
X020508Y006412D03*
X020952Y005844D03*
X020300Y005584D03*
X020520Y005352D03*
X021392Y005352D03*
D97*
X020514Y005356D03*
X020298Y005596D03*
X020590Y006056D03*
X020966Y006116D03*
D98*
X021628Y006056D03*
X021644Y005976D03*
X021648Y005916D03*
X021648Y005896D03*
X021648Y005876D03*
X021648Y005856D03*
X021644Y005796D03*
X021628Y005716D03*
X021088Y005356D03*
X020264Y005816D03*
X020264Y005836D03*
X020264Y005936D03*
X020264Y005956D03*
X020268Y005976D03*
X020284Y006056D03*
X020288Y006076D03*
D99*
X021396Y006416D03*
X021396Y005356D03*
D100*
X021402Y005360D03*
X021406Y005364D03*
X020510Y005360D03*
X020298Y005588D03*
X020298Y005592D03*
X020954Y005840D03*
X020950Y006352D03*
X020810Y006384D03*
X020506Y006408D03*
X021406Y006408D03*
X021410Y006404D03*
X021414Y006400D03*
D101*
X021104Y006400D03*
X020952Y006332D03*
X020804Y006420D03*
X020324Y006172D03*
X020320Y006164D03*
X020320Y006160D03*
X020316Y006152D03*
X020312Y006148D03*
X020312Y006144D03*
X020304Y006124D03*
X021272Y005840D03*
X020956Y005812D03*
X021588Y005600D03*
X021592Y005612D03*
X021596Y005620D03*
X021596Y005624D03*
X021600Y005628D03*
X021600Y005632D03*
X021604Y005640D03*
X021608Y005648D03*
X021608Y005652D03*
X021612Y005660D03*
X021612Y005664D03*
X021616Y005672D03*
X020956Y005444D03*
X020816Y005360D03*
X020808Y005364D03*
X021096Y005360D03*
X020268Y005752D03*
X020268Y005760D03*
X020268Y005764D03*
X020268Y005768D03*
X020268Y005772D03*
X021584Y006180D03*
X021592Y006160D03*
X021596Y006152D03*
X021596Y006148D03*
X021600Y006144D03*
X021600Y006140D03*
X021604Y006132D03*
X021608Y006124D03*
X021608Y006120D03*
X021612Y006108D03*
X021616Y006100D03*
D102*
X020780Y006312D03*
X021096Y006372D03*
X021424Y006392D03*
X020500Y006404D03*
X020496Y006400D03*
X020296Y005604D03*
X020296Y005600D03*
X020956Y005452D03*
X020504Y005364D03*
X020500Y005368D03*
X021412Y005368D03*
X021416Y005372D03*
D103*
X021102Y005364D03*
X020790Y005372D03*
X021574Y005572D03*
X021578Y005580D03*
X021582Y005584D03*
X021582Y005588D03*
X021590Y005604D03*
X021590Y005608D03*
X020954Y005704D03*
X020954Y005708D03*
X020642Y005844D03*
X020270Y005748D03*
X020270Y005744D03*
X020270Y005740D03*
X020322Y006168D03*
X020330Y006184D03*
X020330Y006188D03*
X020334Y006192D03*
X020338Y006200D03*
X020342Y006208D03*
X020770Y006352D03*
X021134Y006352D03*
X021574Y006200D03*
X021578Y006192D03*
X021578Y006188D03*
X021582Y006184D03*
X021590Y006168D03*
X021590Y006164D03*
D104*
X021572Y006204D03*
X021568Y006208D03*
X021568Y006212D03*
X021560Y006220D03*
X021560Y006224D03*
X021556Y006228D03*
X021556Y006232D03*
X021344Y005944D03*
X021252Y005928D03*
X021268Y005844D03*
X020684Y005652D03*
X020272Y005720D03*
X020272Y005724D03*
X020272Y005728D03*
X020272Y005732D03*
X020644Y005848D03*
X020568Y005944D03*
X020340Y006204D03*
X020344Y006212D03*
X020348Y006220D03*
X020352Y006224D03*
X020352Y006228D03*
X020356Y006232D03*
X021568Y005564D03*
X021568Y005560D03*
X021572Y005568D03*
X021564Y005552D03*
X021560Y005548D03*
X021556Y005540D03*
X021552Y005532D03*
X021120Y005372D03*
X021108Y005368D03*
X020800Y005368D03*
D105*
X020494Y005372D03*
X020294Y005608D03*
X020294Y005612D03*
X020478Y006384D03*
D106*
X020490Y005376D03*
X021422Y005376D03*
D107*
X021132Y005376D03*
X021604Y005636D03*
X020268Y005756D03*
X020268Y005776D03*
X020300Y006116D03*
X020308Y006136D03*
X020316Y006156D03*
X021604Y006136D03*
D108*
X021130Y006320D03*
X020950Y006348D03*
X020810Y006388D03*
X020486Y006392D03*
X020482Y006388D03*
X021426Y006388D03*
X021430Y005384D03*
X021426Y005380D03*
X020486Y005380D03*
D109*
X020768Y005380D03*
X021144Y005380D03*
X021624Y005700D03*
X021624Y005704D03*
X021628Y005708D03*
X021628Y005712D03*
X021628Y005720D03*
X021644Y005800D03*
X021644Y005804D03*
X021644Y005808D03*
X021644Y005812D03*
X021648Y005840D03*
X021648Y005844D03*
X021648Y005848D03*
X021648Y005852D03*
X021648Y005860D03*
X021648Y005864D03*
X021648Y005868D03*
X021648Y005872D03*
X021648Y005880D03*
X021648Y005884D03*
X021648Y005888D03*
X021648Y005892D03*
X021648Y005900D03*
X021648Y005904D03*
X021648Y005908D03*
X021648Y005912D03*
X021648Y005920D03*
X021648Y005924D03*
X021648Y005928D03*
X021648Y005932D03*
X021644Y005960D03*
X021644Y005964D03*
X021644Y005968D03*
X021644Y005972D03*
X021628Y006052D03*
X021628Y006060D03*
X021624Y006068D03*
X021624Y006072D03*
X020784Y005812D03*
X020264Y005812D03*
X020264Y005808D03*
X020264Y005804D03*
X020264Y005820D03*
X020264Y005824D03*
X020264Y005828D03*
X020264Y005832D03*
X020264Y005840D03*
X020264Y005844D03*
X020264Y005928D03*
X020264Y005932D03*
X020264Y005940D03*
X020264Y005944D03*
X020264Y005948D03*
X020264Y005952D03*
X020264Y005960D03*
X020264Y005964D03*
X020268Y005968D03*
X020268Y005972D03*
X020268Y005980D03*
X020268Y005984D03*
X020268Y005988D03*
X020284Y006060D03*
X020284Y006064D03*
X020284Y006068D03*
X020288Y006072D03*
D110*
X020776Y006320D03*
X020808Y006392D03*
X020472Y006380D03*
X020464Y006372D03*
X021328Y006052D03*
X021436Y006380D03*
X021432Y006384D03*
X020292Y005620D03*
X020472Y005392D03*
X020476Y005388D03*
X020480Y005384D03*
D111*
X020748Y005388D03*
X021164Y005388D03*
X020668Y005660D03*
X020952Y005724D03*
X020952Y005728D03*
X020628Y005820D03*
X020644Y005932D03*
X020560Y005948D03*
X020952Y006328D03*
X020800Y006428D03*
D112*
X020462Y006368D03*
X021130Y006324D03*
X021450Y006368D03*
X021454Y006364D03*
X020958Y005680D03*
X020290Y005628D03*
X020290Y005624D03*
X021434Y005388D03*
X021438Y005392D03*
D113*
X020466Y005396D03*
D114*
X020728Y005396D03*
X020784Y005696D03*
X021284Y005796D03*
D115*
X021126Y005696D03*
X021254Y005676D03*
X020630Y005816D03*
X020562Y006076D03*
X021182Y005396D03*
D116*
X021442Y005396D03*
X020954Y005836D03*
X021442Y006376D03*
D117*
X021456Y006360D03*
X021464Y006352D03*
X021468Y006348D03*
X021132Y006328D03*
X021100Y006380D03*
X020952Y006344D03*
X020776Y006324D03*
X020456Y006364D03*
X020452Y006360D03*
X020672Y005924D03*
X021240Y005924D03*
X021252Y005860D03*
X020288Y005632D03*
X020452Y005412D03*
X020456Y005408D03*
X020460Y005404D03*
X020464Y005400D03*
X021448Y005400D03*
X021452Y005404D03*
X021456Y005408D03*
X021460Y005412D03*
D118*
X021198Y005404D03*
X021258Y005684D03*
X020658Y005668D03*
X020654Y005672D03*
X020714Y005404D03*
X020718Y005400D03*
D119*
X021214Y005412D03*
X021270Y005704D03*
X020622Y005792D03*
X020562Y006080D03*
X020954Y006324D03*
X021102Y006420D03*
D120*
X020808Y006396D03*
X020448Y006356D03*
X021460Y006356D03*
X020288Y005636D03*
X020448Y005416D03*
D121*
X021350Y005556D03*
X021462Y005416D03*
X021334Y006056D03*
D122*
X021130Y006332D03*
X020774Y006328D03*
X020446Y006352D03*
X020442Y006348D03*
X020438Y006344D03*
X020434Y006340D03*
X020658Y005864D03*
X020954Y005832D03*
X020286Y005648D03*
X020286Y005644D03*
X020286Y005640D03*
X020566Y005552D03*
X020442Y005424D03*
X020446Y005420D03*
X021342Y005548D03*
X021346Y005552D03*
X021470Y005424D03*
X021466Y005420D03*
D123*
X021244Y005428D03*
X021236Y005424D03*
X021232Y005420D03*
X020680Y005420D03*
X020672Y005424D03*
X020648Y005680D03*
X020644Y005684D03*
X020620Y005784D03*
X020620Y005788D03*
X020556Y005952D03*
X021356Y005952D03*
D124*
X021336Y005940D03*
X020576Y005940D03*
X020956Y005684D03*
X020556Y005560D03*
X020432Y005432D03*
X020436Y005428D03*
X021352Y005560D03*
X021476Y005428D03*
X020420Y006324D03*
X021100Y006384D03*
X021472Y006344D03*
X021476Y006340D03*
D125*
X021498Y006316D03*
X020414Y006316D03*
X020430Y005436D03*
X021482Y005436D03*
X021498Y005456D03*
D126*
X020652Y005436D03*
D127*
X021258Y005436D03*
X021278Y005716D03*
X021278Y005936D03*
X020618Y005776D03*
X020638Y005696D03*
D128*
X020422Y005808D03*
X020434Y005832D03*
X020438Y005840D03*
X020442Y005848D03*
X020450Y005860D03*
X020458Y005872D03*
X020586Y006108D03*
X021334Y006104D03*
X021366Y005960D03*
X021458Y005864D03*
X021466Y005852D03*
X021470Y005844D03*
X021474Y005840D03*
X021478Y005832D03*
X021482Y005824D03*
X021490Y005804D03*
X021502Y005752D03*
X021082Y005708D03*
X021282Y005540D03*
X020954Y005440D03*
D129*
X020640Y005444D03*
X020632Y005448D03*
X020616Y005460D03*
X021272Y005444D03*
X021276Y005448D03*
X021280Y005724D03*
X020636Y005704D03*
X020636Y005700D03*
X020632Y005708D03*
X020632Y005712D03*
X020796Y006440D03*
D130*
X020396Y006292D03*
X020956Y005688D03*
X020536Y005580D03*
X020956Y005448D03*
X021496Y005452D03*
D131*
X021492Y005448D03*
X021500Y005460D03*
X021504Y005464D03*
X021508Y005468D03*
X020544Y005572D03*
X020280Y005672D03*
X020280Y005680D03*
X020652Y005860D03*
X020392Y006288D03*
X020404Y006304D03*
X020408Y006308D03*
X021132Y006340D03*
X021500Y006312D03*
X021508Y006300D03*
D132*
X020656Y006496D03*
X020348Y005456D03*
D133*
X020594Y005476D03*
X020622Y005456D03*
X020630Y005716D03*
X020622Y005736D03*
X020530Y005936D03*
X021382Y005936D03*
D134*
X021284Y005736D03*
X021288Y005456D03*
D135*
X020954Y005468D03*
X020346Y005460D03*
X020642Y006032D03*
D136*
X020798Y006284D03*
X020326Y005504D03*
X020954Y005460D03*
D137*
X020344Y005464D03*
X021264Y006492D03*
D138*
X021278Y006488D03*
X021102Y006280D03*
X020810Y006280D03*
X020634Y006488D03*
X020954Y005464D03*
D139*
X020600Y005472D03*
X020588Y005480D03*
X020448Y005704D03*
X020444Y005708D03*
X020428Y005720D03*
X020424Y005724D03*
X020420Y005728D03*
X020784Y005832D03*
X021388Y005932D03*
X021352Y006088D03*
X021348Y006092D03*
X021472Y005712D03*
X021468Y005708D03*
X021328Y005484D03*
X021104Y006428D03*
D140*
X021514Y006292D03*
X021518Y006288D03*
X021522Y006284D03*
X020402Y006300D03*
X020390Y006284D03*
X020386Y006280D03*
X021262Y005852D03*
X020954Y005692D03*
X020534Y005584D03*
X020278Y005684D03*
X020278Y005688D03*
X021374Y005580D03*
X021378Y005584D03*
X021522Y005488D03*
X021526Y005492D03*
X021534Y005504D03*
X021518Y005480D03*
X021510Y005472D03*
D141*
X020338Y005476D03*
X020634Y006036D03*
D142*
X020956Y005476D03*
D143*
X021316Y005476D03*
X021476Y005716D03*
X021496Y005736D03*
D144*
X021514Y005476D03*
X020650Y005856D03*
X020398Y006296D03*
D145*
X021216Y006508D03*
X021240Y006020D03*
X020956Y005944D03*
X020956Y005480D03*
D146*
X020956Y005484D03*
D147*
X021520Y005484D03*
X021532Y005500D03*
X021536Y005508D03*
X021540Y005512D03*
X021544Y005520D03*
X021548Y005524D03*
X020952Y005824D03*
X020648Y005852D03*
X020276Y005700D03*
X020276Y005692D03*
X021264Y005848D03*
X021340Y006060D03*
X021544Y006252D03*
X021536Y006264D03*
X021532Y006268D03*
X021532Y006272D03*
X021524Y006280D03*
X021132Y006344D03*
X021104Y006392D03*
X020804Y006408D03*
X020772Y006344D03*
X020772Y006340D03*
X020380Y006272D03*
X020376Y006268D03*
X020376Y006264D03*
X020372Y006260D03*
X020368Y006252D03*
D148*
X020954Y006632D03*
X020330Y005492D03*
D149*
X020956Y005492D03*
X020960Y006132D03*
D150*
X020610Y006476D03*
X020330Y005496D03*
D151*
X020568Y005496D03*
X020500Y005656D03*
X020480Y005676D03*
X021432Y005676D03*
D152*
X020956Y005496D03*
X020956Y006616D03*
D153*
X021018Y006356D03*
X020574Y006096D03*
X020550Y005956D03*
X020414Y005736D03*
X020458Y005696D03*
X021342Y005496D03*
X021454Y005696D03*
X021362Y005956D03*
D154*
X021528Y006276D03*
X020952Y006336D03*
X020384Y006276D03*
X020276Y005696D03*
X021528Y005496D03*
D155*
X020954Y005500D03*
D156*
X020956Y005504D03*
D157*
X020324Y005508D03*
X020324Y005512D03*
D158*
X020542Y005520D03*
X020550Y005512D03*
X020530Y005628D03*
X020526Y005632D03*
X020510Y005648D03*
X020506Y005652D03*
X020490Y005908D03*
X021406Y005920D03*
X021422Y005668D03*
X021406Y005652D03*
X021402Y005648D03*
X021370Y005620D03*
X021370Y005520D03*
X021106Y006432D03*
D159*
X020956Y005512D03*
D160*
X020322Y005516D03*
D161*
X020546Y005516D03*
X020522Y005636D03*
X021366Y005616D03*
X021410Y005656D03*
X021366Y005516D03*
X021410Y005916D03*
X021342Y006096D03*
D162*
X020954Y005516D03*
D163*
X021542Y005516D03*
X021542Y006256D03*
X020370Y006256D03*
D164*
X020956Y005520D03*
D165*
X020552Y005608D03*
X020548Y005612D03*
X020540Y005620D03*
X020536Y005624D03*
X020412Y005744D03*
X020472Y005888D03*
X020476Y005892D03*
X020484Y005900D03*
X020488Y005904D03*
X021384Y005632D03*
X021360Y005612D03*
X021356Y005608D03*
X021352Y005604D03*
X021392Y005540D03*
X021384Y005532D03*
X021380Y005528D03*
X021500Y005744D03*
X021428Y005900D03*
X021424Y005904D03*
X020536Y005524D03*
X020532Y005528D03*
X020528Y005532D03*
D166*
X020956Y005528D03*
D167*
X021550Y005528D03*
X021550Y006240D03*
X021550Y006244D03*
X021546Y006248D03*
X020802Y006412D03*
X020770Y006348D03*
X020366Y006248D03*
X020362Y006244D03*
X020362Y006240D03*
D168*
X020956Y006600D03*
X020956Y005532D03*
D169*
X020314Y005536D03*
X020954Y005856D03*
D170*
X020784Y005836D03*
X020480Y005896D03*
X020544Y005616D03*
X020524Y005536D03*
X021388Y005536D03*
X021388Y005636D03*
D171*
X020956Y005536D03*
D172*
X020954Y005696D03*
X021554Y005536D03*
X020274Y005716D03*
X020358Y006236D03*
D173*
X020818Y006368D03*
X020314Y005540D03*
D174*
X020514Y005544D03*
X020514Y005548D03*
X020518Y005540D03*
X020562Y005600D03*
X020558Y005604D03*
X020574Y005592D03*
X020578Y005588D03*
X020410Y005748D03*
X020818Y005704D03*
X021090Y005704D03*
X021162Y005704D03*
X021334Y005588D03*
X021338Y005592D03*
X021394Y005544D03*
X021502Y005748D03*
X021338Y006100D03*
X020582Y006104D03*
X020798Y006448D03*
D175*
X020548Y005960D03*
X020468Y005884D03*
X020464Y005880D03*
X020456Y005868D03*
X020452Y005864D03*
X020444Y005852D03*
X020440Y005844D03*
X020408Y005752D03*
X020748Y005704D03*
X020628Y005540D03*
X021436Y005892D03*
X021440Y005888D03*
X021444Y005884D03*
X021452Y005872D03*
X021456Y005868D03*
X021460Y005860D03*
X021468Y005848D03*
D176*
X020956Y005540D03*
D177*
X020956Y005544D03*
D178*
X020954Y005700D03*
X020954Y005820D03*
X020658Y005928D03*
X020574Y006068D03*
X021134Y006348D03*
X021538Y006260D03*
X020274Y005712D03*
X020274Y005708D03*
X020274Y005704D03*
X021558Y005544D03*
D179*
X021126Y005692D03*
X021126Y005824D03*
X021286Y005784D03*
X021286Y005780D03*
X020606Y005548D03*
D180*
X020956Y005548D03*
D181*
X020956Y005552D03*
D182*
X020308Y005556D03*
X021368Y006436D03*
X020956Y006636D03*
D183*
X021132Y006336D03*
X021480Y006336D03*
X020432Y006336D03*
X020560Y005556D03*
D184*
X020956Y005556D03*
D185*
X021564Y005556D03*
X021576Y005576D03*
X021564Y006216D03*
X021552Y006236D03*
X021104Y006396D03*
X020348Y006216D03*
D186*
X020956Y005564D03*
D187*
X020304Y005572D03*
X020784Y006304D03*
X021124Y006308D03*
X021384Y006424D03*
X020524Y006424D03*
D188*
X020952Y006160D03*
X020956Y005960D03*
X020956Y005572D03*
D189*
X020302Y005576D03*
X020514Y006416D03*
D190*
X020772Y006336D03*
X021512Y006296D03*
X021260Y005856D03*
X021368Y005576D03*
X020540Y005576D03*
X020280Y005676D03*
D191*
X020954Y005576D03*
X020958Y006256D03*
D192*
X020956Y005584D03*
D193*
X020460Y005588D03*
X021452Y005588D03*
D194*
X020954Y005592D03*
D195*
X021586Y005592D03*
X021346Y006064D03*
X021586Y006172D03*
X020326Y006180D03*
D196*
X021434Y005896D03*
X021342Y005596D03*
X020570Y005596D03*
D197*
X020956Y005596D03*
D198*
X021586Y005596D03*
X021586Y006176D03*
X020326Y006176D03*
D199*
X020960Y006188D03*
X020960Y006192D03*
X020956Y005600D03*
D200*
X021346Y005600D03*
X021446Y005880D03*
D201*
X020956Y005604D03*
X020956Y006172D03*
X020960Y006180D03*
X020960Y006184D03*
D202*
X020954Y005608D03*
D203*
X020956Y005612D03*
X020956Y006572D03*
D204*
X021100Y006376D03*
X020468Y006376D03*
X020292Y005616D03*
D205*
X020956Y005616D03*
D206*
X020954Y005816D03*
X021594Y005616D03*
X020270Y005736D03*
X021594Y006156D03*
X021574Y006196D03*
X021134Y006356D03*
X020802Y006416D03*
X020334Y006196D03*
D207*
X020954Y005620D03*
D208*
X020954Y005624D03*
D209*
X020954Y005632D03*
D210*
X020956Y005636D03*
D211*
X020954Y005640D03*
D212*
X020954Y005648D03*
D213*
X020284Y005652D03*
X020424Y006328D03*
X020428Y006332D03*
X020808Y006400D03*
X021484Y006332D03*
D214*
X021056Y005652D03*
D215*
X020284Y005656D03*
D216*
X020958Y005656D03*
X021294Y006036D03*
D217*
X021620Y006084D03*
X021632Y006044D03*
X021632Y006040D03*
X021632Y006032D03*
X021636Y006028D03*
X021636Y006024D03*
X021636Y006020D03*
X021640Y006004D03*
X021640Y006000D03*
X021640Y005772D03*
X021640Y005768D03*
X021636Y005752D03*
X021636Y005748D03*
X021636Y005744D03*
X021632Y005740D03*
X021632Y005732D03*
X021632Y005728D03*
X021620Y005688D03*
X021276Y005828D03*
X021240Y005660D03*
X020956Y005800D03*
X020956Y005804D03*
X020632Y005832D03*
X020272Y006000D03*
X020272Y006004D03*
X020272Y006008D03*
X020272Y006012D03*
X020276Y006024D03*
X020276Y006028D03*
X020276Y006032D03*
X020280Y006040D03*
X020280Y006044D03*
X020280Y006048D03*
X020280Y006052D03*
X020292Y006088D03*
X020800Y006424D03*
D218*
X021096Y006368D03*
X020956Y005672D03*
D219*
X020652Y005676D03*
D220*
X020782Y005676D03*
X021126Y005676D03*
D221*
X020956Y005676D03*
X021128Y006316D03*
X021420Y006396D03*
X020492Y006396D03*
D222*
X021328Y006108D03*
X021484Y005820D03*
X021488Y005812D03*
X021488Y005808D03*
X021504Y005768D03*
X021504Y005764D03*
X021504Y005760D03*
X021168Y005808D03*
X020788Y005760D03*
X020784Y005752D03*
X020784Y005748D03*
X020784Y005680D03*
X020428Y005820D03*
X020428Y005824D03*
X020424Y005812D03*
X020408Y005772D03*
X020408Y005768D03*
X020408Y005760D03*
D223*
X021266Y005696D03*
D224*
X021172Y005708D03*
X021080Y005808D03*
X020740Y005808D03*
X020740Y005708D03*
X020432Y005828D03*
X020420Y005804D03*
X020420Y005800D03*
X020416Y005792D03*
X020412Y005784D03*
X020412Y005780D03*
X021480Y005828D03*
X021492Y005800D03*
X021496Y005792D03*
X021496Y005788D03*
X021496Y005784D03*
X021500Y005780D03*
D225*
X020432Y005716D03*
D226*
X020732Y005716D03*
X020840Y005716D03*
X021072Y005716D03*
X021068Y005796D03*
X021184Y005796D03*
X021180Y005716D03*
D227*
X020952Y005716D03*
X020636Y005836D03*
X020272Y005996D03*
X020276Y006036D03*
X021632Y006036D03*
X021636Y006016D03*
X021640Y005996D03*
X021632Y005736D03*
D228*
X021180Y005800D03*
X021128Y005768D03*
X021124Y005748D03*
X021068Y005720D03*
X021072Y005800D03*
X020840Y005800D03*
X020728Y005720D03*
X020724Y005724D03*
D229*
X020722Y005728D03*
X020722Y005788D03*
X020722Y005792D03*
X020730Y005800D03*
X020786Y005772D03*
X020846Y005792D03*
X020850Y005784D03*
X020850Y005732D03*
X020846Y005728D03*
X020846Y005724D03*
X020842Y005720D03*
X021062Y005728D03*
X021066Y005724D03*
X021126Y005744D03*
X021126Y005772D03*
X021066Y005792D03*
X021062Y005788D03*
X021186Y005792D03*
X021190Y005788D03*
X021190Y005732D03*
X021186Y005724D03*
X021182Y005720D03*
X020546Y005964D03*
X021322Y006112D03*
D230*
X020600Y006116D03*
X020716Y005776D03*
X020720Y005736D03*
X020852Y005736D03*
X020856Y005756D03*
X020852Y005776D03*
X021056Y005756D03*
X021060Y005736D03*
X021128Y005776D03*
X021196Y005756D03*
X021192Y005736D03*
D231*
X020784Y005736D03*
D232*
X020934Y005736D03*
D233*
X020956Y005736D03*
D234*
X020986Y005736D03*
X021126Y005756D03*
X020410Y005776D03*
D235*
X021328Y005740D03*
X020612Y006124D03*
D236*
X020718Y005780D03*
X020714Y005768D03*
X020714Y005764D03*
X020714Y005760D03*
X020714Y005752D03*
X020714Y005748D03*
X020854Y005748D03*
X020854Y005768D03*
X020854Y005772D03*
X021194Y005772D03*
X021194Y005748D03*
X021194Y005744D03*
D237*
X021194Y005776D03*
X020714Y005756D03*
X021314Y006116D03*
X020958Y006316D03*
D238*
X020424Y005816D03*
X020784Y005756D03*
X021504Y005756D03*
D239*
X021638Y005756D03*
X021642Y005776D03*
X021646Y005816D03*
X021646Y005836D03*
X021646Y005936D03*
X021646Y005956D03*
X021126Y005816D03*
X020958Y005796D03*
X020262Y005856D03*
X020262Y005876D03*
X020262Y005896D03*
X020262Y005916D03*
X020274Y006016D03*
D240*
X020658Y005768D03*
D241*
X021330Y005772D03*
X021370Y005968D03*
X021310Y006120D03*
D242*
X020788Y005776D03*
D243*
X020954Y005776D03*
D244*
X021058Y005776D03*
X020842Y005796D03*
X020726Y005796D03*
D245*
X020416Y005796D03*
X021492Y005796D03*
X021500Y005776D03*
D246*
X021126Y005780D03*
X021126Y005840D03*
D247*
X021280Y005816D03*
X020784Y005816D03*
D248*
X021126Y005836D03*
D249*
X020782Y005840D03*
X020542Y005968D03*
D250*
X020586Y006060D03*
X021246Y005864D03*
X021446Y006372D03*
D251*
X020954Y006152D03*
X021070Y005868D03*
D252*
X020954Y005872D03*
X020954Y005880D03*
X020954Y006540D03*
D253*
X020954Y005876D03*
D254*
X020956Y005884D03*
X020956Y005888D03*
X020956Y005892D03*
D255*
X020956Y005896D03*
D256*
X020954Y005900D03*
D257*
X020954Y005912D03*
D258*
X020498Y005916D03*
D259*
X020716Y005916D03*
D260*
X021194Y005916D03*
D261*
X020956Y005936D03*
D262*
X020956Y005940D03*
X020796Y006288D03*
X021116Y006292D03*
D263*
X020956Y005948D03*
D264*
X020956Y005952D03*
D265*
X020956Y005956D03*
X020956Y006596D03*
D266*
X020958Y005964D03*
D267*
X020956Y005972D03*
D268*
X020956Y005976D03*
D269*
X020956Y005980D03*
D270*
X020958Y005984D03*
D271*
X020956Y005996D03*
D272*
X020956Y006000D03*
D273*
X020956Y006004D03*
D274*
X020956Y006008D03*
D275*
X020956Y006012D03*
D276*
X020726Y006016D03*
D277*
X021206Y006016D03*
D278*
X020690Y006020D03*
X020954Y006620D03*
D279*
X021254Y006024D03*
D280*
X020656Y006028D03*
D281*
X021272Y006028D03*
D282*
X021282Y006032D03*
X021286Y006484D03*
X020626Y006484D03*
D283*
X020964Y006124D03*
D284*
X020958Y006136D03*
D285*
X020956Y006140D03*
D286*
X020954Y006148D03*
D287*
X020952Y006156D03*
D288*
X020948Y006164D03*
D289*
X020954Y006168D03*
X020958Y006200D03*
X020958Y006204D03*
D290*
X020960Y006176D03*
D291*
X020960Y006208D03*
X020960Y006212D03*
D292*
X020958Y006216D03*
D293*
X020958Y006228D03*
X020958Y006232D03*
D294*
X020960Y006236D03*
D295*
X020958Y006248D03*
X020958Y006252D03*
X020958Y006260D03*
D296*
X020958Y006264D03*
X020958Y006268D03*
D297*
X020958Y006276D03*
D298*
X020788Y006296D03*
D299*
X020778Y006316D03*
D300*
X020824Y006356D03*
D301*
X021102Y006416D03*
D302*
X020574Y006456D03*
D303*
X021254Y006496D03*
D304*
X020666Y006500D03*
D305*
X020682Y006504D03*
X021230Y006504D03*
D306*
X021196Y006512D03*
X020712Y006512D03*
D307*
X020956Y006516D03*
D308*
X020954Y006520D03*
D309*
X020954Y006528D03*
D310*
X020956Y006548D03*
D311*
X020956Y006552D03*
D312*
X020954Y006556D03*
D313*
X020954Y006560D03*
D314*
X020956Y006564D03*
D315*
X020956Y006568D03*
D316*
X020956Y006584D03*
D317*
X020954Y006588D03*
D318*
X020954Y006592D03*
D319*
X020954Y006612D03*
D320*
X002986Y004568D02*
X002986Y004332D01*
X002514Y004332D02*
X002514Y004568D01*
X001886Y004568D02*
X001886Y004332D01*
X001414Y004332D02*
X001414Y004568D01*
D321*
X001595Y003682D02*
X001595Y003549D01*
X001595Y003616D02*
X001395Y003616D01*
X001462Y003549D01*
X001495Y003461D02*
X001528Y003428D01*
X001528Y003328D01*
X001528Y003395D02*
X001595Y003461D01*
X001495Y003461D02*
X001428Y003461D01*
X001395Y003428D01*
X001395Y003328D01*
X001595Y003328D01*
X002495Y003328D02*
X002495Y003428D01*
X002528Y003461D01*
X002595Y003461D01*
X002628Y003428D01*
X002628Y003328D01*
X002628Y003395D02*
X002695Y003461D01*
X002695Y003549D02*
X002562Y003682D01*
X002528Y003682D01*
X002495Y003649D01*
X002495Y003582D01*
X002528Y003549D01*
X002695Y003549D02*
X002695Y003682D01*
X002695Y003328D02*
X002495Y003328D01*
M02*
