G75*
%MOIN*%
%OFA0B0*%
%FSLAX24Y24*%
%IPPOS*%
%LPD*%
%AMOC8*
5,1,8,0,0,1.08239X$1,22.5*
%
%ADD10R,0.0740X0.0740*%
%ADD11C,0.0740*%
%ADD12R,0.0472X0.0315*%
%ADD13C,0.0080*%
%ADD14C,0.0100*%
%ADD15C,0.0340*%
D10*
X006650Y000650D03*
X014650Y000650D03*
X011650Y006150D03*
D11*
X012650Y006150D03*
X013650Y006150D03*
X014650Y006150D03*
X015650Y006150D03*
X016650Y006150D03*
X017650Y006150D03*
X018650Y006150D03*
X010150Y006150D03*
X009150Y006150D03*
X008150Y006150D03*
X007150Y006150D03*
X006150Y006150D03*
X005150Y006150D03*
X004150Y006150D03*
X003150Y006150D03*
X002150Y006150D03*
X001150Y006150D03*
X000650Y000650D03*
X001650Y000650D03*
X002650Y000650D03*
X003650Y000650D03*
X004650Y000650D03*
X005650Y000650D03*
X007650Y000650D03*
X008650Y000650D03*
X009650Y000650D03*
X010650Y000650D03*
X011650Y000650D03*
X012650Y000650D03*
X013650Y000650D03*
X015650Y000650D03*
X016650Y000650D03*
X017650Y000650D03*
X018650Y000650D03*
X019650Y000650D03*
X020650Y000650D03*
X021650Y000650D03*
D12*
X002750Y004096D03*
X001650Y004096D03*
X001650Y004804D03*
X002750Y004804D03*
D13*
X002350Y004750D02*
X002350Y004550D01*
X002450Y004450D01*
X004550Y004450D01*
X004550Y002750D01*
X004950Y002350D01*
X006050Y001550D02*
X006050Y006050D01*
X006150Y006150D01*
X006850Y005850D02*
X007150Y006150D01*
X006850Y005850D02*
X006850Y000850D01*
X006650Y000650D01*
X005750Y000750D02*
X005650Y000650D01*
X005750Y000750D02*
X005750Y001250D01*
X006050Y001550D01*
X005250Y001350D02*
X005250Y006050D01*
X005150Y006150D01*
X004950Y004350D02*
X003150Y006150D01*
X000950Y006650D02*
X021650Y006650D01*
X021650Y000650D01*
X017650Y000650D02*
X016750Y001550D01*
X016750Y006050D01*
X016650Y006150D01*
X015750Y006050D02*
X015650Y006150D01*
X015750Y006050D02*
X015750Y001550D01*
X016650Y000650D01*
X015650Y000650D02*
X015550Y000750D01*
X015550Y001250D01*
X014750Y002050D01*
X014750Y006050D01*
X014650Y006150D01*
X013750Y006050D02*
X013650Y006150D01*
X013750Y006050D02*
X013750Y005550D01*
X014350Y004950D01*
X014350Y000950D01*
X014650Y000650D01*
X013650Y000650D02*
X012750Y001550D01*
X012750Y006050D01*
X012650Y006150D01*
X011650Y006150D02*
X011650Y001650D01*
X012650Y000650D01*
X011650Y000650D02*
X010250Y002050D01*
X010250Y006050D01*
X010150Y006150D01*
X009250Y006050D02*
X009150Y006150D01*
X009250Y006050D02*
X009250Y005550D01*
X009550Y005250D01*
X009550Y001750D01*
X010650Y000650D01*
X009650Y000650D02*
X009350Y000950D01*
X009350Y004150D01*
X008250Y005250D01*
X007950Y005750D02*
X008150Y005950D01*
X008150Y006150D01*
X007950Y005750D02*
X007950Y000950D01*
X007650Y000650D01*
X005250Y001350D02*
X004950Y001050D01*
X004950Y000950D01*
X004650Y000650D01*
X001750Y000750D02*
X001650Y000650D01*
X001750Y000750D02*
X001750Y002350D01*
X001650Y004096D02*
X001650Y004150D01*
X000650Y005150D01*
X000650Y006350D01*
X000950Y006650D01*
X001650Y004804D02*
X001650Y004750D01*
X002350Y004750D01*
X002750Y004150D02*
X001650Y004150D01*
X002750Y004150D02*
X002750Y004096D01*
D14*
X001265Y000300D02*
X001035Y000300D01*
X001091Y000355D01*
X001150Y000498D01*
X001209Y000355D01*
X001265Y000300D01*
X001218Y000347D02*
X001082Y000347D01*
X001128Y000446D02*
X001172Y000446D01*
X002035Y000300D02*
X002265Y000300D01*
X002209Y000355D01*
X002150Y000498D01*
X002091Y000355D01*
X002035Y000300D01*
X002082Y000347D02*
X002218Y000347D01*
X002172Y000446D02*
X002128Y000446D01*
X003035Y000300D02*
X003265Y000300D01*
X003209Y000355D01*
X003150Y000498D01*
X003091Y000355D01*
X003035Y000300D01*
X003082Y000347D02*
X003218Y000347D01*
X003172Y000446D02*
X003128Y000446D01*
X004035Y000300D02*
X004265Y000300D01*
X004209Y000355D01*
X004150Y000498D01*
X004091Y000355D01*
X004035Y000300D01*
X004082Y000347D02*
X004218Y000347D01*
X004172Y000446D02*
X004128Y000446D01*
X005035Y000300D02*
X005265Y000300D01*
X005209Y000355D01*
X005150Y000498D01*
X005091Y000355D01*
X005035Y000300D01*
X005082Y000347D02*
X005218Y000347D01*
X005172Y000446D02*
X005128Y000446D01*
X005150Y000802D02*
X005127Y000858D01*
X005140Y000871D01*
X005140Y000971D01*
X005329Y001160D01*
X005440Y001271D01*
X005440Y005707D01*
X005445Y005709D01*
X005591Y005855D01*
X005650Y005998D01*
X005709Y005855D01*
X005855Y005709D01*
X005860Y005707D01*
X005860Y001629D01*
X005560Y001329D01*
X005560Y001170D01*
X005547Y001170D01*
X005355Y001091D01*
X005209Y000945D01*
X005150Y000802D01*
X005134Y000840D02*
X005166Y000840D01*
X005140Y000938D02*
X005206Y000938D01*
X005205Y001037D02*
X005301Y001037D01*
X005304Y001135D02*
X005462Y001135D01*
X005402Y001234D02*
X005560Y001234D01*
X005563Y001332D02*
X005440Y001332D01*
X005440Y001431D02*
X005662Y001431D01*
X005760Y001529D02*
X005440Y001529D01*
X005440Y001628D02*
X005859Y001628D01*
X005860Y001726D02*
X005440Y001726D01*
X005440Y001825D02*
X005860Y001825D01*
X005860Y001923D02*
X005440Y001923D01*
X005440Y002022D02*
X005860Y002022D01*
X005860Y002120D02*
X005440Y002120D01*
X005440Y002219D02*
X005860Y002219D01*
X006240Y002219D02*
X006660Y002219D01*
X006660Y002120D02*
X006240Y002120D01*
X006240Y002022D02*
X006660Y002022D01*
X006660Y001923D02*
X006240Y001923D01*
X006240Y001825D02*
X006660Y001825D01*
X006660Y001726D02*
X006240Y001726D01*
X006240Y001628D02*
X006660Y001628D01*
X006660Y001529D02*
X006240Y001529D01*
X006240Y001471D02*
X006240Y005630D01*
X006253Y005630D01*
X006445Y005709D01*
X006591Y005855D01*
X006650Y005998D01*
X006673Y005942D01*
X006660Y005929D01*
X006660Y001170D01*
X006218Y001170D01*
X006130Y001082D01*
X006130Y000850D01*
X006091Y000945D01*
X005945Y001091D01*
X005940Y001093D01*
X005940Y001171D01*
X006129Y001360D01*
X006240Y001471D01*
X006199Y001431D02*
X006660Y001431D01*
X006660Y001332D02*
X006101Y001332D01*
X006002Y001234D02*
X006660Y001234D01*
X007040Y001234D02*
X007760Y001234D01*
X007753Y001170D02*
X007547Y001170D01*
X007355Y001091D01*
X007209Y000945D01*
X007170Y000850D01*
X007170Y001082D01*
X007082Y001170D01*
X007040Y001170D01*
X007040Y005633D01*
X007047Y005630D01*
X007253Y005630D01*
X007445Y005709D01*
X007591Y005855D01*
X007650Y005998D01*
X007709Y005855D01*
X007760Y005805D01*
X007760Y001167D01*
X007753Y001170D01*
X007462Y001135D02*
X007117Y001135D01*
X007170Y001037D02*
X007301Y001037D01*
X007206Y000938D02*
X007170Y000938D01*
X008127Y000858D02*
X008140Y000871D01*
X008140Y004949D01*
X008186Y004930D01*
X008301Y004930D01*
X009160Y004071D01*
X009160Y000871D01*
X009173Y000858D01*
X009150Y000802D01*
X009091Y000945D01*
X008945Y001091D01*
X008753Y001170D01*
X008547Y001170D01*
X008355Y001091D01*
X008209Y000945D01*
X008150Y000802D01*
X008127Y000858D01*
X008134Y000840D02*
X008166Y000840D01*
X008140Y000938D02*
X008206Y000938D01*
X008140Y001037D02*
X008301Y001037D01*
X008140Y001135D02*
X008462Y001135D01*
X008140Y001234D02*
X009160Y001234D01*
X009160Y001332D02*
X008140Y001332D01*
X008140Y001431D02*
X009160Y001431D01*
X009540Y001431D02*
X009601Y001431D01*
X009540Y001491D02*
X009938Y001094D01*
X009753Y001170D01*
X009547Y001170D01*
X009540Y001167D01*
X009540Y001491D01*
X009160Y001529D02*
X008140Y001529D01*
X008140Y001628D02*
X009160Y001628D01*
X009160Y001726D02*
X008140Y001726D01*
X008140Y001825D02*
X009160Y001825D01*
X009160Y001923D02*
X008140Y001923D01*
X008140Y002022D02*
X009160Y002022D01*
X009160Y002120D02*
X008140Y002120D01*
X008140Y002219D02*
X009160Y002219D01*
X009160Y002317D02*
X008140Y002317D01*
X008140Y002416D02*
X009160Y002416D01*
X009160Y002514D02*
X008140Y002514D01*
X008140Y002613D02*
X009160Y002613D01*
X009160Y002711D02*
X008140Y002711D01*
X008140Y002810D02*
X009160Y002810D01*
X009160Y002908D02*
X008140Y002908D01*
X008140Y003007D02*
X009160Y003007D01*
X009160Y003105D02*
X008140Y003105D01*
X008140Y003204D02*
X009160Y003204D01*
X009160Y003302D02*
X008140Y003302D01*
X008140Y003401D02*
X009160Y003401D01*
X009160Y003499D02*
X008140Y003499D01*
X008140Y003598D02*
X009160Y003598D01*
X009160Y003696D02*
X008140Y003696D01*
X008140Y003795D02*
X009160Y003795D01*
X009160Y003893D02*
X008140Y003893D01*
X008140Y003992D02*
X009160Y003992D01*
X009141Y004090D02*
X008140Y004090D01*
X008140Y004189D02*
X009043Y004189D01*
X008944Y004287D02*
X008140Y004287D01*
X008140Y004386D02*
X008846Y004386D01*
X008747Y004484D02*
X008140Y004484D01*
X008140Y004583D02*
X008649Y004583D01*
X008550Y004681D02*
X008140Y004681D01*
X008140Y004780D02*
X008452Y004780D01*
X008353Y004878D02*
X008140Y004878D01*
X007760Y004878D02*
X007040Y004878D01*
X007040Y004780D02*
X007760Y004780D01*
X007760Y004681D02*
X007040Y004681D01*
X007040Y004583D02*
X007760Y004583D01*
X007760Y004484D02*
X007040Y004484D01*
X007040Y004386D02*
X007760Y004386D01*
X007760Y004287D02*
X007040Y004287D01*
X007040Y004189D02*
X007760Y004189D01*
X007760Y004090D02*
X007040Y004090D01*
X007040Y003992D02*
X007760Y003992D01*
X007760Y003893D02*
X007040Y003893D01*
X007040Y003795D02*
X007760Y003795D01*
X007760Y003696D02*
X007040Y003696D01*
X007040Y003598D02*
X007760Y003598D01*
X007760Y003499D02*
X007040Y003499D01*
X007040Y003401D02*
X007760Y003401D01*
X007760Y003302D02*
X007040Y003302D01*
X007040Y003204D02*
X007760Y003204D01*
X007760Y003105D02*
X007040Y003105D01*
X007040Y003007D02*
X007760Y003007D01*
X007760Y002908D02*
X007040Y002908D01*
X007040Y002810D02*
X007760Y002810D01*
X007760Y002711D02*
X007040Y002711D01*
X007040Y002613D02*
X007760Y002613D01*
X007760Y002514D02*
X007040Y002514D01*
X007040Y002416D02*
X007760Y002416D01*
X007760Y002317D02*
X007040Y002317D01*
X007040Y002219D02*
X007760Y002219D01*
X007760Y002120D02*
X007040Y002120D01*
X007040Y002022D02*
X007760Y002022D01*
X007760Y001923D02*
X007040Y001923D01*
X007040Y001825D02*
X007760Y001825D01*
X007760Y001726D02*
X007040Y001726D01*
X007040Y001628D02*
X007760Y001628D01*
X007760Y001529D02*
X007040Y001529D01*
X007040Y001431D02*
X007760Y001431D01*
X007760Y001332D02*
X007040Y001332D01*
X006183Y001135D02*
X005940Y001135D01*
X005999Y001037D02*
X006130Y001037D01*
X006130Y000938D02*
X006094Y000938D01*
X004963Y001332D02*
X001940Y001332D01*
X001940Y001234D02*
X004865Y001234D01*
X004787Y001156D02*
X005060Y001429D01*
X005060Y002049D01*
X005014Y002030D01*
X004886Y002030D01*
X004769Y002079D01*
X004679Y002169D01*
X004630Y002286D01*
X004630Y002401D01*
X004360Y002671D01*
X004360Y004260D01*
X003136Y004260D01*
X003136Y003876D01*
X003048Y003788D01*
X002452Y003788D01*
X002364Y003876D01*
X002364Y003960D01*
X002036Y003960D01*
X002036Y003876D01*
X001948Y003788D01*
X001352Y003788D01*
X001264Y003876D01*
X001264Y004268D01*
X000571Y004960D01*
X000460Y005071D01*
X000460Y006429D01*
X000760Y006729D01*
X000871Y006840D01*
X021729Y006840D01*
X021840Y006729D01*
X021840Y001134D01*
X021945Y001091D01*
X022000Y001035D01*
X022000Y006788D01*
X021888Y006900D01*
X000412Y006900D01*
X000300Y006788D01*
X000300Y001035D01*
X000355Y001091D01*
X000547Y001170D01*
X000753Y001170D01*
X000945Y001091D01*
X001091Y000945D01*
X001150Y000802D01*
X001209Y000945D01*
X001355Y001091D01*
X001547Y001170D01*
X001560Y001170D01*
X001560Y002087D01*
X001479Y002169D01*
X001430Y002286D01*
X001430Y002414D01*
X001479Y002531D01*
X001569Y002621D01*
X001686Y002670D01*
X001814Y002670D01*
X001931Y002621D01*
X002021Y002531D01*
X002070Y002414D01*
X002070Y002286D01*
X002021Y002169D01*
X001940Y002087D01*
X001940Y001093D01*
X001945Y001091D01*
X002091Y000945D01*
X002150Y000802D01*
X002209Y000945D01*
X002355Y001091D01*
X002547Y001170D01*
X002753Y001170D01*
X002945Y001091D01*
X003091Y000945D01*
X003150Y000802D01*
X003209Y000945D01*
X003355Y001091D01*
X003547Y001170D01*
X003753Y001170D01*
X003945Y001091D01*
X004091Y000945D01*
X004150Y000802D01*
X004209Y000945D01*
X004355Y001091D01*
X004547Y001170D01*
X004753Y001170D01*
X004787Y001156D01*
X004462Y001135D02*
X003838Y001135D01*
X003999Y001037D02*
X004301Y001037D01*
X004206Y000938D02*
X004094Y000938D01*
X004134Y000840D02*
X004166Y000840D01*
X003462Y001135D02*
X002838Y001135D01*
X002999Y001037D02*
X003301Y001037D01*
X003206Y000938D02*
X003094Y000938D01*
X003134Y000840D02*
X003166Y000840D01*
X002462Y001135D02*
X001940Y001135D01*
X001999Y001037D02*
X002301Y001037D01*
X002206Y000938D02*
X002094Y000938D01*
X002134Y000840D02*
X002166Y000840D01*
X001462Y001135D02*
X000838Y001135D01*
X000999Y001037D02*
X001301Y001037D01*
X001206Y000938D02*
X001094Y000938D01*
X001134Y000840D02*
X001166Y000840D01*
X000462Y001135D02*
X000300Y001135D01*
X000300Y001037D02*
X000301Y001037D01*
X000300Y001234D02*
X001560Y001234D01*
X001560Y001332D02*
X000300Y001332D01*
X000300Y001431D02*
X001560Y001431D01*
X001560Y001529D02*
X000300Y001529D01*
X000300Y001628D02*
X001560Y001628D01*
X001560Y001726D02*
X000300Y001726D01*
X000300Y001825D02*
X001560Y001825D01*
X001560Y001923D02*
X000300Y001923D01*
X000300Y002022D02*
X001560Y002022D01*
X001527Y002120D02*
X000300Y002120D01*
X000300Y002219D02*
X001458Y002219D01*
X001430Y002317D02*
X000300Y002317D01*
X000300Y002416D02*
X001431Y002416D01*
X001472Y002514D02*
X000300Y002514D01*
X000300Y002613D02*
X001560Y002613D01*
X001940Y002613D02*
X004419Y002613D01*
X004360Y002711D02*
X000300Y002711D01*
X000300Y002810D02*
X004360Y002810D01*
X004360Y002908D02*
X000300Y002908D01*
X000300Y003007D02*
X004360Y003007D01*
X004360Y003105D02*
X000300Y003105D01*
X000300Y003204D02*
X004360Y003204D01*
X004360Y003302D02*
X000300Y003302D01*
X000300Y003401D02*
X004360Y003401D01*
X004360Y003499D02*
X000300Y003499D01*
X000300Y003598D02*
X004360Y003598D01*
X004360Y003696D02*
X000300Y003696D01*
X000300Y003795D02*
X001345Y003795D01*
X001264Y003893D02*
X000300Y003893D01*
X000300Y003992D02*
X001264Y003992D01*
X001264Y004090D02*
X000300Y004090D01*
X000300Y004189D02*
X001264Y004189D01*
X001244Y004287D02*
X000300Y004287D01*
X000300Y004386D02*
X001146Y004386D01*
X001047Y004484D02*
X000300Y004484D01*
X000300Y004583D02*
X000949Y004583D01*
X000850Y004681D02*
X000300Y004681D01*
X000300Y004780D02*
X000752Y004780D01*
X000653Y004878D02*
X000300Y004878D01*
X000300Y004977D02*
X000555Y004977D01*
X000460Y005075D02*
X000300Y005075D01*
X000300Y005174D02*
X000460Y005174D01*
X000840Y005229D02*
X000840Y005725D01*
X000855Y005709D01*
X001047Y005630D01*
X001253Y005630D01*
X001348Y005669D01*
X001450Y005567D01*
X001450Y005112D01*
X001352Y005112D01*
X001264Y005024D01*
X001264Y004805D01*
X000840Y005229D01*
X000840Y005272D02*
X001450Y005272D01*
X001450Y005371D02*
X000840Y005371D01*
X000840Y005469D02*
X001450Y005469D01*
X001450Y005568D02*
X000840Y005568D01*
X000840Y005666D02*
X000960Y005666D01*
X001340Y005666D02*
X001351Y005666D01*
X001650Y005650D02*
X001150Y006150D01*
X001631Y005952D02*
X001650Y005998D01*
X001696Y005887D01*
X001631Y005952D01*
X001635Y005962D02*
X001665Y005962D01*
X001850Y005715D02*
X001855Y005709D01*
X002047Y005630D01*
X002253Y005630D01*
X002348Y005669D01*
X002550Y005467D01*
X002550Y005112D01*
X002452Y005112D01*
X002364Y005024D01*
X002364Y004940D01*
X002036Y004940D01*
X002036Y005024D01*
X001948Y005112D01*
X001850Y005112D01*
X001850Y005715D01*
X001850Y005666D02*
X001960Y005666D01*
X001850Y005568D02*
X002450Y005568D01*
X002351Y005666D02*
X002340Y005666D01*
X002750Y005550D02*
X002150Y006150D01*
X002631Y005952D02*
X002650Y005998D01*
X002696Y005887D01*
X002631Y005952D01*
X002635Y005962D02*
X002665Y005962D01*
X002887Y005696D02*
X003047Y005630D01*
X003253Y005630D01*
X003358Y005673D01*
X004391Y004640D01*
X003136Y004640D01*
X003136Y005024D01*
X003048Y005112D01*
X002950Y005112D01*
X002950Y005633D01*
X002887Y005696D01*
X002917Y005666D02*
X002960Y005666D01*
X002950Y005568D02*
X003464Y005568D01*
X003365Y005666D02*
X003340Y005666D01*
X003722Y005888D02*
X003769Y005824D01*
X003824Y005769D01*
X003888Y005722D01*
X003958Y005687D01*
X004033Y005662D01*
X004100Y005652D01*
X004100Y006100D01*
X004200Y006100D01*
X004200Y005652D01*
X004267Y005662D01*
X004342Y005687D01*
X004412Y005722D01*
X004476Y005769D01*
X004531Y005824D01*
X004578Y005888D01*
X004613Y005958D01*
X004637Y006030D01*
X004709Y005855D01*
X004855Y005709D01*
X005047Y005630D01*
X005060Y005630D01*
X005060Y004651D01*
X005014Y004670D01*
X004899Y004670D01*
X003627Y005942D01*
X003663Y006030D01*
X003687Y005958D01*
X003722Y005888D01*
X003706Y005863D02*
X003740Y005863D01*
X003686Y005962D02*
X003635Y005962D01*
X003804Y005765D02*
X003830Y005765D01*
X004100Y005765D02*
X004200Y005765D01*
X004200Y005863D02*
X004100Y005863D01*
X004100Y005962D02*
X004200Y005962D01*
X004200Y006060D02*
X004100Y006060D01*
X004614Y005962D02*
X004665Y005962D01*
X004706Y005863D02*
X004560Y005863D01*
X004470Y005765D02*
X004800Y005765D01*
X004960Y005666D02*
X004278Y005666D01*
X004200Y005666D02*
X004100Y005666D01*
X004022Y005666D02*
X003903Y005666D01*
X004001Y005568D02*
X005060Y005568D01*
X005060Y005469D02*
X004100Y005469D01*
X004198Y005371D02*
X005060Y005371D01*
X005060Y005272D02*
X004297Y005272D01*
X004395Y005174D02*
X005060Y005174D01*
X005060Y005075D02*
X004494Y005075D01*
X004592Y004977D02*
X005060Y004977D01*
X005060Y004878D02*
X004691Y004878D01*
X004789Y004780D02*
X005060Y004780D01*
X005060Y004681D02*
X004888Y004681D01*
X004350Y004681D02*
X003136Y004681D01*
X003136Y004780D02*
X004252Y004780D01*
X004153Y004878D02*
X003136Y004878D01*
X003136Y004977D02*
X004055Y004977D01*
X003956Y005075D02*
X003085Y005075D01*
X002950Y005174D02*
X003858Y005174D01*
X003759Y005272D02*
X002950Y005272D01*
X002950Y005371D02*
X003661Y005371D01*
X003562Y005469D02*
X002950Y005469D01*
X002750Y005550D02*
X002750Y004804D01*
X002364Y004977D02*
X002036Y004977D01*
X001985Y005075D02*
X002415Y005075D01*
X002550Y005174D02*
X001850Y005174D01*
X001850Y005272D02*
X002550Y005272D01*
X002550Y005371D02*
X001850Y005371D01*
X001850Y005469D02*
X002548Y005469D01*
X001650Y005650D02*
X001650Y004804D01*
X001264Y004878D02*
X001191Y004878D01*
X001264Y004977D02*
X001092Y004977D01*
X000994Y005075D02*
X001315Y005075D01*
X001450Y005174D02*
X000895Y005174D01*
X000460Y005272D02*
X000300Y005272D01*
X000300Y005371D02*
X000460Y005371D01*
X000460Y005469D02*
X000300Y005469D01*
X000300Y005568D02*
X000460Y005568D01*
X000460Y005666D02*
X000300Y005666D01*
X000300Y005765D02*
X000460Y005765D01*
X000460Y005863D02*
X000300Y005863D01*
X000300Y005962D02*
X000460Y005962D01*
X000460Y006060D02*
X000300Y006060D01*
X000300Y006159D02*
X000460Y006159D01*
X000460Y006257D02*
X000300Y006257D01*
X000300Y006356D02*
X000460Y006356D01*
X000485Y006454D02*
X000300Y006454D01*
X000300Y006553D02*
X000584Y006553D01*
X000682Y006651D02*
X000300Y006651D01*
X000300Y006750D02*
X000781Y006750D01*
X000360Y006848D02*
X021940Y006848D01*
X022000Y006750D02*
X021819Y006750D01*
X021840Y006651D02*
X022000Y006651D01*
X022000Y006553D02*
X021840Y006553D01*
X021840Y006454D02*
X022000Y006454D01*
X022000Y006356D02*
X021840Y006356D01*
X021460Y006356D02*
X019128Y006356D01*
X019091Y006445D02*
X019075Y006460D01*
X021460Y006460D01*
X021460Y001134D01*
X021355Y001091D01*
X021209Y000945D01*
X021137Y000770D01*
X021113Y000842D01*
X021078Y000912D01*
X021031Y000976D01*
X020976Y001031D01*
X020912Y001078D01*
X020842Y001113D01*
X020767Y001138D01*
X020700Y001148D01*
X020700Y000700D01*
X020600Y000700D01*
X020600Y001148D01*
X020533Y001138D01*
X020458Y001113D01*
X020388Y001078D01*
X020324Y001031D01*
X020269Y000976D01*
X020222Y000912D01*
X020187Y000842D01*
X020163Y000770D01*
X020091Y000945D01*
X019945Y001091D01*
X019753Y001170D01*
X019547Y001170D01*
X019355Y001091D01*
X019209Y000945D01*
X019150Y000802D01*
X019091Y000945D01*
X018945Y001091D01*
X018753Y001170D01*
X018547Y001170D01*
X018355Y001091D01*
X018209Y000945D01*
X018150Y000802D01*
X018091Y000945D01*
X017945Y001091D01*
X017753Y001170D01*
X017547Y001170D01*
X017442Y001127D01*
X016940Y001629D01*
X016940Y005707D01*
X016945Y005709D01*
X017091Y005855D01*
X017150Y005998D01*
X017209Y005855D01*
X017355Y005709D01*
X017547Y005630D01*
X017753Y005630D01*
X017945Y005709D01*
X018091Y005855D01*
X018150Y005998D01*
X018209Y005855D01*
X018355Y005709D01*
X018547Y005630D01*
X018753Y005630D01*
X018945Y005709D01*
X019091Y005855D01*
X019170Y006047D01*
X019170Y006253D01*
X019091Y006445D01*
X019081Y006454D02*
X021460Y006454D01*
X021460Y006257D02*
X019169Y006257D01*
X019170Y006159D02*
X021460Y006159D01*
X021460Y006060D02*
X019170Y006060D01*
X019135Y005962D02*
X021460Y005962D01*
X021460Y005863D02*
X019094Y005863D01*
X019000Y005765D02*
X021460Y005765D01*
X021840Y005765D02*
X022000Y005765D01*
X022000Y005863D02*
X021840Y005863D01*
X021840Y005962D02*
X022000Y005962D01*
X022000Y006060D02*
X021840Y006060D01*
X021840Y006159D02*
X022000Y006159D01*
X022000Y006257D02*
X021840Y006257D01*
X021840Y005666D02*
X022000Y005666D01*
X022000Y005568D02*
X021840Y005568D01*
X021460Y005568D02*
X016940Y005568D01*
X016940Y005666D02*
X017460Y005666D01*
X017300Y005765D02*
X017000Y005765D01*
X017094Y005863D02*
X017206Y005863D01*
X017165Y005962D02*
X017135Y005962D01*
X016547Y005630D02*
X016355Y005709D01*
X016209Y005855D01*
X016150Y005998D01*
X016091Y005855D01*
X015945Y005709D01*
X015940Y005707D01*
X015940Y001629D01*
X016442Y001127D01*
X016547Y001170D01*
X016753Y001170D01*
X016938Y001094D01*
X016560Y001471D01*
X016560Y001629D01*
X016560Y005630D01*
X016547Y005630D01*
X016560Y005568D02*
X015940Y005568D01*
X015940Y005666D02*
X016460Y005666D01*
X016300Y005765D02*
X016000Y005765D01*
X016094Y005863D02*
X016206Y005863D01*
X016165Y005962D02*
X016135Y005962D01*
X015560Y005630D02*
X015560Y001509D01*
X014940Y002129D01*
X014940Y005707D01*
X014945Y005709D01*
X015091Y005855D01*
X015150Y005998D01*
X015209Y005855D01*
X015355Y005709D01*
X015547Y005630D01*
X015560Y005630D01*
X015560Y005568D02*
X014940Y005568D01*
X014940Y005666D02*
X015460Y005666D01*
X015300Y005765D02*
X015000Y005765D01*
X015094Y005863D02*
X015206Y005863D01*
X015165Y005962D02*
X015135Y005962D01*
X014547Y005630D02*
X014355Y005709D01*
X014209Y005855D01*
X014150Y005998D01*
X014091Y005855D01*
X013945Y005709D01*
X013940Y005707D01*
X013940Y005629D01*
X014540Y005029D01*
X014540Y001170D01*
X015082Y001170D01*
X015170Y001082D01*
X015170Y000850D01*
X015209Y000945D01*
X015355Y001091D01*
X015360Y001093D01*
X015360Y001171D01*
X014671Y001860D01*
X014560Y001971D01*
X014560Y005630D01*
X014547Y005630D01*
X014560Y005568D02*
X014001Y005568D01*
X013940Y005666D02*
X014460Y005666D01*
X014300Y005765D02*
X014000Y005765D01*
X014094Y005863D02*
X014206Y005863D01*
X014165Y005962D02*
X014135Y005962D01*
X013560Y005630D02*
X013560Y005471D01*
X013671Y005360D01*
X014160Y004871D01*
X014160Y001112D01*
X014130Y001082D01*
X014130Y000850D01*
X014091Y000945D01*
X013945Y001091D01*
X013753Y001170D01*
X013547Y001170D01*
X013442Y001127D01*
X012940Y001629D01*
X012940Y005707D01*
X012945Y005709D01*
X013091Y005855D01*
X013150Y005998D01*
X013209Y005855D01*
X013355Y005709D01*
X013547Y005630D01*
X013560Y005630D01*
X013560Y005568D02*
X012940Y005568D01*
X012940Y005666D02*
X013460Y005666D01*
X013300Y005765D02*
X013000Y005765D01*
X013094Y005863D02*
X013206Y005863D01*
X013165Y005962D02*
X013135Y005962D01*
X012547Y005630D02*
X012355Y005709D01*
X012209Y005855D01*
X012170Y005950D01*
X012170Y005718D01*
X012082Y005630D01*
X011840Y005630D01*
X011840Y001729D01*
X012442Y001127D01*
X012547Y001170D01*
X012753Y001170D01*
X012938Y001094D01*
X012671Y001360D01*
X012560Y001471D01*
X012560Y005630D01*
X012547Y005630D01*
X012560Y005568D02*
X011840Y005568D01*
X012118Y005666D02*
X012460Y005666D01*
X012300Y005765D02*
X012170Y005765D01*
X012170Y005863D02*
X012206Y005863D01*
X011460Y005630D02*
X011460Y001571D01*
X011571Y001460D01*
X011938Y001094D01*
X011753Y001170D01*
X011547Y001170D01*
X011442Y001127D01*
X010440Y002129D01*
X010440Y005707D01*
X010445Y005709D01*
X010591Y005855D01*
X010670Y006047D01*
X010670Y006253D01*
X010591Y006445D01*
X010575Y006460D01*
X011130Y006460D01*
X011130Y005718D01*
X011218Y005630D01*
X011460Y005630D01*
X011460Y005568D02*
X010440Y005568D01*
X010440Y005666D02*
X011182Y005666D01*
X011130Y005765D02*
X010500Y005765D01*
X010594Y005863D02*
X011130Y005863D01*
X011130Y005962D02*
X010635Y005962D01*
X010670Y006060D02*
X011130Y006060D01*
X011130Y006159D02*
X010670Y006159D01*
X010669Y006257D02*
X011130Y006257D01*
X011130Y006356D02*
X010628Y006356D01*
X010581Y006454D02*
X011130Y006454D01*
X012170Y006454D02*
X012219Y006454D01*
X012225Y006460D02*
X012209Y006445D01*
X012170Y006350D01*
X012170Y006460D01*
X012225Y006460D01*
X012172Y006356D02*
X012170Y006356D01*
X013075Y006460D02*
X013225Y006460D01*
X013209Y006445D01*
X013150Y006302D01*
X013091Y006445D01*
X013075Y006460D01*
X013081Y006454D02*
X013219Y006454D01*
X013172Y006356D02*
X013128Y006356D01*
X014075Y006460D02*
X014225Y006460D01*
X014209Y006445D01*
X014150Y006302D01*
X014091Y006445D01*
X014075Y006460D01*
X014081Y006454D02*
X014219Y006454D01*
X014172Y006356D02*
X014128Y006356D01*
X015075Y006460D02*
X015225Y006460D01*
X015209Y006445D01*
X015150Y006302D01*
X015091Y006445D01*
X015075Y006460D01*
X015081Y006454D02*
X015219Y006454D01*
X015172Y006356D02*
X015128Y006356D01*
X016075Y006460D02*
X016225Y006460D01*
X016209Y006445D01*
X016150Y006302D01*
X016091Y006445D01*
X016075Y006460D01*
X016081Y006454D02*
X016219Y006454D01*
X016172Y006356D02*
X016128Y006356D01*
X017075Y006460D02*
X017225Y006460D01*
X017209Y006445D01*
X017150Y006302D01*
X017091Y006445D01*
X017075Y006460D01*
X017081Y006454D02*
X017219Y006454D01*
X017172Y006356D02*
X017128Y006356D01*
X018075Y006460D02*
X018225Y006460D01*
X018209Y006445D01*
X018150Y006302D01*
X018091Y006445D01*
X018075Y006460D01*
X018081Y006454D02*
X018219Y006454D01*
X018172Y006356D02*
X018128Y006356D01*
X018135Y005962D02*
X018165Y005962D01*
X018206Y005863D02*
X018094Y005863D01*
X018000Y005765D02*
X018300Y005765D01*
X018460Y005666D02*
X017840Y005666D01*
X018840Y005666D02*
X021460Y005666D01*
X021460Y005469D02*
X016940Y005469D01*
X016940Y005371D02*
X021460Y005371D01*
X021460Y005272D02*
X016940Y005272D01*
X016560Y005272D02*
X015940Y005272D01*
X015940Y005371D02*
X016560Y005371D01*
X016560Y005469D02*
X015940Y005469D01*
X015560Y005469D02*
X014940Y005469D01*
X014940Y005371D02*
X015560Y005371D01*
X015560Y005272D02*
X014940Y005272D01*
X014560Y005272D02*
X014297Y005272D01*
X014198Y005371D02*
X014560Y005371D01*
X014560Y005469D02*
X014100Y005469D01*
X013759Y005272D02*
X012940Y005272D01*
X012940Y005371D02*
X013661Y005371D01*
X013562Y005469D02*
X012940Y005469D01*
X012560Y005469D02*
X011840Y005469D01*
X011840Y005371D02*
X012560Y005371D01*
X012560Y005272D02*
X011840Y005272D01*
X011840Y005174D02*
X012560Y005174D01*
X012560Y005075D02*
X011840Y005075D01*
X011840Y004977D02*
X012560Y004977D01*
X012560Y004878D02*
X011840Y004878D01*
X011840Y004780D02*
X012560Y004780D01*
X012560Y004681D02*
X011840Y004681D01*
X011840Y004583D02*
X012560Y004583D01*
X012560Y004484D02*
X011840Y004484D01*
X011840Y004386D02*
X012560Y004386D01*
X012560Y004287D02*
X011840Y004287D01*
X011840Y004189D02*
X012560Y004189D01*
X012560Y004090D02*
X011840Y004090D01*
X011840Y003992D02*
X012560Y003992D01*
X012560Y003893D02*
X011840Y003893D01*
X011840Y003795D02*
X012560Y003795D01*
X012560Y003696D02*
X011840Y003696D01*
X011840Y003598D02*
X012560Y003598D01*
X012560Y003499D02*
X011840Y003499D01*
X011840Y003401D02*
X012560Y003401D01*
X012560Y003302D02*
X011840Y003302D01*
X011840Y003204D02*
X012560Y003204D01*
X012560Y003105D02*
X011840Y003105D01*
X011840Y003007D02*
X012560Y003007D01*
X012560Y002908D02*
X011840Y002908D01*
X011840Y002810D02*
X012560Y002810D01*
X012560Y002711D02*
X011840Y002711D01*
X011840Y002613D02*
X012560Y002613D01*
X012560Y002514D02*
X011840Y002514D01*
X011840Y002416D02*
X012560Y002416D01*
X012560Y002317D02*
X011840Y002317D01*
X011840Y002219D02*
X012560Y002219D01*
X012560Y002120D02*
X011840Y002120D01*
X011840Y002022D02*
X012560Y002022D01*
X012560Y001923D02*
X011840Y001923D01*
X011840Y001825D02*
X012560Y001825D01*
X012560Y001726D02*
X011843Y001726D01*
X011941Y001628D02*
X012560Y001628D01*
X012560Y001529D02*
X012040Y001529D01*
X012138Y001431D02*
X012601Y001431D01*
X012699Y001332D02*
X012237Y001332D01*
X012335Y001234D02*
X012798Y001234D01*
X012838Y001135D02*
X012896Y001135D01*
X013094Y000938D02*
X013173Y000858D01*
X013150Y000802D01*
X013094Y000938D01*
X013134Y000840D02*
X013166Y000840D01*
X013999Y001037D02*
X014130Y001037D01*
X014130Y000938D02*
X014094Y000938D01*
X014160Y001135D02*
X013838Y001135D01*
X014160Y001234D02*
X013335Y001234D01*
X013237Y001332D02*
X014160Y001332D01*
X014160Y001431D02*
X013138Y001431D01*
X013040Y001529D02*
X014160Y001529D01*
X014160Y001628D02*
X012941Y001628D01*
X012940Y001726D02*
X014160Y001726D01*
X014160Y001825D02*
X012940Y001825D01*
X012940Y001923D02*
X014160Y001923D01*
X014160Y002022D02*
X012940Y002022D01*
X012940Y002120D02*
X014160Y002120D01*
X014160Y002219D02*
X012940Y002219D01*
X012940Y002317D02*
X014160Y002317D01*
X014160Y002416D02*
X012940Y002416D01*
X012940Y002514D02*
X014160Y002514D01*
X014160Y002613D02*
X012940Y002613D01*
X012940Y002711D02*
X014160Y002711D01*
X014160Y002810D02*
X012940Y002810D01*
X012940Y002908D02*
X014160Y002908D01*
X014160Y003007D02*
X012940Y003007D01*
X012940Y003105D02*
X014160Y003105D01*
X014160Y003204D02*
X012940Y003204D01*
X012940Y003302D02*
X014160Y003302D01*
X014160Y003401D02*
X012940Y003401D01*
X012940Y003499D02*
X014160Y003499D01*
X014160Y003598D02*
X012940Y003598D01*
X012940Y003696D02*
X014160Y003696D01*
X014160Y003795D02*
X012940Y003795D01*
X012940Y003893D02*
X014160Y003893D01*
X014160Y003992D02*
X012940Y003992D01*
X012940Y004090D02*
X014160Y004090D01*
X014160Y004189D02*
X012940Y004189D01*
X012940Y004287D02*
X014160Y004287D01*
X014160Y004386D02*
X012940Y004386D01*
X012940Y004484D02*
X014160Y004484D01*
X014160Y004583D02*
X012940Y004583D01*
X012940Y004681D02*
X014160Y004681D01*
X014160Y004780D02*
X012940Y004780D01*
X012940Y004878D02*
X014153Y004878D01*
X014055Y004977D02*
X012940Y004977D01*
X012940Y005075D02*
X013956Y005075D01*
X013858Y005174D02*
X012940Y005174D01*
X014395Y005174D02*
X014560Y005174D01*
X014560Y005075D02*
X014494Y005075D01*
X014540Y004977D02*
X014560Y004977D01*
X014940Y004977D02*
X015560Y004977D01*
X015560Y005075D02*
X014940Y005075D01*
X014940Y005174D02*
X015560Y005174D01*
X015940Y005174D02*
X016560Y005174D01*
X016560Y005075D02*
X015940Y005075D01*
X015940Y004977D02*
X016560Y004977D01*
X016940Y004977D02*
X021460Y004977D01*
X021460Y005075D02*
X016940Y005075D01*
X016940Y005174D02*
X021460Y005174D01*
X021840Y005174D02*
X022000Y005174D01*
X022000Y005075D02*
X021840Y005075D01*
X021840Y004977D02*
X022000Y004977D01*
X022000Y004878D02*
X021840Y004878D01*
X021840Y004780D02*
X022000Y004780D01*
X022000Y004681D02*
X021840Y004681D01*
X021460Y004681D02*
X016940Y004681D01*
X016940Y004780D02*
X021460Y004780D01*
X021460Y004878D02*
X016940Y004878D01*
X016560Y004878D02*
X015940Y004878D01*
X015940Y004780D02*
X016560Y004780D01*
X016560Y004681D02*
X015940Y004681D01*
X015940Y004583D02*
X016560Y004583D01*
X016560Y004484D02*
X015940Y004484D01*
X015940Y004386D02*
X016560Y004386D01*
X016560Y004287D02*
X015940Y004287D01*
X015940Y004189D02*
X016560Y004189D01*
X016940Y004189D02*
X021460Y004189D01*
X021460Y004287D02*
X016940Y004287D01*
X016940Y004386D02*
X021460Y004386D01*
X021840Y004386D02*
X022000Y004386D01*
X022000Y004287D02*
X021840Y004287D01*
X021840Y004189D02*
X022000Y004189D01*
X022000Y004090D02*
X021840Y004090D01*
X021840Y003992D02*
X022000Y003992D01*
X022000Y003893D02*
X021840Y003893D01*
X021460Y003893D02*
X016940Y003893D01*
X016940Y003992D02*
X021460Y003992D01*
X021460Y004090D02*
X016940Y004090D01*
X016560Y004090D02*
X015940Y004090D01*
X015940Y003992D02*
X016560Y003992D01*
X016560Y003893D02*
X015940Y003893D01*
X015940Y003795D02*
X016560Y003795D01*
X016560Y003696D02*
X015940Y003696D01*
X015940Y003598D02*
X016560Y003598D01*
X016560Y003499D02*
X015940Y003499D01*
X015940Y003401D02*
X016560Y003401D01*
X016940Y003401D02*
X021460Y003401D01*
X021460Y003499D02*
X016940Y003499D01*
X016940Y003598D02*
X021460Y003598D01*
X021840Y003598D02*
X022000Y003598D01*
X022000Y003499D02*
X021840Y003499D01*
X021840Y003401D02*
X022000Y003401D01*
X022000Y003302D02*
X021840Y003302D01*
X021840Y003204D02*
X022000Y003204D01*
X022000Y003105D02*
X021840Y003105D01*
X021460Y003105D02*
X016940Y003105D01*
X016940Y003204D02*
X021460Y003204D01*
X021460Y003302D02*
X016940Y003302D01*
X016560Y003302D02*
X015940Y003302D01*
X015940Y003204D02*
X016560Y003204D01*
X016560Y003105D02*
X015940Y003105D01*
X015940Y003007D02*
X016560Y003007D01*
X016560Y002908D02*
X015940Y002908D01*
X015940Y002810D02*
X016560Y002810D01*
X016940Y002810D02*
X021460Y002810D01*
X021460Y002908D02*
X016940Y002908D01*
X016940Y003007D02*
X021460Y003007D01*
X021840Y003007D02*
X022000Y003007D01*
X022000Y002908D02*
X021840Y002908D01*
X021840Y002810D02*
X022000Y002810D01*
X022000Y002711D02*
X021840Y002711D01*
X021840Y002613D02*
X022000Y002613D01*
X022000Y002514D02*
X021840Y002514D01*
X021840Y002416D02*
X022000Y002416D01*
X022000Y002317D02*
X021840Y002317D01*
X021460Y002317D02*
X016940Y002317D01*
X016940Y002416D02*
X021460Y002416D01*
X021460Y002514D02*
X016940Y002514D01*
X016560Y002514D02*
X015940Y002514D01*
X015940Y002416D02*
X016560Y002416D01*
X016560Y002317D02*
X015940Y002317D01*
X015940Y002219D02*
X016560Y002219D01*
X016560Y002120D02*
X015940Y002120D01*
X015940Y002022D02*
X016560Y002022D01*
X016940Y002022D02*
X021460Y002022D01*
X021460Y002120D02*
X016940Y002120D01*
X016940Y002219D02*
X021460Y002219D01*
X021840Y002219D02*
X022000Y002219D01*
X022000Y002120D02*
X021840Y002120D01*
X021840Y002022D02*
X022000Y002022D01*
X022000Y001923D02*
X021840Y001923D01*
X021840Y001825D02*
X022000Y001825D01*
X022000Y001726D02*
X021840Y001726D01*
X021840Y001628D02*
X022000Y001628D01*
X022000Y001529D02*
X021840Y001529D01*
X021460Y001529D02*
X017040Y001529D01*
X016941Y001628D02*
X021460Y001628D01*
X021460Y001726D02*
X016940Y001726D01*
X016560Y001726D02*
X015940Y001726D01*
X015941Y001628D02*
X016560Y001628D01*
X016560Y001529D02*
X016040Y001529D01*
X016138Y001431D02*
X016601Y001431D01*
X016699Y001332D02*
X016237Y001332D01*
X016335Y001234D02*
X016798Y001234D01*
X016838Y001135D02*
X016896Y001135D01*
X017094Y000938D02*
X017173Y000858D01*
X017150Y000802D01*
X017094Y000938D01*
X017134Y000840D02*
X017166Y000840D01*
X017434Y001135D02*
X017462Y001135D01*
X017838Y001135D02*
X018462Y001135D01*
X018301Y001037D02*
X017999Y001037D01*
X018094Y000938D02*
X018206Y000938D01*
X018166Y000840D02*
X018134Y000840D01*
X018838Y001135D02*
X019462Y001135D01*
X019301Y001037D02*
X018999Y001037D01*
X019094Y000938D02*
X019206Y000938D01*
X019166Y000840D02*
X019134Y000840D01*
X019838Y001135D02*
X020525Y001135D01*
X020600Y001135D02*
X020700Y001135D01*
X020775Y001135D02*
X021460Y001135D01*
X021301Y001037D02*
X020969Y001037D01*
X021059Y000938D02*
X021206Y000938D01*
X021166Y000840D02*
X021114Y000840D01*
X020700Y000840D02*
X020600Y000840D01*
X020600Y000741D02*
X020700Y000741D01*
X020186Y000840D02*
X020134Y000840D01*
X020094Y000938D02*
X020241Y000938D01*
X020331Y001037D02*
X019999Y001037D01*
X020600Y001037D02*
X020700Y001037D01*
X020700Y000938D02*
X020600Y000938D01*
X021460Y001234D02*
X017335Y001234D01*
X017237Y001332D02*
X021460Y001332D01*
X021460Y001431D02*
X017138Y001431D01*
X016462Y001135D02*
X016434Y001135D01*
X016173Y000858D02*
X016094Y000938D01*
X016150Y000802D01*
X016173Y000858D01*
X016166Y000840D02*
X016134Y000840D01*
X015938Y001094D02*
X015740Y001291D01*
X015740Y001170D01*
X015753Y001170D01*
X015938Y001094D01*
X015896Y001135D02*
X015838Y001135D01*
X015798Y001234D02*
X015740Y001234D01*
X015360Y001135D02*
X015117Y001135D01*
X015170Y001037D02*
X015301Y001037D01*
X015206Y000938D02*
X015170Y000938D01*
X015298Y001234D02*
X014540Y001234D01*
X014540Y001332D02*
X015199Y001332D01*
X015101Y001431D02*
X014540Y001431D01*
X014540Y001529D02*
X015002Y001529D01*
X014904Y001628D02*
X014540Y001628D01*
X014540Y001726D02*
X014805Y001726D01*
X014707Y001825D02*
X014540Y001825D01*
X014540Y001923D02*
X014608Y001923D01*
X014560Y002022D02*
X014540Y002022D01*
X014540Y002120D02*
X014560Y002120D01*
X014560Y002219D02*
X014540Y002219D01*
X014940Y002219D02*
X015560Y002219D01*
X015560Y002120D02*
X014949Y002120D01*
X015047Y002022D02*
X015560Y002022D01*
X015560Y001923D02*
X015146Y001923D01*
X015244Y001825D02*
X015560Y001825D01*
X015560Y001726D02*
X015343Y001726D01*
X015441Y001628D02*
X015560Y001628D01*
X015560Y001529D02*
X015540Y001529D01*
X015940Y001825D02*
X016560Y001825D01*
X016560Y001923D02*
X015940Y001923D01*
X016940Y001923D02*
X021460Y001923D01*
X021460Y001825D02*
X016940Y001825D01*
X015560Y002317D02*
X014940Y002317D01*
X014940Y002416D02*
X015560Y002416D01*
X015560Y002514D02*
X014940Y002514D01*
X014560Y002514D02*
X014540Y002514D01*
X014540Y002416D02*
X014560Y002416D01*
X014560Y002317D02*
X014540Y002317D01*
X014540Y002613D02*
X014560Y002613D01*
X014560Y002711D02*
X014540Y002711D01*
X014940Y002711D02*
X015560Y002711D01*
X015560Y002613D02*
X014940Y002613D01*
X014940Y002810D02*
X015560Y002810D01*
X015560Y002908D02*
X014940Y002908D01*
X014940Y003007D02*
X015560Y003007D01*
X015560Y003105D02*
X014940Y003105D01*
X014940Y003204D02*
X015560Y003204D01*
X015560Y003302D02*
X014940Y003302D01*
X014560Y003302D02*
X014540Y003302D01*
X014540Y003204D02*
X014560Y003204D01*
X014560Y003105D02*
X014540Y003105D01*
X014540Y003007D02*
X014560Y003007D01*
X014560Y002908D02*
X014540Y002908D01*
X014540Y002810D02*
X014560Y002810D01*
X015940Y002711D02*
X016560Y002711D01*
X016560Y002613D02*
X015940Y002613D01*
X016940Y002613D02*
X021460Y002613D01*
X021460Y002711D02*
X016940Y002711D01*
X015560Y003401D02*
X014940Y003401D01*
X014940Y003499D02*
X015560Y003499D01*
X015560Y003598D02*
X014940Y003598D01*
X014560Y003598D02*
X014540Y003598D01*
X014540Y003499D02*
X014560Y003499D01*
X014560Y003401D02*
X014540Y003401D01*
X014540Y003696D02*
X014560Y003696D01*
X014560Y003795D02*
X014540Y003795D01*
X014940Y003795D02*
X015560Y003795D01*
X015560Y003696D02*
X014940Y003696D01*
X014940Y003893D02*
X015560Y003893D01*
X015560Y003992D02*
X014940Y003992D01*
X014940Y004090D02*
X015560Y004090D01*
X015560Y004189D02*
X014940Y004189D01*
X014940Y004287D02*
X015560Y004287D01*
X015560Y004386D02*
X014940Y004386D01*
X014560Y004386D02*
X014540Y004386D01*
X014540Y004287D02*
X014560Y004287D01*
X014560Y004189D02*
X014540Y004189D01*
X014540Y004090D02*
X014560Y004090D01*
X014560Y003992D02*
X014540Y003992D01*
X014540Y003893D02*
X014560Y003893D01*
X014540Y004484D02*
X014560Y004484D01*
X014560Y004583D02*
X014540Y004583D01*
X014940Y004583D02*
X015560Y004583D01*
X015560Y004484D02*
X014940Y004484D01*
X014940Y004681D02*
X015560Y004681D01*
X015560Y004780D02*
X014940Y004780D01*
X014940Y004878D02*
X015560Y004878D01*
X014560Y004878D02*
X014540Y004878D01*
X014540Y004780D02*
X014560Y004780D01*
X014560Y004681D02*
X014540Y004681D01*
X016940Y004583D02*
X021460Y004583D01*
X021460Y004484D02*
X016940Y004484D01*
X016940Y003795D02*
X021460Y003795D01*
X021460Y003696D02*
X016940Y003696D01*
X021840Y003696D02*
X022000Y003696D01*
X022000Y003795D02*
X021840Y003795D01*
X021840Y004484D02*
X022000Y004484D01*
X022000Y004583D02*
X021840Y004583D01*
X021840Y005272D02*
X022000Y005272D01*
X022000Y005371D02*
X021840Y005371D01*
X021840Y005469D02*
X022000Y005469D01*
X011460Y005469D02*
X010440Y005469D01*
X010440Y005371D02*
X011460Y005371D01*
X011460Y005272D02*
X010440Y005272D01*
X010060Y005272D02*
X009740Y005272D01*
X009740Y005329D02*
X009440Y005629D01*
X009440Y005707D01*
X009445Y005709D01*
X009591Y005855D01*
X009650Y005998D01*
X009709Y005855D01*
X009855Y005709D01*
X010047Y005630D01*
X010060Y005630D01*
X010060Y001971D01*
X010171Y001860D01*
X010938Y001094D01*
X010753Y001170D01*
X010547Y001170D01*
X010442Y001127D01*
X009740Y001829D01*
X009740Y005329D01*
X009698Y005371D02*
X010060Y005371D01*
X010060Y005469D02*
X009600Y005469D01*
X009501Y005568D02*
X010060Y005568D01*
X009960Y005666D02*
X009440Y005666D01*
X009500Y005765D02*
X009800Y005765D01*
X009706Y005863D02*
X009594Y005863D01*
X009635Y005962D02*
X009665Y005962D01*
X009060Y005630D02*
X009060Y005471D01*
X009171Y005360D01*
X009360Y005171D01*
X009360Y004409D01*
X008570Y005199D01*
X008570Y005314D01*
X008521Y005431D01*
X008431Y005521D01*
X008314Y005570D01*
X008186Y005570D01*
X008140Y005551D01*
X008140Y005630D01*
X008253Y005630D01*
X008445Y005709D01*
X008591Y005855D01*
X008650Y005998D01*
X008709Y005855D01*
X008855Y005709D01*
X009047Y005630D01*
X009060Y005630D01*
X009060Y005568D02*
X008320Y005568D01*
X008340Y005666D02*
X008960Y005666D01*
X008800Y005765D02*
X008500Y005765D01*
X008594Y005863D02*
X008706Y005863D01*
X008665Y005962D02*
X008635Y005962D01*
X007760Y005765D02*
X007500Y005765D01*
X007594Y005863D02*
X007706Y005863D01*
X007665Y005962D02*
X007635Y005962D01*
X007760Y005666D02*
X007340Y005666D01*
X007040Y005568D02*
X007760Y005568D01*
X007760Y005469D02*
X007040Y005469D01*
X007040Y005371D02*
X007760Y005371D01*
X007760Y005272D02*
X007040Y005272D01*
X007040Y005174D02*
X007760Y005174D01*
X007760Y005075D02*
X007040Y005075D01*
X007040Y004977D02*
X007760Y004977D01*
X008595Y005174D02*
X009358Y005174D01*
X009360Y005075D02*
X008694Y005075D01*
X008792Y004977D02*
X009360Y004977D01*
X009360Y004878D02*
X008891Y004878D01*
X008989Y004780D02*
X009360Y004780D01*
X009360Y004681D02*
X009088Y004681D01*
X009186Y004583D02*
X009360Y004583D01*
X009360Y004484D02*
X009285Y004484D01*
X009740Y004484D02*
X010060Y004484D01*
X010060Y004583D02*
X009740Y004583D01*
X009740Y004681D02*
X010060Y004681D01*
X010060Y004780D02*
X009740Y004780D01*
X009740Y004878D02*
X010060Y004878D01*
X010440Y004878D02*
X011460Y004878D01*
X011460Y004780D02*
X010440Y004780D01*
X010440Y004681D02*
X011460Y004681D01*
X011460Y004583D02*
X010440Y004583D01*
X010440Y004484D02*
X011460Y004484D01*
X011460Y004386D02*
X010440Y004386D01*
X010440Y004287D02*
X011460Y004287D01*
X011460Y004189D02*
X010440Y004189D01*
X010060Y004189D02*
X009740Y004189D01*
X009740Y004287D02*
X010060Y004287D01*
X010060Y004386D02*
X009740Y004386D01*
X009740Y004090D02*
X010060Y004090D01*
X010060Y003992D02*
X009740Y003992D01*
X009740Y003893D02*
X010060Y003893D01*
X010440Y003893D02*
X011460Y003893D01*
X011460Y003992D02*
X010440Y003992D01*
X010440Y004090D02*
X011460Y004090D01*
X011460Y003795D02*
X010440Y003795D01*
X010440Y003696D02*
X011460Y003696D01*
X011460Y003598D02*
X010440Y003598D01*
X010440Y003499D02*
X011460Y003499D01*
X011460Y003401D02*
X010440Y003401D01*
X010060Y003401D02*
X009740Y003401D01*
X009740Y003499D02*
X010060Y003499D01*
X010060Y003598D02*
X009740Y003598D01*
X009740Y003696D02*
X010060Y003696D01*
X010060Y003795D02*
X009740Y003795D01*
X009740Y003302D02*
X010060Y003302D01*
X010060Y003204D02*
X009740Y003204D01*
X009740Y003105D02*
X010060Y003105D01*
X010440Y003105D02*
X011460Y003105D01*
X011460Y003204D02*
X010440Y003204D01*
X010440Y003302D02*
X011460Y003302D01*
X011460Y003007D02*
X010440Y003007D01*
X010440Y002908D02*
X011460Y002908D01*
X011460Y002810D02*
X010440Y002810D01*
X010060Y002810D02*
X009740Y002810D01*
X009740Y002908D02*
X010060Y002908D01*
X010060Y003007D02*
X009740Y003007D01*
X009740Y002711D02*
X010060Y002711D01*
X010060Y002613D02*
X009740Y002613D01*
X009740Y002514D02*
X010060Y002514D01*
X010060Y002416D02*
X009740Y002416D01*
X009740Y002317D02*
X010060Y002317D01*
X010440Y002317D02*
X011460Y002317D01*
X011460Y002416D02*
X010440Y002416D01*
X010440Y002514D02*
X011460Y002514D01*
X011460Y002613D02*
X010440Y002613D01*
X010440Y002711D02*
X011460Y002711D01*
X011460Y002219D02*
X010440Y002219D01*
X010449Y002120D02*
X011460Y002120D01*
X011460Y002022D02*
X010547Y002022D01*
X010646Y001923D02*
X011460Y001923D01*
X011460Y001825D02*
X010744Y001825D01*
X010843Y001726D02*
X011460Y001726D01*
X011460Y001628D02*
X010941Y001628D01*
X011040Y001529D02*
X011502Y001529D01*
X011601Y001431D02*
X011138Y001431D01*
X011237Y001332D02*
X011699Y001332D01*
X011798Y001234D02*
X011335Y001234D01*
X011434Y001135D02*
X011462Y001135D01*
X011838Y001135D02*
X011896Y001135D01*
X012094Y000938D02*
X012173Y000858D01*
X012150Y000802D01*
X012094Y000938D01*
X012134Y000840D02*
X012166Y000840D01*
X012434Y001135D02*
X012462Y001135D01*
X013434Y001135D02*
X013462Y001135D01*
X013150Y000498D02*
X013209Y000355D01*
X013265Y000300D01*
X013035Y000300D01*
X013091Y000355D01*
X013150Y000498D01*
X013128Y000446D02*
X013172Y000446D01*
X013218Y000347D02*
X013082Y000347D01*
X012265Y000300D02*
X012035Y000300D01*
X012091Y000355D01*
X012150Y000498D01*
X012209Y000355D01*
X012265Y000300D01*
X012218Y000347D02*
X012082Y000347D01*
X012128Y000446D02*
X012172Y000446D01*
X011265Y000300D02*
X011035Y000300D01*
X011091Y000355D01*
X011150Y000498D01*
X011209Y000355D01*
X011265Y000300D01*
X011218Y000347D02*
X011082Y000347D01*
X011128Y000446D02*
X011172Y000446D01*
X010265Y000300D02*
X010035Y000300D01*
X010091Y000355D01*
X010150Y000498D01*
X010209Y000355D01*
X010265Y000300D01*
X010218Y000347D02*
X010082Y000347D01*
X010128Y000446D02*
X010172Y000446D01*
X009265Y000300D02*
X009035Y000300D01*
X009091Y000355D01*
X009150Y000498D01*
X009209Y000355D01*
X009265Y000300D01*
X009218Y000347D02*
X009082Y000347D01*
X009128Y000446D02*
X009172Y000446D01*
X008265Y000300D02*
X008035Y000300D01*
X008091Y000355D01*
X008150Y000498D01*
X008209Y000355D01*
X008265Y000300D01*
X008218Y000347D02*
X008082Y000347D01*
X008128Y000446D02*
X008172Y000446D01*
X007265Y000300D02*
X007170Y000300D01*
X007170Y000450D01*
X007209Y000355D01*
X007265Y000300D01*
X007218Y000347D02*
X007170Y000347D01*
X007170Y000446D02*
X007172Y000446D01*
X006130Y000446D02*
X006128Y000446D01*
X006130Y000450D02*
X006130Y000300D01*
X006035Y000300D01*
X006091Y000355D01*
X006130Y000450D01*
X006130Y000347D02*
X006082Y000347D01*
X008838Y001135D02*
X009160Y001135D01*
X009160Y001037D02*
X008999Y001037D01*
X009094Y000938D02*
X009160Y000938D01*
X009166Y000840D02*
X009134Y000840D01*
X009838Y001135D02*
X009896Y001135D01*
X009798Y001234D02*
X009540Y001234D01*
X009540Y001332D02*
X009699Y001332D01*
X010138Y001431D02*
X010601Y001431D01*
X010699Y001332D02*
X010237Y001332D01*
X010335Y001234D02*
X010798Y001234D01*
X010838Y001135D02*
X010896Y001135D01*
X011094Y000938D02*
X011173Y000858D01*
X011150Y000802D01*
X011094Y000938D01*
X011134Y000840D02*
X011166Y000840D01*
X010462Y001135D02*
X010434Y001135D01*
X010173Y000858D02*
X010094Y000938D01*
X010150Y000802D01*
X010173Y000858D01*
X010166Y000840D02*
X010134Y000840D01*
X010040Y001529D02*
X010502Y001529D01*
X010404Y001628D02*
X009941Y001628D01*
X009843Y001726D02*
X010305Y001726D01*
X010207Y001825D02*
X009744Y001825D01*
X009740Y001923D02*
X010108Y001923D01*
X010060Y002022D02*
X009740Y002022D01*
X009740Y002120D02*
X010060Y002120D01*
X010060Y002219D02*
X009740Y002219D01*
X006660Y002317D02*
X006240Y002317D01*
X006240Y002416D02*
X006660Y002416D01*
X006660Y002514D02*
X006240Y002514D01*
X005860Y002514D02*
X005440Y002514D01*
X005440Y002416D02*
X005860Y002416D01*
X005860Y002317D02*
X005440Y002317D01*
X004727Y002120D02*
X001973Y002120D01*
X001940Y002022D02*
X005060Y002022D01*
X005060Y001923D02*
X001940Y001923D01*
X001940Y001825D02*
X005060Y001825D01*
X005060Y001726D02*
X001940Y001726D01*
X001940Y001628D02*
X005060Y001628D01*
X005060Y001529D02*
X001940Y001529D01*
X001940Y001431D02*
X005060Y001431D01*
X004658Y002219D02*
X002042Y002219D01*
X002070Y002317D02*
X004630Y002317D01*
X004616Y002416D02*
X002069Y002416D01*
X002028Y002514D02*
X004517Y002514D01*
X005014Y002670D02*
X005060Y002651D01*
X005060Y004049D01*
X005014Y004030D01*
X004886Y004030D01*
X004769Y004079D01*
X004740Y004107D01*
X004740Y002829D01*
X004899Y002670D01*
X005014Y002670D01*
X005060Y002711D02*
X004858Y002711D01*
X004759Y002810D02*
X005060Y002810D01*
X005060Y002908D02*
X004740Y002908D01*
X004740Y003007D02*
X005060Y003007D01*
X005060Y003105D02*
X004740Y003105D01*
X004740Y003204D02*
X005060Y003204D01*
X005060Y003302D02*
X004740Y003302D01*
X004740Y003401D02*
X005060Y003401D01*
X005060Y003499D02*
X004740Y003499D01*
X004740Y003598D02*
X005060Y003598D01*
X005060Y003696D02*
X004740Y003696D01*
X004740Y003795D02*
X005060Y003795D01*
X005060Y003893D02*
X004740Y003893D01*
X004740Y003992D02*
X005060Y003992D01*
X004757Y004090D02*
X004740Y004090D01*
X004360Y004090D02*
X003136Y004090D01*
X003136Y003992D02*
X004360Y003992D01*
X004360Y003893D02*
X003136Y003893D01*
X003055Y003795D02*
X004360Y003795D01*
X005440Y003795D02*
X005860Y003795D01*
X005860Y003696D02*
X005440Y003696D01*
X005440Y003598D02*
X005860Y003598D01*
X005860Y003499D02*
X005440Y003499D01*
X005440Y003401D02*
X005860Y003401D01*
X006240Y003401D02*
X006660Y003401D01*
X006660Y003499D02*
X006240Y003499D01*
X006240Y003598D02*
X006660Y003598D01*
X006660Y003696D02*
X006240Y003696D01*
X006240Y003795D02*
X006660Y003795D01*
X006660Y003893D02*
X006240Y003893D01*
X006240Y003992D02*
X006660Y003992D01*
X006660Y004090D02*
X006240Y004090D01*
X005860Y004090D02*
X005440Y004090D01*
X005440Y003992D02*
X005860Y003992D01*
X005860Y003893D02*
X005440Y003893D01*
X005440Y004189D02*
X005860Y004189D01*
X005860Y004287D02*
X005440Y004287D01*
X005440Y004386D02*
X005860Y004386D01*
X006240Y004386D02*
X006660Y004386D01*
X006660Y004287D02*
X006240Y004287D01*
X006240Y004189D02*
X006660Y004189D01*
X006660Y004484D02*
X006240Y004484D01*
X006240Y004583D02*
X006660Y004583D01*
X006660Y004681D02*
X006240Y004681D01*
X006240Y004780D02*
X006660Y004780D01*
X006660Y004878D02*
X006240Y004878D01*
X005860Y004878D02*
X005440Y004878D01*
X005440Y004780D02*
X005860Y004780D01*
X005860Y004681D02*
X005440Y004681D01*
X005440Y004583D02*
X005860Y004583D01*
X005860Y004484D02*
X005440Y004484D01*
X004360Y004189D02*
X003136Y004189D01*
X002364Y003893D02*
X002036Y003893D01*
X001955Y003795D02*
X002445Y003795D01*
X002291Y004340D02*
X002012Y004340D01*
X001948Y004403D01*
X001666Y004403D01*
X001572Y004497D01*
X001948Y004497D01*
X002012Y004560D01*
X002160Y004560D01*
X002160Y004471D01*
X002260Y004371D01*
X002291Y004340D01*
X002246Y004386D02*
X001966Y004386D01*
X002160Y004484D02*
X001585Y004484D01*
X005440Y004977D02*
X005860Y004977D01*
X005860Y005075D02*
X005440Y005075D01*
X005440Y005174D02*
X005860Y005174D01*
X006240Y005174D02*
X006660Y005174D01*
X006660Y005075D02*
X006240Y005075D01*
X006240Y004977D02*
X006660Y004977D01*
X006660Y005272D02*
X006240Y005272D01*
X006240Y005371D02*
X006660Y005371D01*
X006660Y005469D02*
X006240Y005469D01*
X005860Y005469D02*
X005440Y005469D01*
X005440Y005371D02*
X005860Y005371D01*
X005860Y005272D02*
X005440Y005272D01*
X005440Y005568D02*
X005860Y005568D01*
X005860Y005666D02*
X005440Y005666D01*
X005500Y005765D02*
X005800Y005765D01*
X005706Y005863D02*
X005594Y005863D01*
X005635Y005962D02*
X005665Y005962D01*
X006340Y005666D02*
X006660Y005666D01*
X006660Y005568D02*
X006240Y005568D01*
X006500Y005765D02*
X006660Y005765D01*
X006660Y005863D02*
X006594Y005863D01*
X006635Y005962D02*
X006665Y005962D01*
X006650Y006302D02*
X006591Y006445D01*
X006575Y006460D01*
X006725Y006460D01*
X006709Y006445D01*
X006650Y006302D01*
X006628Y006356D02*
X006672Y006356D01*
X006719Y006454D02*
X006581Y006454D01*
X005725Y006460D02*
X005709Y006445D01*
X005650Y006302D01*
X005591Y006445D01*
X005575Y006460D01*
X005725Y006460D01*
X005719Y006454D02*
X005581Y006454D01*
X005628Y006356D02*
X005672Y006356D01*
X004725Y006460D02*
X004709Y006445D01*
X004637Y006270D01*
X004613Y006342D01*
X004578Y006412D01*
X004543Y006460D01*
X004725Y006460D01*
X004719Y006454D02*
X004547Y006454D01*
X004606Y006356D02*
X004672Y006356D01*
X003757Y006460D02*
X003722Y006412D01*
X003687Y006342D01*
X003663Y006270D01*
X003591Y006445D01*
X003575Y006460D01*
X003757Y006460D01*
X003753Y006454D02*
X003581Y006454D01*
X003628Y006356D02*
X003694Y006356D01*
X002725Y006460D02*
X002709Y006445D01*
X002650Y006302D01*
X002591Y006445D01*
X002575Y006460D01*
X002725Y006460D01*
X002719Y006454D02*
X002581Y006454D01*
X002628Y006356D02*
X002672Y006356D01*
X001725Y006460D02*
X001709Y006445D01*
X001650Y006302D01*
X001591Y006445D01*
X001575Y006460D01*
X001725Y006460D01*
X001719Y006454D02*
X001581Y006454D01*
X001628Y006356D02*
X001672Y006356D01*
X007575Y006460D02*
X007725Y006460D01*
X007709Y006445D01*
X007650Y006302D01*
X007591Y006445D01*
X007575Y006460D01*
X007581Y006454D02*
X007719Y006454D01*
X007672Y006356D02*
X007628Y006356D01*
X008575Y006460D02*
X008725Y006460D01*
X008709Y006445D01*
X008650Y006302D01*
X008591Y006445D01*
X008575Y006460D01*
X008581Y006454D02*
X008719Y006454D01*
X008672Y006356D02*
X008628Y006356D01*
X009575Y006460D02*
X009725Y006460D01*
X009709Y006445D01*
X009650Y006302D01*
X009591Y006445D01*
X009575Y006460D01*
X009581Y006454D02*
X009719Y006454D01*
X009672Y006356D02*
X009628Y006356D01*
X008180Y005568D02*
X008140Y005568D01*
X008484Y005469D02*
X009062Y005469D01*
X009161Y005371D02*
X008546Y005371D01*
X008570Y005272D02*
X009259Y005272D01*
X009740Y005174D02*
X010060Y005174D01*
X010060Y005075D02*
X009740Y005075D01*
X009740Y004977D02*
X010060Y004977D01*
X010440Y004977D02*
X011460Y004977D01*
X011460Y005075D02*
X010440Y005075D01*
X010440Y005174D02*
X011460Y005174D01*
X006660Y003302D02*
X006240Y003302D01*
X006240Y003204D02*
X006660Y003204D01*
X006660Y003105D02*
X006240Y003105D01*
X005860Y003105D02*
X005440Y003105D01*
X005440Y003204D02*
X005860Y003204D01*
X005860Y003302D02*
X005440Y003302D01*
X005440Y003007D02*
X005860Y003007D01*
X005860Y002908D02*
X005440Y002908D01*
X005440Y002810D02*
X005860Y002810D01*
X006240Y002810D02*
X006660Y002810D01*
X006660Y002908D02*
X006240Y002908D01*
X006240Y003007D02*
X006660Y003007D01*
X006660Y002711D02*
X006240Y002711D01*
X006240Y002613D02*
X006660Y002613D01*
X005860Y002613D02*
X005440Y002613D01*
X005440Y002711D02*
X005860Y002711D01*
X014035Y000300D02*
X014091Y000355D01*
X014130Y000450D01*
X014130Y000300D01*
X014035Y000300D01*
X014082Y000347D02*
X014130Y000347D01*
X014128Y000446D02*
X014130Y000446D01*
X015170Y000446D02*
X015172Y000446D01*
X015170Y000450D02*
X015209Y000355D01*
X015265Y000300D01*
X015170Y000300D01*
X015170Y000450D01*
X015170Y000347D02*
X015218Y000347D01*
X016035Y000300D02*
X016265Y000300D01*
X016209Y000355D01*
X016150Y000498D01*
X016091Y000355D01*
X016035Y000300D01*
X016082Y000347D02*
X016218Y000347D01*
X016172Y000446D02*
X016128Y000446D01*
X017035Y000300D02*
X017265Y000300D01*
X017209Y000355D01*
X017150Y000498D01*
X017091Y000355D01*
X017035Y000300D01*
X017082Y000347D02*
X017218Y000347D01*
X017172Y000446D02*
X017128Y000446D01*
X018035Y000300D02*
X018265Y000300D01*
X018209Y000355D01*
X018150Y000498D01*
X018091Y000355D01*
X018035Y000300D01*
X018082Y000347D02*
X018218Y000347D01*
X018172Y000446D02*
X018128Y000446D01*
X019035Y000300D02*
X019265Y000300D01*
X019209Y000355D01*
X019150Y000498D01*
X019091Y000355D01*
X019035Y000300D01*
X019082Y000347D02*
X019218Y000347D01*
X019172Y000446D02*
X019128Y000446D01*
X020035Y000300D02*
X020293Y000300D01*
X020269Y000324D01*
X020222Y000388D01*
X020187Y000458D01*
X020163Y000530D01*
X020091Y000355D01*
X020035Y000300D01*
X020082Y000347D02*
X020252Y000347D01*
X020193Y000446D02*
X020128Y000446D01*
X021007Y000300D02*
X021265Y000300D01*
X021209Y000355D01*
X021137Y000530D01*
X021113Y000458D01*
X021078Y000388D01*
X021031Y000324D01*
X021007Y000300D01*
X021048Y000347D02*
X021218Y000347D01*
X021172Y000446D02*
X021107Y000446D01*
X021999Y001037D02*
X022000Y001037D01*
X022000Y001135D02*
X021840Y001135D01*
X021840Y001234D02*
X022000Y001234D01*
X022000Y001332D02*
X021840Y001332D01*
X021840Y001431D02*
X022000Y001431D01*
D15*
X008250Y005250D03*
X004950Y004350D03*
X004950Y002350D03*
X001750Y002350D03*
M02*
